{"glyphs":{"0":{"ha":904,"x_min":22,"x_max":885,"o":"m 364 -25 q 92 97 163 -25 q 68 436 22 219 q 157 692 100 586 q 311 853 214 797 q 563 908 408 908 q 776 853 701 908 q 867 692 850 797 q 853 436 885 586 q 764 188 822 292 q 609 30 706 85 q 364 -25 513 -25 m 390 104 q 596 192 524 104 q 700 436 668 281 q 721 628 725 551 q 674 742 717 704 q 535 779 631 779 q 326 690 399 779 q 221 436 254 601 q 203 254 200 328 q 250 142 207 181 q 390 104 293 104 z "},"1":{"ha":443,"x_min":121,"x_max":464,"o":"m 121 0 l 282 761 l 132 736 l 158 863 l 464 908 l 271 0 l 121 0 z "},"2":{"ha":707,"x_min":-24,"x_max":714,"o":"m -24 0 l -8 75 q 125 228 46 160 q 292 360 204 296 q 401 442 357 408 q 471 504 444 476 q 513 562 497 532 q 536 632 528 592 q 522 744 553 710 q 388 779 490 779 q 277 768 335 779 q 165 738 219 757 l 194 871 q 316 898 247 888 q 444 908 385 908 q 651 832 589 908 q 688 633 714 756 q 605 472 667 538 q 451 338 543 407 q 309 230 376 282 q 193 117 242 178 l 588 117 l 564 0 l -24 0 z "},"3":{"ha":721,"x_min":-18,"x_max":721,"o":"m 226 -14 q 139 -9 186 -14 q 50 6 92 -4 q -18 26 8 15 l 10 158 q 117 126 60 136 q 233 115 174 115 q 401 147 342 115 q 478 260 461 179 q 452 364 493 332 q 322 396 411 396 l 188 396 l 224 508 l 336 508 q 543 647 514 508 q 522 747 557 715 q 375 779 488 779 q 258 768 318 779 q 149 738 197 757 l 176 867 q 292 896 222 883 q 426 908 361 908 q 650 839 579 908 q 697 661 721 769 q 638 536 683 594 q 518 453 593 478 q 619 378 594 432 q 629 250 644 324 q 502 51 600 115 q 226 -14 404 -14 z "},"4":{"ha":754,"x_min":-11,"x_max":735,"o":"m 396 0 l 436 196 l -11 196 l 13 303 l 603 894 l 735 894 l 613 318 l 704 318 l 678 196 l 586 196 l 546 0 l 396 0 m 163 314 l 486 314 l 572 722 l 163 314 z "},"5":{"ha":715,"x_min":-14,"x_max":697,"o":"m 225 -14 q 97 -4 165 -14 q -14 26 28 6 l 14 158 q 118 126 58 138 q 233 115 178 115 q 399 152 340 115 q 475 274 457 189 q 480 359 486 325 q 440 410 474 393 q 331 426 406 426 l 67 426 l 86 518 l 189 894 l 697 894 l 661 778 l 293 778 l 228 543 l 379 543 q 592 472 528 543 q 628 271 656 401 q 506 63 600 139 q 225 -14 411 -14 z "},"6":{"ha":796,"x_min":10,"x_max":753,"o":"m 311 -14 q 81 75 151 -14 q 46 332 10 164 l 89 533 q 172 729 113 644 q 325 861 231 814 q 547 908 419 908 q 664 900 615 908 q 753 876 713 892 l 725 747 q 638 771 686 763 q 529 779 590 779 q 332 720 404 779 q 239 563 260 661 l 226 507 q 350 560 283 543 q 468 578 417 578 q 680 501 617 578 q 713 285 743 425 q 648 128 694 196 q 519 24 601 61 q 311 -14 438 -14 m 338 100 q 497 149 438 100 q 575 279 557 197 q 581 378 588 338 q 538 440 575 418 q 421 461 501 461 q 308 442 365 461 q 203 393 251 424 l 182 297 q 194 149 161 199 q 338 100 228 100 z "},"7":{"ha":692,"x_min":69,"x_max":750,"o":"m 69 0 l 564 778 l 128 778 l 151 894 l 750 894 l 731 797 l 224 0 l 69 0 z "},"8":{"ha":819,"x_min":-26,"x_max":814,"o":"m 322 -14 q 26 242 -26 -14 q 97 378 43 318 q 232 463 151 438 q 147 541 168 489 q 139 653 126 593 q 259 838 164 768 q 519 908 354 908 q 748 838 682 908 q 789 653 814 768 q 732 534 775 589 q 606 450 689 479 q 715 373 686 425 q 725 242 743 321 q 603 51 699 115 q 322 -14 507 -14 m 469 497 q 592 550 549 517 q 649 650 635 583 q 630 755 664 721 q 493 789 596 789 q 349 756 403 789 q 279 650 294 722 q 375 517 256 540 l 469 497 m 347 104 q 511 138 451 104 q 586 244 571 172 q 569 340 600 310 q 465 385 539 369 l 357 408 q 234 358 283 393 q 168 247 185 322 q 193 138 153 172 q 347 104 233 104 z "},"9":{"ha":796,"x_min":65,"x_max":808,"o":"m 271 -14 q 154 -6 203 -14 q 65 17 106 3 l 93 147 q 181 122 133 131 q 289 114 228 114 q 486 174 414 114 q 579 332 558 233 l 592 388 q 469 335 536 353 q 350 317 403 317 q 141 393 207 317 q 106 610 75 469 q 171 765 125 699 q 299 870 217 832 q 507 908 382 908 q 740 817 671 908 q 772 563 808 726 l 729 361 q 574 83 690 181 q 271 -14 457 -14 m 397 432 q 511 451 454 432 q 615 500 568 471 l 636 597 q 622 744 657 696 q 481 793 588 793 q 313 744 367 793 q 242 614 260 696 q 238 516 231 557 q 283 453 246 475 q 397 432 321 432 z "},"A":{"ha":972,"x_min":-18,"x_max":832,"o":"m -18 0 l 513 894 l 682 894 l 832 0 l 682 0 l 642 231 l 282 231 l 144 0 l -18 0 m 331 347 l 642 347 l 572 757 l 331 347 z "},"Á":{"ha":972,"x_min":-18,"x_max":844,"o":"m 554 956 l 711 1201 l 844 1201 l 675 956 l 554 956 m -18 0 l 513 894 l 682 894 l 832 0 l 682 0 l 642 231 l 282 231 l 144 0 l -18 0 m 331 347 l 642 347 l 572 757 l 331 347 z "},"Ă":{"ha":972,"x_min":-18,"x_max":849,"o":"m 607 956 q 476 1009 515 956 q 454 1151 436 1063 l 551 1151 q 556 1075 542 1104 q 622 1046 569 1046 q 701 1075 669 1046 q 742 1151 732 1104 l 849 1151 q 765 1009 831 1063 q 607 956 700 956 m -18 0 l 513 894 l 682 894 l 832 0 l 682 0 l 642 231 l 282 231 l 144 0 l -18 0 m 331 347 l 642 347 l 572 757 l 331 347 z "},"Ắ":{"ha":972,"x_min":-18,"x_max":869,"o":"m 579 1118 l 707 1303 l 824 1303 l 686 1118 l 579 1118 m 610 956 q 505 976 550 956 q 440 1042 460 996 q 436 1161 421 1088 l 525 1161 q 535 1069 513 1100 q 625 1038 557 1038 q 722 1069 682 1038 q 775 1161 763 1100 l 869 1161 q 778 1003 847 1050 q 610 956 708 956 m -18 0 l 513 894 l 682 894 l 832 0 l 682 0 l 642 231 l 282 231 l 144 0 l -18 0 m 331 347 l 642 347 l 572 757 l 331 347 z "},"Ặ":{"ha":972,"x_min":-18,"x_max":847,"o":"m 606 956 q 474 1009 514 956 q 453 1151 435 1063 l 550 1151 q 554 1075 540 1104 q 621 1046 568 1046 q 699 1075 668 1046 q 740 1151 731 1104 l 847 1151 q 764 1009 829 1063 q 606 956 699 956 m -18 0 l 513 894 l 682 894 l 832 0 l 682 0 l 642 231 l 282 231 l 144 0 l -18 0 m 331 347 l 642 347 l 572 757 l 331 347 m 292 -240 l 317 -118 l 447 -118 l 422 -240 l 292 -240 z "},"Ằ":{"ha":972,"x_min":-18,"x_max":869,"o":"m 603 1118 l 543 1303 l 660 1303 l 710 1118 l 603 1118 m 610 956 q 505 976 550 956 q 440 1042 460 996 q 436 1161 421 1088 l 525 1161 q 535 1069 513 1100 q 625 1038 557 1038 q 722 1069 682 1038 q 775 1161 763 1100 l 869 1161 q 778 1003 847 1050 q 610 956 708 956 m -18 0 l 513 894 l 682 894 l 832 0 l 682 0 l 642 231 l 282 231 l 144 0 l -18 0 m 331 347 l 642 347 l 572 757 l 331 347 z "},"Ẳ":{"ha":972,"x_min":-18,"x_max":869,"o":"m 585 1125 l 601 1207 q 696 1225 669 1210 q 728 1267 722 1240 q 717 1303 733 1294 q 665 1313 701 1313 q 624 1308 643 1313 q 585 1296 604 1303 l 600 1367 q 653 1378 622 1374 q 715 1383 683 1383 q 811 1354 781 1383 q 831 1276 842 1325 q 791 1206 821 1231 q 700 1171 761 1182 l 690 1125 l 585 1125 m 610 956 q 505 976 550 956 q 440 1042 460 996 q 436 1161 421 1088 l 525 1161 q 535 1069 513 1100 q 625 1038 557 1038 q 722 1069 682 1038 q 775 1161 763 1100 l 869 1161 q 778 1003 847 1050 q 610 956 708 956 m -18 0 l 513 894 l 682 894 l 832 0 l 682 0 l 642 231 l 282 231 l 144 0 l -18 0 m 331 347 l 642 347 l 572 757 l 331 347 z "},"Ẵ":{"ha":972,"x_min":-18,"x_max":901,"o":"m 768 1190 q 699 1203 732 1190 q 637 1229 667 1217 q 575 1242 607 1242 q 509 1231 540 1242 q 450 1194 478 1219 l 471 1293 q 526 1322 492 1311 q 593 1333 560 1333 q 663 1320 632 1333 q 722 1294 693 1307 q 786 1281 751 1281 q 901 1331 858 1281 l 882 1231 q 834 1201 864 1213 q 768 1190 804 1190 m 610 956 q 505 976 550 956 q 440 1042 460 996 q 436 1161 421 1088 l 525 1161 q 535 1069 513 1100 q 625 1038 557 1038 q 722 1069 682 1038 q 775 1161 763 1100 l 869 1161 q 778 1003 847 1050 q 610 956 708 956 m -18 0 l 513 894 l 682 894 l 832 0 l 682 0 l 642 231 l 282 231 l 144 0 l -18 0 m 331 347 l 642 347 l 572 757 l 331 347 z "},"Ǎ":{"ha":972,"x_min":-18,"x_max":881,"o":"m 554 954 l 429 1178 l 547 1178 l 621 1038 l 756 1178 l 881 1178 l 660 954 l 554 954 m -18 0 l 513 894 l 682 894 l 832 0 l 682 0 l 642 231 l 282 231 l 144 0 l -18 0 m 331 347 l 642 347 l 572 757 l 331 347 z "},"Â":{"ha":972,"x_min":-18,"x_max":833,"o":"m 382 954 l 601 1178 l 707 1178 l 833 954 l 717 954 l 640 1094 l 508 954 l 382 954 m -18 0 l 513 894 l 682 894 l 832 0 l 682 0 l 642 231 l 282 231 l 144 0 l -18 0 m 331 347 l 642 347 l 572 757 l 331 347 z "},"Ấ":{"ha":972,"x_min":-18,"x_max":1006,"o":"m 763 1111 l 890 1296 l 1006 1296 l 869 1111 l 763 1111 m 379 954 l 582 1131 l 699 1131 l 826 954 l 707 954 l 632 1068 l 510 954 l 379 954 m -18 0 l 513 894 l 682 894 l 832 0 l 682 0 l 642 231 l 282 231 l 144 0 l -18 0 m 331 347 l 642 347 l 572 757 l 331 347 z "},"Ậ":{"ha":972,"x_min":-18,"x_max":833,"o":"m 382 954 l 601 1178 l 707 1178 l 833 954 l 717 954 l 640 1094 l 508 954 l 382 954 m -18 0 l 513 894 l 682 894 l 832 0 l 682 0 l 642 231 l 282 231 l 144 0 l -18 0 m 331 347 l 642 347 l 572 757 l 331 347 m 292 -240 l 317 -118 l 447 -118 l 422 -240 l 292 -240 z "},"Ầ":{"ha":972,"x_min":-18,"x_max":832,"o":"m 407 1111 l 349 1296 l 465 1296 l 514 1111 l 407 1111 m 383 954 l 585 1131 l 703 1131 l 828 954 l 708 954 l 635 1068 l 511 954 l 383 954 m -18 0 l 513 894 l 682 894 l 832 0 l 682 0 l 642 231 l 282 231 l 144 0 l -18 0 m 331 347 l 642 347 l 572 757 l 331 347 z "},"Ẩ":{"ha":972,"x_min":-18,"x_max":1031,"o":"m 774 1082 l 793 1174 q 882 1190 860 1176 q 910 1228 904 1203 q 854 1271 919 1271 q 813 1266 832 1271 q 774 1254 793 1261 l 790 1328 q 838 1340 813 1335 q 899 1344 864 1344 q 999 1315 967 1344 q 1019 1236 1031 1285 q 978 1164 1010 1190 q 889 1129 947 1138 l 879 1082 l 774 1082 m 385 954 l 586 1131 l 704 1131 l 831 954 l 711 954 l 638 1068 l 514 954 l 385 954 m -18 0 l 513 894 l 682 894 l 832 0 l 682 0 l 642 231 l 282 231 l 144 0 l -18 0 m 331 347 l 642 347 l 572 757 l 331 347 z "},"Ẫ":{"ha":972,"x_min":-18,"x_max":899,"o":"m 764 1142 q 695 1155 728 1142 q 633 1181 663 1168 q 571 1194 603 1194 q 505 1183 536 1194 q 446 1146 474 1172 l 467 1244 q 522 1274 488 1263 q 589 1285 556 1285 q 658 1272 628 1285 q 718 1247 689 1260 q 782 1233 747 1233 q 899 1282 853 1233 l 876 1183 q 830 1153 860 1165 q 764 1142 800 1142 m 386 954 l 588 1131 l 706 1131 l 832 954 l 713 954 l 639 1068 l 515 954 l 386 954 m -18 0 l 513 894 l 682 894 l 832 0 l 682 0 l 642 231 l 282 231 l 144 0 l -18 0 m 331 347 l 642 347 l 572 757 l 331 347 z "},"Ä":{"ha":972,"x_min":-18,"x_max":833,"o":"m 422 988 l 449 1107 l 575 1107 l 549 988 l 422 988 m 679 988 l 706 1107 l 833 1107 l 807 988 l 679 988 m -18 0 l 513 894 l 682 894 l 832 0 l 682 0 l 642 231 l 282 231 l 144 0 l -18 0 m 331 347 l 642 347 l 572 757 l 331 347 z "},"Ạ":{"ha":972,"x_min":-18,"x_max":832,"o":"m -18 0 l 513 894 l 682 894 l 832 0 l 682 0 l 642 231 l 282 231 l 144 0 l -18 0 m 331 347 l 642 347 l 572 757 l 331 347 m 292 -240 l 317 -118 l 447 -118 l 422 -240 l 292 -240 z "},"À":{"ha":972,"x_min":-18,"x_max":832,"o":"m 538 956 l 475 1201 l 607 1201 l 660 956 l 538 956 m -18 0 l 513 894 l 682 894 l 832 0 l 682 0 l 642 231 l 282 231 l 144 0 l -18 0 m 331 347 l 642 347 l 572 757 l 331 347 z "},"Ả":{"ha":972,"x_min":-18,"x_max":847,"o":"m 551 956 l 576 1069 q 685 1089 657 1074 q 719 1139 713 1104 q 628 1197 731 1197 q 581 1192 607 1197 q 536 1181 556 1188 l 553 1263 q 615 1276 578 1271 q 686 1281 651 1281 q 810 1246 772 1281 q 833 1151 847 1211 q 788 1063 822 1094 q 683 1021 754 1032 l 669 956 l 551 956 m -18 0 l 513 894 l 682 894 l 832 0 l 682 0 l 642 231 l 282 231 l 144 0 l -18 0 m 331 347 l 642 347 l 572 757 l 331 347 z "},"Ā":{"ha":972,"x_min":-18,"x_max":842,"o":"m 408 985 l 429 1083 l 842 1083 l 821 985 l 408 985 m -18 0 l 513 894 l 682 894 l 832 0 l 682 0 l 642 231 l 282 231 l 144 0 l -18 0 m 331 347 l 642 347 l 572 757 l 331 347 z "},"Ą":{"ha":999,"x_min":-18,"x_max":832,"o":"m 700 -306 q 603 -276 640 -306 q 578 -182 565 -246 q 614 -85 589 -124 q 682 0 639 -47 l 642 231 l 282 231 l 144 0 l -18 0 l 513 894 l 682 894 l 832 0 q 742 -74 771 -35 q 704 -156 713 -114 q 712 -199 697 -187 q 757 -211 726 -211 q 794 -207 774 -211 q 829 -196 815 -203 l 810 -287 q 760 -301 790 -296 q 700 -306 731 -306 m 331 347 l 642 347 l 572 757 l 331 347 z "},"Å":{"ha":972,"x_min":-18,"x_max":832,"o":"m -18 0 l 493 861 q 454 992 436 907 q 519 1104 469 1058 q 649 1150 569 1150 q 759 1104 724 1150 q 779 992 794 1058 q 688 861 761 907 l 832 0 l 682 0 l 642 231 l 282 231 l 144 0 l -18 0 m 599 910 q 665 933 638 910 q 700 992 693 957 q 692 1050 707 1026 q 633 1074 678 1074 q 569 1050 597 1074 q 533 992 540 1026 q 541 933 526 957 q 599 910 556 910 m 331 347 l 642 347 l 572 757 l 331 347 z "},"Ǻ":{"ha":972,"x_min":-18,"x_max":869,"o":"m 579 1185 l 736 1431 l 869 1431 l 700 1185 l 579 1185 m -18 0 l 493 861 q 454 992 436 907 q 519 1104 469 1058 q 649 1150 569 1150 q 759 1104 724 1150 q 779 992 794 1058 q 688 861 761 907 l 832 0 l 682 0 l 642 231 l 282 231 l 144 0 l -18 0 m 599 910 q 665 933 638 910 q 700 992 693 957 q 692 1050 707 1026 q 633 1074 678 1074 q 569 1050 597 1074 q 533 992 540 1026 q 541 933 526 957 q 599 910 556 910 m 331 347 l 642 347 l 572 757 l 331 347 z "},"Ã":{"ha":972,"x_min":-18,"x_max":865,"o":"m 722 965 q 651 979 685 965 q 587 1006 618 993 q 524 1019 556 1019 q 455 1008 488 1019 q 392 969 422 997 l 415 1081 q 472 1111 438 1100 q 542 1122 507 1122 q 614 1109 582 1122 q 676 1082 646 1096 q 743 1068 707 1068 q 865 1119 817 1068 l 842 1008 q 792 978 824 990 q 722 965 760 965 m -18 0 l 513 894 l 682 894 l 832 0 l 682 0 l 642 231 l 282 231 l 144 0 l -18 0 m 331 347 l 642 347 l 572 757 l 331 347 z "},"Æ":{"ha":1174,"x_min":-18,"x_max":1224,"o":"m -18 0 l 513 894 l 1224 894 l 1199 776 l 800 776 l 743 506 l 1090 506 l 1065 389 l 718 389 l 660 117 l 1058 117 l 1035 0 l 486 0 l 535 232 l 282 232 l 144 0 l -18 0 m 346 349 l 560 349 l 651 779 l 597 779 l 346 349 z "},"Ǽ":{"ha":1174,"x_min":-18,"x_max":1224,"o":"m 717 956 l 874 1201 l 1007 1201 l 838 956 l 717 956 m -18 0 l 513 894 l 1224 894 l 1199 776 l 800 776 l 743 506 l 1090 506 l 1065 389 l 718 389 l 660 117 l 1058 117 l 1035 0 l 486 0 l 535 232 l 282 232 l 144 0 l -18 0 m 346 349 l 560 349 l 651 779 l 597 779 l 346 349 z "},"B":{"ha":876,"x_min":10,"x_max":867,"o":"m 10 0 l 199 894 l 632 894 q 810 832 754 894 q 843 656 867 769 q 788 534 828 583 q 694 460 749 485 q 784 395 756 442 q 793 258 813 349 q 463 0 738 0 l 10 0 m 269 513 l 531 513 q 647 548 607 513 q 700 643 688 583 q 705 719 710 689 q 669 765 700 750 q 571 781 639 781 l 326 781 l 269 513 m 185 111 l 454 111 q 579 145 535 111 q 642 264 624 179 q 627 367 657 333 q 500 401 597 401 l 246 401 l 185 111 z "},"C":{"ha":829,"x_min":43,"x_max":872,"o":"m 424 -14 q 200 41 289 -14 q 77 197 111 96 q 72 433 43 297 q 170 687 104 581 q 347 851 236 793 q 619 908 457 908 q 759 897 697 908 q 872 865 821 885 l 844 733 q 733 767 793 756 q 603 779 672 779 q 349 690 436 779 q 225 433 261 601 q 244 195 192 276 q 464 114 296 114 q 594 124 528 114 q 724 157 661 135 l 694 24 q 568 -4 635 6 q 424 -14 501 -14 z "},"Ć":{"ha":829,"x_min":43,"x_max":872,"o":"m 543 956 l 700 1201 l 833 1201 l 664 956 l 543 956 m 424 -14 q 200 41 289 -14 q 77 197 111 96 q 72 433 43 297 q 170 687 104 581 q 347 851 236 793 q 619 908 457 908 q 759 897 697 908 q 872 865 821 885 l 844 733 q 733 767 793 756 q 603 779 672 779 q 349 690 436 779 q 225 433 261 601 q 244 195 192 276 q 464 114 296 114 q 594 124 528 114 q 724 157 661 135 l 694 24 q 568 -4 635 6 q 424 -14 501 -14 z "},"Č":{"ha":829,"x_min":43,"x_max":901,"o":"m 575 954 l 450 1178 l 568 1178 l 642 1038 l 776 1178 l 901 1178 l 681 954 l 575 954 m 424 -14 q 200 41 289 -14 q 77 197 111 96 q 72 433 43 297 q 170 687 104 581 q 347 851 236 793 q 619 908 457 908 q 759 897 697 908 q 872 865 821 885 l 844 733 q 733 767 793 756 q 603 779 672 779 q 349 690 436 779 q 225 433 261 601 q 244 195 192 276 q 464 114 296 114 q 594 124 528 114 q 724 157 661 135 l 694 24 q 568 -4 635 6 q 424 -14 501 -14 z "},"Ç":{"ha":829,"x_min":46,"x_max":872,"o":"m 317 -333 q 264 -330 294 -333 q 218 -322 233 -326 l 236 -240 q 319 -251 274 -251 q 412 -240 382 -251 q 450 -189 442 -228 q 431 -141 457 -150 q 350 -132 404 -132 l 294 -132 l 357 -10 q 171 60 244 3 q 72 213 97 118 q 72 433 46 308 q 170 687 104 581 q 347 851 236 793 q 619 908 457 908 q 759 897 697 908 q 872 865 821 885 l 844 733 q 733 767 793 756 q 603 779 672 779 q 349 690 436 779 q 225 433 261 601 q 244 195 192 276 q 464 114 296 114 q 594 124 528 114 q 724 157 661 135 l 694 24 q 583 -1 642 8 q 457 -14 524 -11 l 429 -65 q 533 -99 503 -65 q 551 -190 564 -132 q 480 -296 538 -258 q 317 -333 422 -333 z "},"Ĉ":{"ha":829,"x_min":43,"x_max":872,"o":"m 364 954 l 583 1178 l 689 1178 l 815 954 l 699 954 l 622 1094 l 490 954 l 364 954 m 424 -14 q 200 41 289 -14 q 77 197 111 96 q 72 433 43 297 q 170 687 104 581 q 347 851 236 793 q 619 908 457 908 q 759 897 697 908 q 872 865 821 885 l 844 733 q 733 767 793 756 q 603 779 672 779 q 349 690 436 779 q 225 433 261 601 q 244 195 192 276 q 464 114 296 114 q 594 124 528 114 q 724 157 661 135 l 694 24 q 568 -4 635 6 q 424 -14 501 -14 z "},"Ċ":{"ha":829,"x_min":43,"x_max":872,"o":"m 557 988 l 583 1110 l 711 1110 l 685 988 l 557 988 m 424 -14 q 200 41 289 -14 q 77 197 111 96 q 72 433 43 297 q 170 687 104 581 q 347 851 236 793 q 619 908 457 908 q 759 897 697 908 q 872 865 821 885 l 844 733 q 733 767 793 756 q 603 779 672 779 q 349 690 436 779 q 225 433 261 601 q 244 195 192 276 q 464 114 296 114 q 594 124 528 114 q 724 157 661 135 l 694 24 q 568 -4 635 6 q 424 -14 501 -14 z "},"D":{"ha":901,"x_min":10,"x_max":907,"o":"m 10 0 l 199 894 l 561 894 q 829 787 751 894 q 856 442 907 679 q 692 106 807 213 q 376 0 578 0 l 10 0 m 185 117 l 372 117 q 527 142 464 117 q 633 239 590 168 q 704 442 676 310 q 727 646 732 574 q 672 747 722 718 q 513 776 622 776 l 325 776 l 185 117 z "},"Ð":{"ha":956,"x_min":47,"x_max":961,"o":"m 64 0 l 144 381 l 47 381 l 72 497 l 168 497 l 253 894 l 615 894 q 883 787 806 894 q 910 442 961 679 q 747 106 861 213 q 431 0 632 0 l 64 0 m 239 117 l 426 117 q 581 142 518 117 q 688 239 644 168 q 758 442 731 310 q 781 646 786 574 q 726 747 776 718 q 567 776 676 776 l 379 776 l 319 497 l 550 497 l 525 381 l 294 381 l 239 117 z "},"Ď":{"ha":901,"x_min":10,"x_max":907,"o":"m 493 969 l 368 1193 l 486 1193 l 560 1053 l 694 1193 l 819 1193 l 599 969 l 493 969 m 10 0 l 199 894 l 561 894 q 829 787 751 894 q 856 442 907 679 q 692 106 807 213 q 376 0 578 0 l 10 0 m 185 117 l 372 117 q 527 142 464 117 q 633 239 590 168 q 704 442 676 310 q 727 646 732 574 q 672 747 722 718 q 513 776 622 776 l 325 776 l 185 117 z "},"Đ":{"ha":942,"x_min":33,"x_max":947,"o":"m 50 0 l 131 381 l 33 381 l 58 497 l 154 497 l 239 894 l 601 894 q 869 787 792 894 q 896 442 947 679 q 733 106 847 213 q 417 0 618 0 l 50 0 m 225 117 l 413 117 q 567 142 504 117 q 674 239 631 168 q 744 442 717 310 q 767 646 772 574 q 713 747 763 718 q 553 776 663 776 l 365 776 l 306 497 l 536 497 l 511 381 l 281 381 l 225 117 z "},"Ḍ":{"ha":901,"x_min":10,"x_max":907,"o":"m 10 0 l 199 894 l 561 894 q 829 787 751 894 q 856 442 907 679 q 692 106 807 213 q 376 0 578 0 l 10 0 m 185 117 l 372 117 q 527 142 464 117 q 633 239 590 168 q 704 442 676 310 q 727 646 732 574 q 672 747 722 718 q 513 776 622 776 l 325 776 l 185 117 m 249 -240 l 274 -118 l 404 -118 l 379 -240 l 249 -240 z "},"Ḏ":{"ha":901,"x_min":10,"x_max":907,"o":"m 10 0 l 199 894 l 561 894 q 829 787 751 894 q 856 442 907 679 q 692 106 807 213 q 376 0 578 0 l 10 0 m 185 117 l 372 117 q 527 142 464 117 q 633 239 590 168 q 704 442 676 310 q 727 646 732 574 q 672 747 722 718 q 513 776 622 776 l 325 776 l 185 117 m 56 -228 l 76 -129 l 489 -129 l 468 -228 l 56 -228 z "},"E":{"ha":765,"x_min":10,"x_max":822,"o":"m 10 0 l 199 894 l 822 894 l 797 776 l 325 776 l 268 506 l 689 506 l 664 389 l 243 389 l 185 117 l 657 117 l 633 0 l 10 0 z "},"É":{"ha":765,"x_min":10,"x_max":822,"o":"m 444 956 l 601 1201 l 735 1201 l 565 956 l 444 956 m 10 0 l 199 894 l 822 894 l 797 776 l 325 776 l 268 506 l 689 506 l 664 389 l 243 389 l 185 117 l 657 117 l 633 0 l 10 0 z "},"Ĕ":{"ha":765,"x_min":10,"x_max":822,"o":"m 525 956 q 394 1009 433 956 q 372 1151 354 1063 l 469 1151 q 474 1075 460 1104 q 540 1046 488 1046 q 619 1075 588 1046 q 660 1151 650 1104 l 767 1151 q 683 1009 749 1063 q 525 956 618 956 m 10 0 l 199 894 l 822 894 l 797 776 l 325 776 l 268 506 l 689 506 l 664 389 l 243 389 l 185 117 l 657 117 l 633 0 l 10 0 z "},"Ě":{"ha":765,"x_min":10,"x_max":822,"o":"m 475 954 l 350 1178 l 468 1178 l 542 1038 l 676 1178 l 801 1178 l 581 954 l 475 954 m 10 0 l 199 894 l 822 894 l 797 776 l 325 776 l 268 506 l 689 506 l 664 389 l 243 389 l 185 117 l 657 117 l 633 0 l 10 0 z "},"Ê":{"ha":765,"x_min":10,"x_max":822,"o":"m 288 954 l 507 1178 l 613 1178 l 739 954 l 622 954 l 546 1094 l 414 954 l 288 954 m 10 0 l 199 894 l 822 894 l 797 776 l 325 776 l 268 506 l 689 506 l 664 389 l 243 389 l 185 117 l 657 117 l 633 0 l 10 0 z "},"Ế":{"ha":764,"x_min":10,"x_max":918,"o":"m 675 1110 l 803 1294 l 918 1294 l 782 1110 l 675 1110 m 292 953 l 494 1129 l 611 1129 l 739 953 l 619 953 l 544 1067 l 422 953 l 292 953 m 10 0 l 199 894 l 822 894 l 797 776 l 325 776 l 268 506 l 689 506 l 664 389 l 243 389 l 185 117 l 657 117 l 633 0 l 10 0 z "},"Ệ":{"ha":765,"x_min":10,"x_max":822,"o":"m 282 954 l 501 1178 l 607 1178 l 733 954 l 617 954 l 540 1094 l 408 954 l 282 954 m 10 0 l 199 894 l 822 894 l 797 776 l 325 776 l 268 506 l 689 506 l 664 389 l 243 389 l 185 117 l 657 117 l 633 0 l 10 0 m 190 -240 l 215 -118 l 346 -118 l 321 -240 l 190 -240 z "},"Ề":{"ha":764,"x_min":8,"x_max":821,"o":"m 328 1110 l 269 1294 l 386 1294 l 435 1110 l 328 1110 m 304 953 l 506 1129 l 624 1129 l 749 953 l 629 953 l 556 1067 l 432 953 l 304 953 m 8 0 l 197 894 l 821 894 l 796 776 l 324 776 l 267 506 l 688 506 l 663 389 l 242 389 l 183 117 l 656 117 l 632 0 l 8 0 z "},"Ể":{"ha":764,"x_min":10,"x_max":942,"o":"m 685 1081 l 704 1172 q 793 1188 771 1175 q 821 1226 815 1201 q 765 1269 831 1269 q 724 1265 743 1269 q 685 1253 704 1260 l 701 1326 q 749 1338 724 1333 q 810 1343 775 1343 q 910 1313 878 1343 q 931 1235 942 1283 q 890 1163 921 1189 q 800 1128 858 1136 l 790 1081 l 685 1081 m 296 953 l 497 1129 l 615 1129 l 742 953 l 622 953 l 549 1067 l 425 953 l 296 953 m 10 0 l 199 894 l 822 894 l 797 776 l 325 776 l 268 506 l 689 506 l 664 389 l 243 389 l 185 117 l 657 117 l 633 0 l 10 0 z "},"Ễ":{"ha":765,"x_min":10,"x_max":822,"o":"m 676 1142 q 608 1155 640 1142 q 545 1181 575 1168 q 483 1194 515 1194 q 417 1183 449 1194 q 358 1146 386 1172 l 379 1244 q 434 1274 400 1263 q 501 1285 468 1285 q 571 1272 540 1285 q 631 1247 601 1260 q 694 1233 660 1233 q 811 1282 765 1233 l 789 1183 q 742 1153 772 1165 q 676 1142 713 1142 m 299 954 l 500 1131 l 618 1131 l 744 954 l 625 954 l 551 1068 l 428 954 l 299 954 m 10 0 l 199 894 l 822 894 l 797 776 l 325 776 l 268 506 l 689 506 l 664 389 l 243 389 l 185 117 l 657 117 l 633 0 l 10 0 z "},"Ë":{"ha":765,"x_min":10,"x_max":822,"o":"m 335 989 l 361 1108 l 488 1108 l 461 989 l 335 989 m 592 989 l 618 1108 l 746 1108 l 719 989 l 592 989 m 10 0 l 199 894 l 822 894 l 797 776 l 325 776 l 268 506 l 689 506 l 664 389 l 243 389 l 185 117 l 657 117 l 633 0 l 10 0 z "},"Ė":{"ha":765,"x_min":10,"x_max":822,"o":"m 460 988 l 486 1110 l 614 1110 l 588 988 l 460 988 m 10 0 l 199 894 l 822 894 l 797 776 l 325 776 l 268 506 l 689 506 l 664 389 l 243 389 l 185 117 l 657 117 l 633 0 l 10 0 z "},"Ẹ":{"ha":765,"x_min":10,"x_max":822,"o":"m 10 0 l 199 894 l 822 894 l 797 776 l 325 776 l 268 506 l 689 506 l 664 389 l 243 389 l 185 117 l 657 117 l 633 0 l 10 0 m 196 -240 l 221 -118 l 351 -118 l 326 -240 l 196 -240 z "},"È":{"ha":765,"x_min":10,"x_max":822,"o":"m 475 956 l 413 1201 l 544 1201 l 597 956 l 475 956 m 10 0 l 199 894 l 822 894 l 797 776 l 325 776 l 268 506 l 689 506 l 664 389 l 243 389 l 185 117 l 657 117 l 633 0 l 10 0 z "},"Ẻ":{"ha":765,"x_min":10,"x_max":822,"o":"m 454 954 l 479 1068 q 588 1088 560 1072 q 622 1138 615 1103 q 531 1196 633 1196 q 484 1191 510 1196 q 439 1179 458 1186 l 456 1261 q 517 1274 481 1269 q 589 1279 554 1279 q 713 1244 675 1279 q 736 1150 750 1210 q 691 1062 725 1093 q 586 1019 657 1031 l 572 954 l 454 954 m 10 0 l 199 894 l 822 894 l 797 776 l 325 776 l 268 506 l 689 506 l 664 389 l 243 389 l 185 117 l 657 117 l 633 0 l 10 0 z "},"Ē":{"ha":765,"x_min":10,"x_max":822,"o":"m 313 1001 l 333 1100 l 746 1100 l 725 1001 l 313 1001 m 10 0 l 199 894 l 822 894 l 797 776 l 325 776 l 268 506 l 689 506 l 664 389 l 243 389 l 185 117 l 657 117 l 633 0 l 10 0 z "},"Ę":{"ha":765,"x_min":10,"x_max":822,"o":"m 444 -306 q 347 -276 385 -306 q 322 -182 308 -246 q 372 -81 333 -129 q 463 0 410 -32 l 10 0 l 199 894 l 822 894 l 797 776 l 325 776 l 268 506 l 689 506 l 664 389 l 243 389 l 185 117 l 657 117 l 633 0 l 576 0 q 491 -74 525 -35 q 449 -156 457 -114 q 456 -199 442 -187 q 501 -211 471 -211 q 539 -207 518 -211 q 574 -196 560 -203 l 554 -287 q 505 -301 535 -296 q 444 -306 475 -306 z "},"Ẽ":{"ha":765,"x_min":10,"x_max":822,"o":"m 632 976 q 561 990 594 976 q 497 1017 528 1004 q 433 1031 465 1031 q 365 1019 397 1031 q 301 981 332 1008 l 325 1092 q 382 1122 347 1111 q 451 1133 417 1133 q 524 1120 492 1133 q 586 1093 556 1107 q 653 1079 617 1079 q 775 1131 726 1079 l 751 1019 q 701 989 733 1001 q 632 976 669 976 m 10 0 l 199 894 l 822 894 l 797 776 l 325 776 l 268 506 l 689 506 l 664 389 l 243 389 l 185 117 l 657 117 l 633 0 l 10 0 z "},"F":{"ha":728,"x_min":10,"x_max":807,"o":"m 10 0 l 199 894 l 807 894 l 782 776 l 325 776 l 268 506 l 674 506 l 649 389 l 243 389 l 161 0 l 10 0 z "},"G":{"ha":892,"x_min":29,"x_max":879,"o":"m 422 -14 q 119 106 210 -14 q 72 429 29 225 q 173 684 104 576 q 353 850 242 792 q 624 908 465 908 q 765 898 703 908 q 879 868 826 888 l 851 738 q 608 779 747 779 q 352 689 444 779 q 225 429 260 599 q 243 190 192 265 q 454 114 294 114 q 653 142 574 114 l 706 392 l 482 392 l 504 490 l 857 490 l 765 60 q 631 9 715 32 q 422 -14 546 -14 z "},"Ğ":{"ha":892,"x_min":29,"x_max":879,"o":"m 621 956 q 490 1009 529 956 q 468 1151 450 1063 l 565 1151 q 569 1075 556 1104 q 636 1046 583 1046 q 715 1075 683 1046 q 756 1151 746 1104 l 863 1151 q 779 1009 844 1063 q 621 956 714 956 m 422 -14 q 119 106 210 -14 q 72 429 29 225 q 173 684 104 576 q 353 850 242 792 q 624 908 465 908 q 765 898 703 908 q 879 868 826 888 l 851 738 q 608 779 747 779 q 352 689 444 779 q 225 429 260 599 q 243 190 192 265 q 454 114 294 114 q 653 142 574 114 l 706 392 l 482 392 l 504 490 l 857 490 l 765 60 q 631 9 715 32 q 422 -14 546 -14 z "},"Ǧ":{"ha":892,"x_min":29,"x_max":894,"o":"m 568 953 l 443 1176 l 561 1176 l 635 1036 l 769 1176 l 894 1176 l 674 953 l 568 953 m 422 -14 q 119 106 210 -14 q 72 429 29 225 q 173 684 104 576 q 353 850 242 792 q 624 908 465 908 q 765 898 703 908 q 879 868 826 888 l 851 738 q 608 779 747 779 q 352 689 444 779 q 225 429 260 599 q 243 190 192 265 q 454 114 294 114 q 653 142 574 114 l 706 392 l 482 392 l 504 490 l 857 490 l 765 60 q 631 9 715 32 q 422 -14 546 -14 z "},"Ĝ":{"ha":892,"x_min":29,"x_max":879,"o":"m 394 954 l 614 1178 l 719 1178 l 846 954 l 729 954 l 653 1094 l 521 954 l 394 954 m 422 -14 q 119 106 210 -14 q 72 429 29 225 q 173 684 104 576 q 353 850 242 792 q 624 908 465 908 q 765 898 703 908 q 879 868 826 888 l 851 738 q 608 779 747 779 q 352 689 444 779 q 225 429 260 599 q 243 190 192 265 q 454 114 294 114 q 653 142 574 114 l 706 392 l 482 392 l 504 490 l 857 490 l 765 60 q 631 9 715 32 q 422 -14 546 -14 z "},"Ģ":{"ha":892,"x_min":29,"x_max":879,"o":"m 422 -14 q 119 106 210 -14 q 72 429 29 225 q 173 684 104 576 q 353 850 242 792 q 624 908 465 908 q 765 898 703 908 q 879 868 826 888 l 851 738 q 608 779 747 779 q 352 689 444 779 q 225 429 260 599 q 243 190 192 265 q 454 114 294 114 q 653 142 574 114 l 706 392 l 482 392 l 504 490 l 857 490 l 765 60 q 631 9 715 32 q 422 -14 546 -14 m 271 -321 l 367 -58 l 492 -58 l 371 -321 l 271 -321 z "},"Ġ":{"ha":892,"x_min":29,"x_max":879,"o":"m 571 988 l 597 1110 l 725 1110 l 699 988 l 571 988 m 422 -14 q 119 106 210 -14 q 72 429 29 225 q 173 684 104 576 q 353 850 242 792 q 624 908 465 908 q 765 898 703 908 q 879 868 826 888 l 851 738 q 608 779 747 779 q 352 689 444 779 q 225 429 260 599 q 243 190 192 265 q 454 114 294 114 q 653 142 574 114 l 706 392 l 482 392 l 504 490 l 857 490 l 765 60 q 631 9 715 32 q 422 -14 546 -14 z "},"Ḡ":{"ha":892,"x_min":29,"x_max":879,"o":"m 428 996 l 449 1094 l 861 1094 l 840 996 l 428 996 m 422 -14 q 119 106 210 -14 q 72 429 29 225 q 173 684 104 576 q 353 850 242 792 q 624 908 465 908 q 765 898 703 908 q 879 868 826 888 l 851 738 q 608 779 747 779 q 352 689 444 779 q 225 429 260 599 q 243 190 192 265 q 454 114 294 114 q 653 142 574 114 l 706 392 l 482 392 l 504 490 l 857 490 l 765 60 q 631 9 715 32 q 422 -14 546 -14 z "},"H":{"ha":910,"x_min":10,"x_max":932,"o":"m 10 0 l 199 894 l 350 894 l 268 506 l 699 506 l 781 894 l 932 894 l 743 0 l 592 0 l 674 389 l 243 389 l 161 0 l 10 0 z "},"Ħ":{"ha":910,"x_min":8,"x_max":972,"o":"m 8 0 l 142 635 l 74 635 l 99 753 l 167 753 l 197 894 l 349 894 l 318 753 l 749 753 l 779 894 l 931 894 l 900 753 l 972 753 l 947 635 l 875 635 l 742 0 l 590 0 l 672 389 l 242 389 l 160 0 l 8 0 m 267 506 l 697 506 l 724 635 l 293 635 l 267 506 z "},"Ḫ":{"ha":910,"x_min":10,"x_max":932,"o":"m 10 0 l 199 894 l 350 894 l 268 506 l 699 506 l 781 894 l 932 894 l 743 0 l 592 0 l 674 389 l 243 389 l 161 0 l 10 0 m 314 -287 q 181 -234 222 -287 q 160 -90 140 -181 l 258 -90 q 263 -168 249 -139 q 328 -197 276 -197 q 406 -168 375 -197 q 447 -90 438 -139 l 554 -90 q 470 -234 535 -181 q 314 -287 406 -287 z "},"Ĥ":{"ha":910,"x_min":10,"x_max":932,"o":"m 351 954 l 571 1178 l 676 1178 l 803 954 l 686 954 l 610 1094 l 478 954 l 351 954 m 10 0 l 199 894 l 350 894 l 268 506 l 699 506 l 781 894 l 932 894 l 743 0 l 592 0 l 674 389 l 243 389 l 161 0 l 10 0 z "},"Ḥ":{"ha":910,"x_min":10,"x_max":932,"o":"m 10 0 l 199 894 l 350 894 l 268 506 l 699 506 l 781 894 l 932 894 l 743 0 l 592 0 l 674 389 l 243 389 l 161 0 l 10 0 m 261 -240 l 286 -118 l 417 -118 l 392 -240 l 261 -240 z "},"I":{"ha":328,"x_min":10,"x_max":350,"o":"m 10 0 l 199 894 l 350 894 l 161 0 l 10 0 z "},"Ĳ":{"ha":906,"x_min":10,"x_max":933,"o":"m 449 -14 q 261 18 336 -14 l 289 146 q 450 114 356 114 q 588 152 543 114 q 651 275 633 190 l 782 894 l 933 894 l 797 250 q 688 54 771 122 q 449 -14 604 -14 m 10 0 l 199 894 l 350 894 l 161 0 l 10 0 z "},"Í":{"ha":329,"x_min":10,"x_max":513,"o":"m 222 956 l 379 1201 l 513 1201 l 343 956 l 222 956 m 10 0 l 199 894 l 350 894 l 161 0 l 10 0 z "},"Ĭ":{"ha":325,"x_min":7,"x_max":528,"o":"m 286 969 q 155 1023 194 969 q 133 1165 115 1076 l 231 1165 q 235 1089 221 1118 q 301 1060 249 1060 q 380 1089 349 1060 q 421 1165 411 1118 l 528 1165 q 444 1023 510 1076 q 286 969 379 969 m 7 0 l 196 894 l 347 894 l 158 0 l 7 0 z "},"Ǐ":{"ha":325,"x_min":15,"x_max":560,"o":"m 233 954 l 108 1178 l 226 1178 l 300 1038 l 435 1178 l 560 1178 l 339 954 l 233 954 m 15 0 l 204 894 l 356 894 l 167 0 l 15 0 z "},"Î":{"ha":325,"x_min":8,"x_max":511,"o":"m 60 954 l 279 1178 l 385 1178 l 511 954 l 394 954 l 318 1094 l 186 954 l 60 954 m 8 0 l 197 894 l 349 894 l 160 0 l 8 0 z "},"Ï":{"ha":326,"x_min":8,"x_max":513,"o":"m 101 993 l 128 1113 l 254 1113 l 228 993 l 101 993 m 358 993 l 385 1113 l 513 1113 l 486 993 l 358 993 m 8 0 l 197 894 l 349 894 l 160 0 l 8 0 z "},"İ":{"ha":328,"x_min":10,"x_max":385,"o":"m 231 992 l 257 1114 l 385 1114 l 358 992 l 231 992 m 10 0 l 199 894 l 350 894 l 161 0 l 10 0 z "},"Ị":{"ha":328,"x_min":-31,"x_max":350,"o":"m 10 0 l 199 894 l 350 894 l 161 0 l 10 0 m -31 -240 l -6 -118 l 125 -118 l 100 -240 l -31 -240 z "},"Ì":{"ha":326,"x_min":8,"x_max":349,"o":"m 226 956 l 164 1201 l 296 1201 l 349 956 l 226 956 m 8 0 l 197 894 l 349 894 l 160 0 l 8 0 z "},"Ỉ":{"ha":326,"x_min":8,"x_max":522,"o":"m 226 954 l 251 1068 q 360 1088 332 1072 q 394 1138 388 1103 q 303 1196 406 1196 q 256 1191 282 1196 q 211 1179 231 1186 l 228 1261 q 290 1274 253 1269 q 361 1279 326 1279 q 485 1244 447 1279 q 508 1150 522 1210 q 463 1062 497 1093 q 358 1019 429 1031 l 344 954 l 226 954 m 8 0 l 197 894 l 349 894 l 160 0 l 8 0 z "},"Ī":{"ha":326,"x_min":8,"x_max":524,"o":"m 89 1001 l 110 1100 l 524 1100 l 503 1001 l 89 1001 m 8 0 l 197 894 l 349 894 l 160 0 l 8 0 z "},"Į":{"ha":325,"x_min":-124,"x_max":347,"o":"m 13 -306 q -85 -276 -47 -306 q -110 -182 -124 -246 q -60 -81 -99 -129 q 31 0 -22 -32 l 7 0 l 196 894 l 347 894 l 158 0 l 144 0 q 59 -74 93 -35 q 17 -156 25 -114 q 24 -199 10 -187 q 69 -211 39 -211 q 107 -207 86 -211 q 142 -196 128 -203 l 122 -287 q 73 -301 103 -296 q 13 -306 43 -306 z "},"Ĩ":{"ha":326,"x_min":8,"x_max":543,"o":"m 400 967 q 329 981 363 967 q 265 1008 296 994 q 201 1021 233 1021 q 133 1010 165 1021 q 69 971 100 999 l 93 1082 q 150 1113 115 1101 q 219 1124 185 1124 q 292 1110 260 1124 q 354 1083 324 1097 q 421 1069 385 1069 q 543 1121 494 1069 l 519 1010 q 469 979 501 992 q 400 967 438 967 m 8 0 l 197 894 l 349 894 l 160 0 l 8 0 z "},"J":{"ha":600,"x_min":-43,"x_max":629,"o":"m 144 -14 q -43 18 32 -14 l -15 146 q 146 114 51 114 q 284 152 239 114 q 347 275 329 190 l 478 894 l 629 894 l 493 250 q 383 54 467 122 q 144 -14 300 -14 z "},"Ĵ":{"ha":599,"x_min":-43,"x_max":792,"o":"m 340 954 l 560 1178 l 665 1178 l 792 954 l 675 954 l 599 1094 l 467 954 l 340 954 m 144 -14 q -43 18 32 -14 l -15 146 q 146 114 51 114 q 284 152 239 114 q 347 275 329 190 l 478 894 l 629 894 l 493 250 q 383 54 467 122 q 144 -14 300 -14 z "},"K":{"ha":869,"x_min":10,"x_max":906,"o":"m 10 0 l 199 894 l 350 894 l 263 483 l 731 894 l 906 894 l 500 533 l 731 0 l 569 0 l 385 438 l 224 296 l 161 0 l 10 0 z "},"Ķ":{"ha":869,"x_min":10,"x_max":906,"o":"m 10 0 l 199 894 l 350 894 l 263 483 l 731 894 l 906 894 l 500 533 l 731 0 l 569 0 l 385 438 l 224 296 l 161 0 l 10 0 m 194 -314 l 290 -51 l 415 -51 l 294 -314 l 194 -314 z "},"L":{"ha":731,"x_min":10,"x_max":643,"o":"m 10 0 l 199 894 l 350 894 l 185 117 l 643 117 l 619 0 l 10 0 z "},"Ĺ":{"ha":731,"x_min":10,"x_max":643,"o":"m 224 956 l 381 1201 l 514 1201 l 344 956 l 224 956 m 10 0 l 199 894 l 350 894 l 185 117 l 643 117 l 619 0 l 10 0 z "},"Ľ":{"ha":731,"x_min":10,"x_max":708,"o":"m 10 0 l 199 894 l 350 894 l 185 117 l 643 117 l 619 0 l 10 0 m 488 632 l 583 894 l 708 894 l 589 632 l 488 632 z "},"Ļ":{"ha":731,"x_min":10,"x_max":643,"o":"m 10 0 l 199 894 l 350 894 l 185 117 l 643 117 l 619 0 l 10 0 m 158 -314 l 254 -51 l 379 -51 l 258 -314 l 158 -314 z "},"Ŀ":{"ha":731,"x_min":10,"x_max":643,"o":"m 10 0 l 199 894 l 350 894 l 185 117 l 643 117 l 619 0 l 10 0 m 467 371 l 493 493 l 621 493 l 594 371 l 467 371 z "},"Ḷ":{"ha":731,"x_min":10,"x_max":643,"o":"m 10 0 l 199 894 l 350 894 l 185 117 l 643 117 l 619 0 l 10 0 m 189 -240 l 214 -118 l 344 -118 l 319 -240 l 189 -240 z "},"Ḹ":{"ha":731,"x_min":10,"x_max":643,"o":"m 115 996 l 136 1094 l 549 1094 l 528 996 l 115 996 m 10 0 l 199 894 l 350 894 l 185 117 l 643 117 l 619 0 l 10 0 m 189 -240 l 214 -118 l 344 -118 l 319 -240 l 189 -240 z "},"Ḻ":{"ha":731,"x_min":10,"x_max":643,"o":"m 10 0 l 199 894 l 350 894 l 185 117 l 643 117 l 619 0 l 10 0 m 49 -203 l 69 -104 l 482 -104 l 461 -203 l 49 -203 z "},"Ł":{"ha":731,"x_min":-44,"x_max":643,"o":"m 10 0 l 88 371 l -44 318 l -19 435 l 113 488 l 199 894 l 350 894 l 278 554 l 474 633 l 450 517 l 253 438 l 185 117 l 643 117 l 619 0 l 10 0 z "},"M":{"ha":1053,"x_min":10,"x_max":1075,"o":"m 10 0 l 199 894 l 350 894 l 511 315 l 915 894 l 1075 894 l 886 0 l 736 0 l 874 649 l 526 154 l 435 154 l 297 649 l 160 0 l 10 0 z "},"Ṃ":{"ha":1053,"x_min":10,"x_max":1075,"o":"m 10 0 l 199 894 l 350 894 l 511 315 l 915 894 l 1075 894 l 886 0 l 736 0 l 874 649 l 526 154 l 435 154 l 297 649 l 160 0 l 10 0 m 335 -240 l 360 -118 l 490 -118 l 465 -240 l 335 -240 z "},"N":{"ha":928,"x_min":10,"x_max":949,"o":"m 10 0 l 199 894 l 332 894 l 660 236 l 799 894 l 949 894 l 760 0 l 626 0 l 300 657 l 161 0 l 10 0 z "},"Ń":{"ha":928,"x_min":10,"x_max":949,"o":"m 518 956 l 675 1201 l 808 1201 l 639 956 l 518 956 m 10 0 l 199 894 l 332 894 l 660 236 l 799 894 l 949 894 l 760 0 l 626 0 l 300 657 l 161 0 l 10 0 z "},"Ň":{"ha":928,"x_min":10,"x_max":949,"o":"m 544 954 l 419 1178 l 538 1178 l 611 1038 l 746 1178 l 871 1178 l 650 954 l 544 954 m 10 0 l 199 894 l 332 894 l 660 236 l 799 894 l 949 894 l 760 0 l 626 0 l 300 657 l 161 0 l 10 0 z "},"Ņ":{"ha":928,"x_min":10,"x_max":949,"o":"m 10 0 l 199 894 l 332 894 l 660 236 l 799 894 l 949 894 l 760 0 l 626 0 l 300 657 l 161 0 l 10 0 m 229 -314 l 325 -51 l 450 -51 l 329 -314 l 229 -314 z "},"Ṅ":{"ha":928,"x_min":10,"x_max":949,"o":"m 517 988 l 543 1110 l 671 1110 l 644 988 l 517 988 m 10 0 l 199 894 l 332 894 l 660 236 l 799 894 l 949 894 l 760 0 l 626 0 l 300 657 l 161 0 l 10 0 z "},"Ṇ":{"ha":928,"x_min":10,"x_max":949,"o":"m 10 0 l 199 894 l 332 894 l 660 236 l 799 894 l 949 894 l 760 0 l 626 0 l 300 657 l 161 0 l 10 0 m 271 -240 l 296 -118 l 426 -118 l 401 -240 l 271 -240 z "},"Ŋ":{"ha":926,"x_min":10,"x_max":949,"o":"m 476 -325 q 343 -303 396 -325 l 367 -193 q 409 -203 388 -200 q 449 -207 431 -207 q 544 -183 514 -207 q 586 -106 575 -160 l 614 24 l 300 657 l 161 0 l 10 0 l 199 894 l 332 894 l 660 236 l 799 894 l 949 894 l 733 -119 q 651 -269 714 -212 q 476 -325 588 -325 z "},"Ṉ":{"ha":928,"x_min":10,"x_max":949,"o":"m 10 0 l 199 894 l 332 894 l 660 236 l 799 894 l 949 894 l 760 0 l 626 0 l 300 657 l 161 0 l 10 0 m 142 -199 l 163 -100 l 575 -100 l 554 -199 l 142 -199 z "},"Ñ":{"ha":928,"x_min":10,"x_max":949,"o":"m 707 976 q 636 990 669 976 q 572 1017 603 1004 q 508 1031 540 1031 q 440 1019 472 1031 q 376 981 407 1008 l 400 1092 q 457 1122 422 1111 q 526 1133 492 1133 q 599 1120 567 1133 q 661 1093 631 1107 q 728 1079 692 1079 q 850 1131 801 1079 l 826 1019 q 776 989 808 1001 q 707 976 744 976 m 10 0 l 199 894 l 332 894 l 660 236 l 799 894 l 949 894 l 760 0 l 626 0 l 300 657 l 161 0 l 10 0 z "},"O":{"ha":968,"x_min":24,"x_max":974,"o":"m 400 -14 q 111 98 199 -14 q 75 444 24 210 q 252 799 126 689 q 597 908 378 908 q 887 799 800 908 q 922 444 974 689 q 747 98 871 210 q 400 -14 622 -14 m 428 114 q 647 191 561 114 q 771 444 733 268 q 787 642 797 568 q 724 747 776 715 q 569 779 672 779 q 352 705 438 779 q 228 444 267 631 q 235 191 190 268 q 428 114 279 114 z "},"Ó":{"ha":968,"x_min":24,"x_max":974,"o":"m 540 956 l 697 1201 l 831 1201 l 661 956 l 540 956 m 400 -14 q 111 98 199 -14 q 75 444 24 210 q 252 799 126 689 q 597 908 378 908 q 887 799 800 908 q 922 444 974 689 q 747 98 871 210 q 400 -14 622 -14 m 428 114 q 647 191 561 114 q 771 444 733 268 q 787 642 797 568 q 724 747 776 715 q 569 779 672 779 q 352 705 438 779 q 228 444 267 631 q 235 191 190 268 q 428 114 279 114 z "},"Ŏ":{"ha":968,"x_min":24,"x_max":974,"o":"m 604 956 q 473 1009 513 956 q 451 1151 433 1063 l 549 1151 q 553 1075 539 1104 q 619 1046 567 1046 q 698 1075 667 1046 q 739 1151 729 1104 l 846 1151 q 763 1009 828 1063 q 604 956 697 956 m 400 -14 q 111 98 199 -14 q 75 444 24 210 q 252 799 126 689 q 597 908 378 908 q 887 799 800 908 q 922 444 974 689 q 747 98 871 210 q 400 -14 622 -14 m 428 114 q 647 191 561 114 q 771 444 733 268 q 787 642 797 568 q 724 747 776 715 q 569 779 672 779 q 352 705 438 779 q 228 444 267 631 q 235 191 190 268 q 428 114 279 114 z "},"Ǒ":{"ha":968,"x_min":24,"x_max":974,"o":"m 553 954 l 428 1178 l 546 1178 l 619 1038 l 754 1178 l 879 1178 l 658 954 l 553 954 m 400 -14 q 111 98 199 -14 q 75 444 24 210 q 252 799 126 689 q 597 908 378 908 q 887 799 800 908 q 922 444 974 689 q 747 98 871 210 q 400 -14 622 -14 m 428 114 q 647 191 561 114 q 771 444 733 268 q 787 642 797 568 q 724 747 776 715 q 569 779 672 779 q 352 705 438 779 q 228 444 267 631 q 235 191 190 268 q 428 114 279 114 z "},"Ô":{"ha":968,"x_min":24,"x_max":974,"o":"m 381 954 l 600 1178 l 706 1178 l 832 954 l 715 954 l 639 1094 l 507 954 l 381 954 m 400 -14 q 111 98 199 -14 q 75 444 24 210 q 252 799 126 689 q 597 908 378 908 q 887 799 800 908 q 922 444 974 689 q 747 98 871 210 q 400 -14 622 -14 m 428 114 q 647 191 561 114 q 771 444 733 268 q 787 642 797 568 q 724 747 776 715 q 569 779 672 779 q 352 705 438 779 q 228 444 267 631 q 235 191 190 268 q 428 114 279 114 z "},"Ố":{"ha":968,"x_min":24,"x_max":1014,"o":"m 771 1111 l 899 1296 l 1014 1296 l 878 1111 l 771 1111 m 388 954 l 590 1131 l 707 1131 l 835 954 l 715 954 l 640 1068 l 518 954 l 388 954 m 400 -14 q 111 98 199 -14 q 75 444 24 210 q 252 799 126 689 q 597 908 378 908 q 887 799 800 908 q 922 444 974 689 q 747 98 871 210 q 400 -14 622 -14 m 428 114 q 647 191 561 114 q 771 444 733 268 q 787 642 797 568 q 724 747 776 715 q 569 779 672 779 q 352 705 438 779 q 228 444 267 631 q 235 191 190 268 q 428 114 279 114 z "},"Ộ":{"ha":968,"x_min":24,"x_max":974,"o":"m 382 961 l 601 1185 l 707 1185 l 833 961 l 717 961 l 640 1101 l 508 961 l 382 961 m 400 -14 q 111 98 199 -14 q 75 444 24 210 q 252 799 126 689 q 597 908 378 908 q 887 799 800 908 q 922 444 974 689 q 747 98 871 210 q 400 -14 622 -14 m 428 114 q 647 191 561 114 q 771 444 733 268 q 787 642 797 568 q 724 747 776 715 q 569 779 672 779 q 352 705 438 779 q 228 444 267 631 q 235 191 190 268 q 428 114 279 114 m 289 -240 l 314 -118 l 444 -118 l 419 -240 l 289 -240 z "},"Ồ":{"ha":968,"x_min":24,"x_max":974,"o":"m 397 1111 l 339 1296 l 456 1296 l 504 1111 l 397 1111 m 374 954 l 575 1131 l 693 1131 l 818 954 l 699 954 l 625 1068 l 501 954 l 374 954 m 400 -14 q 111 98 199 -14 q 75 444 24 210 q 252 799 126 689 q 597 908 378 908 q 887 799 800 908 q 922 444 974 689 q 747 98 871 210 q 400 -14 622 -14 m 428 114 q 647 191 561 114 q 771 444 733 268 q 787 642 797 568 q 724 747 776 715 q 569 779 672 779 q 352 705 438 779 q 228 444 267 631 q 235 191 190 268 q 428 114 279 114 z "},"Ổ":{"ha":968,"x_min":24,"x_max":1026,"o":"m 769 1082 l 789 1174 q 878 1190 856 1176 q 906 1228 900 1203 q 850 1271 915 1271 q 808 1266 828 1271 q 769 1254 789 1261 l 786 1328 q 834 1340 808 1335 q 894 1344 860 1344 q 994 1315 963 1344 q 1015 1236 1026 1285 q 974 1164 1006 1190 q 885 1129 943 1138 l 875 1082 l 769 1082 m 381 954 l 582 1131 l 700 1131 l 826 954 l 707 954 l 633 1068 l 510 954 l 381 954 m 400 -14 q 111 98 199 -14 q 75 444 24 210 q 252 799 126 689 q 597 908 378 908 q 887 799 800 908 q 922 444 974 689 q 747 98 871 210 q 400 -14 622 -14 m 428 114 q 647 191 561 114 q 771 444 733 268 q 787 642 797 568 q 724 747 776 715 q 569 779 672 779 q 352 705 438 779 q 228 444 267 631 q 235 191 190 268 q 428 114 279 114 z "},"Ỗ":{"ha":968,"x_min":24,"x_max":974,"o":"m 756 1142 q 687 1155 719 1142 q 624 1181 654 1168 q 563 1194 594 1194 q 497 1183 528 1194 q 438 1146 465 1172 l 458 1244 q 513 1274 479 1263 q 581 1285 547 1285 q 650 1272 619 1285 q 710 1247 681 1260 q 774 1233 739 1233 q 890 1282 844 1233 l 868 1183 q 822 1153 851 1165 q 756 1142 792 1142 m 381 954 l 582 1131 l 700 1131 l 826 954 l 707 954 l 633 1068 l 510 954 l 381 954 m 400 -14 q 111 98 199 -14 q 75 444 24 210 q 252 799 126 689 q 597 908 378 908 q 887 799 800 908 q 922 444 974 689 q 747 98 871 210 q 400 -14 622 -14 m 428 114 q 647 191 561 114 q 771 444 733 268 q 787 642 797 568 q 724 747 776 715 q 569 779 672 779 q 352 705 438 779 q 228 444 267 631 q 235 191 190 268 q 428 114 279 114 z "},"Ö":{"ha":968,"x_min":24,"x_max":974,"o":"m 421 989 l 447 1108 l 574 1108 l 547 989 l 421 989 m 678 989 l 704 1108 l 832 1108 l 806 989 l 678 989 m 400 -14 q 111 98 199 -14 q 75 444 24 210 q 252 799 126 689 q 597 908 378 908 q 887 799 800 908 q 922 444 974 689 q 747 98 871 210 q 400 -14 622 -14 m 428 114 q 647 191 561 114 q 771 444 733 268 q 787 642 797 568 q 724 747 776 715 q 569 779 672 779 q 352 705 438 779 q 228 444 267 631 q 235 191 190 268 q 428 114 279 114 z "},"Ọ":{"ha":968,"x_min":24,"x_max":974,"o":"m 400 -14 q 111 98 199 -14 q 75 444 24 210 q 252 799 126 689 q 597 908 378 908 q 887 799 800 908 q 922 444 974 689 q 747 98 871 210 q 400 -14 622 -14 m 428 114 q 647 191 561 114 q 771 444 733 268 q 787 642 797 568 q 724 747 776 715 q 569 779 672 779 q 352 705 438 779 q 228 444 267 631 q 235 191 190 268 q 428 114 279 114 m 289 -240 l 314 -118 l 444 -118 l 419 -240 l 289 -240 z "},"Ò":{"ha":968,"x_min":24,"x_max":974,"o":"m 554 956 l 492 1201 l 624 1201 l 676 956 l 554 956 m 400 -14 q 111 98 199 -14 q 75 444 24 210 q 252 799 126 689 q 597 908 378 908 q 887 799 800 908 q 922 444 974 689 q 747 98 871 210 q 400 -14 622 -14 m 428 114 q 647 191 561 114 q 771 444 733 268 q 787 642 797 568 q 724 747 776 715 q 569 779 672 779 q 352 705 438 779 q 228 444 267 631 q 235 191 190 268 q 428 114 279 114 z "},"Ỏ":{"ha":968,"x_min":24,"x_max":974,"o":"m 550 954 l 575 1068 q 683 1088 656 1072 q 718 1138 711 1103 q 626 1196 729 1196 q 580 1191 606 1196 q 535 1179 554 1186 l 551 1261 q 613 1274 576 1269 q 685 1279 650 1279 q 808 1244 771 1279 q 832 1150 846 1210 q 787 1062 821 1093 q 682 1019 753 1031 l 668 954 l 550 954 m 400 -14 q 111 98 199 -14 q 75 444 24 210 q 252 799 126 689 q 597 908 378 908 q 887 799 800 908 q 922 444 974 689 q 747 98 871 210 q 400 -14 622 -14 m 428 114 q 647 191 561 114 q 771 444 733 268 q 787 642 797 568 q 724 747 776 715 q 569 779 672 779 q 352 705 438 779 q 228 444 267 631 q 235 191 190 268 q 428 114 279 114 z "},"Ơ":{"ha":1056,"x_min":24,"x_max":1169,"o":"m 400 -14 q 106 98 188 -14 q 75 444 24 210 q 256 799 126 689 q 597 908 385 908 q 886 801 806 908 q 999 835 963 803 q 1053 956 1035 868 l 1169 956 q 1085 770 1143 828 q 932 699 1026 713 q 940 585 943 649 q 922 444 938 522 q 742 98 871 210 q 400 -14 614 -14 m 428 114 q 651 191 568 114 q 771 444 733 268 q 760 705 810 631 q 569 779 710 779 q 410 747 478 779 q 299 642 343 715 q 228 444 254 568 q 240 191 190 268 q 428 114 289 114 z "},"Ớ":{"ha":1056,"x_min":24,"x_max":1169,"o":"m 561 956 l 718 1201 l 851 1201 l 682 956 l 561 956 m 400 -14 q 106 98 188 -14 q 75 444 24 210 q 256 799 126 689 q 597 908 385 908 q 886 801 806 908 q 999 835 963 803 q 1053 956 1035 868 l 1169 956 q 1085 770 1143 828 q 932 699 1026 713 q 940 585 943 649 q 922 444 938 522 q 742 98 871 210 q 400 -14 614 -14 m 428 114 q 651 191 568 114 q 771 444 733 268 q 760 705 810 631 q 569 779 710 779 q 410 747 478 779 q 299 642 343 715 q 228 444 254 568 q 240 191 190 268 q 428 114 289 114 z "},"Ợ":{"ha":1056,"x_min":24,"x_max":1169,"o":"m 400 -14 q 106 98 188 -14 q 75 444 24 210 q 256 799 126 689 q 597 908 385 908 q 886 801 806 908 q 999 835 963 803 q 1053 956 1035 868 l 1169 956 q 1085 770 1143 828 q 932 699 1026 713 q 940 585 943 649 q 922 444 938 522 q 742 98 871 210 q 400 -14 614 -14 m 428 114 q 651 191 568 114 q 771 444 733 268 q 760 705 810 631 q 569 779 710 779 q 410 747 478 779 q 299 642 343 715 q 228 444 254 568 q 240 191 190 268 q 428 114 289 114 m 294 -240 l 319 -118 l 450 -118 l 425 -240 l 294 -240 z "},"Ờ":{"ha":1056,"x_min":24,"x_max":1169,"o":"m 575 956 l 513 1201 l 644 1201 l 697 956 l 575 956 m 400 -14 q 106 98 188 -14 q 75 444 24 210 q 256 799 126 689 q 597 908 385 908 q 886 801 806 908 q 999 835 963 803 q 1053 956 1035 868 l 1169 956 q 1085 770 1143 828 q 932 699 1026 713 q 940 585 943 649 q 922 444 938 522 q 742 98 871 210 q 400 -14 614 -14 m 428 114 q 651 191 568 114 q 771 444 733 268 q 760 705 810 631 q 569 779 710 779 q 410 747 478 779 q 299 642 343 715 q 228 444 254 568 q 240 191 190 268 q 428 114 289 114 z "},"Ở":{"ha":1056,"x_min":24,"x_max":1169,"o":"m 557 954 l 582 1068 q 690 1088 663 1072 q 725 1138 718 1103 q 633 1196 736 1196 q 587 1191 613 1196 q 542 1179 561 1186 l 558 1261 q 620 1274 583 1269 q 692 1279 657 1279 q 815 1244 778 1279 q 839 1150 853 1210 q 794 1062 828 1093 q 689 1019 760 1031 l 675 954 l 557 954 m 400 -14 q 106 98 188 -14 q 75 444 24 210 q 256 799 126 689 q 597 908 385 908 q 886 801 806 908 q 999 835 963 803 q 1053 956 1035 868 l 1169 956 q 1085 770 1143 828 q 932 699 1026 713 q 940 585 943 649 q 922 444 938 522 q 742 98 871 210 q 400 -14 614 -14 m 428 114 q 651 191 568 114 q 771 444 733 268 q 760 705 810 631 q 569 779 710 779 q 410 747 478 779 q 299 642 343 715 q 228 444 254 568 q 240 191 190 268 q 428 114 289 114 z "},"Ỡ":{"ha":1056,"x_min":24,"x_max":1169,"o":"m 742 974 q 670 988 703 974 q 606 1015 638 1001 q 543 1028 575 1028 q 474 1017 507 1028 q 411 978 442 1006 l 435 1089 q 492 1119 457 1108 q 561 1131 526 1131 q 633 1117 601 1131 q 696 1090 665 1104 q 763 1076 726 1076 q 885 1128 836 1076 l 861 1017 q 811 986 843 999 q 742 974 779 974 m 400 -14 q 106 98 188 -14 q 75 444 24 210 q 256 799 126 689 q 597 908 385 908 q 886 801 806 908 q 999 835 963 803 q 1053 956 1035 868 l 1169 956 q 1085 770 1143 828 q 932 699 1026 713 q 940 585 943 649 q 922 444 938 522 q 742 98 871 210 q 400 -14 614 -14 m 428 114 q 651 191 568 114 q 771 444 733 268 q 760 705 810 631 q 569 779 710 779 q 410 747 478 779 q 299 642 343 715 q 228 444 254 568 q 240 191 190 268 q 428 114 289 114 z "},"Ő":{"ha":968,"x_min":24,"x_max":974,"o":"m 360 954 l 513 1182 l 649 1182 l 482 954 l 360 954 m 660 954 l 813 1182 l 950 1182 l 782 954 l 660 954 m 400 -14 q 111 98 199 -14 q 75 444 24 210 q 252 799 126 689 q 597 908 378 908 q 887 799 800 908 q 922 444 974 689 q 747 98 871 210 q 400 -14 622 -14 m 428 114 q 647 191 561 114 q 771 444 733 268 q 787 642 797 568 q 724 747 776 715 q 569 779 672 779 q 352 705 438 779 q 228 444 267 631 q 235 191 190 268 q 428 114 279 114 z "},"Ō":{"ha":968,"x_min":24,"x_max":974,"o":"m 407 1001 l 428 1100 l 840 1100 l 819 1001 l 407 1001 m 400 -14 q 111 98 199 -14 q 75 444 24 210 q 252 799 126 689 q 597 908 378 908 q 887 799 800 908 q 922 444 974 689 q 747 98 871 210 q 400 -14 622 -14 m 428 114 q 647 191 561 114 q 771 444 733 268 q 787 642 797 568 q 724 747 776 715 q 569 779 672 779 q 352 705 438 779 q 228 444 267 631 q 235 191 190 268 q 428 114 279 114 z "},"Ø":{"ha":968,"x_min":40,"x_max":958,"o":"m 133 -74 l 193 28 q 72 179 103 76 q 75 444 40 282 q 253 799 128 689 q 597 908 378 908 q 653 906 626 908 q 704 899 681 903 l 742 963 l 844 963 l 792 872 q 924 724 890 829 q 922 444 958 618 q 747 98 872 210 q 400 -14 622 -14 q 278 -1 332 -14 l 236 -74 l 133 -74 m 267 154 l 632 775 q 569 779 603 779 q 352 705 438 779 q 228 444 267 631 q 212 262 204 333 q 267 154 219 190 m 428 114 q 647 191 561 114 q 771 444 733 268 q 787 644 797 571 q 719 750 776 718 l 350 119 q 387 115 368 117 q 428 114 406 114 z "},"Ǿ":{"ha":968,"x_min":40,"x_max":958,"o":"m 519 956 l 676 1201 l 810 1201 l 640 956 l 519 956 m 133 -74 l 193 28 q 72 179 103 76 q 75 444 40 282 q 253 799 128 689 q 597 908 378 908 q 653 906 626 908 q 704 899 681 903 l 742 963 l 844 963 l 792 872 q 924 724 890 829 q 922 444 958 618 q 747 98 872 210 q 400 -14 622 -14 q 278 -1 332 -14 l 236 -74 l 133 -74 m 267 154 l 632 775 q 569 779 603 779 q 352 705 438 779 q 228 444 267 631 q 212 262 204 333 q 267 154 219 190 m 428 114 q 647 191 561 114 q 771 444 733 268 q 787 644 797 571 q 719 750 776 718 l 350 119 q 387 115 368 117 q 428 114 406 114 z "},"Õ":{"ha":968,"x_min":24,"x_max":974,"o":"m 719 965 q 649 979 682 965 q 584 1006 615 993 q 521 1019 553 1019 q 452 1008 485 1019 q 389 969 419 997 l 413 1081 q 469 1111 435 1100 q 539 1122 504 1122 q 611 1109 579 1122 q 674 1082 643 1096 q 740 1068 704 1068 q 863 1119 814 1068 l 839 1008 q 789 978 821 990 q 719 965 757 965 m 400 -14 q 111 98 199 -14 q 75 444 24 210 q 252 799 126 689 q 597 908 378 908 q 887 799 800 908 q 922 444 974 689 q 747 98 871 210 q 400 -14 622 -14 m 428 114 q 647 191 561 114 q 771 444 733 268 q 787 642 797 568 q 724 747 776 715 q 569 779 672 779 q 352 705 438 779 q 228 444 267 631 q 235 191 190 268 q 428 114 279 114 z "},"Œ":{"ha":1442,"x_min":24,"x_max":1490,"o":"m 400 -14 q 111 98 199 -14 q 75 444 24 210 q 252 799 126 689 q 597 908 378 908 q 746 890 681 908 q 854 833 811 872 l 867 894 l 1490 894 l 1465 776 l 993 776 l 936 506 l 1357 506 l 1332 389 l 911 389 l 853 117 l 1325 117 l 1301 0 l 678 0 l 689 56 q 400 -14 576 -14 m 428 114 q 647 191 561 114 q 771 444 733 268 q 787 642 797 568 q 724 747 776 715 q 569 779 672 779 q 352 705 438 779 q 228 444 267 631 q 235 191 190 268 q 428 114 279 114 z "},"P":{"ha":821,"x_min":10,"x_max":853,"o":"m 10 0 l 199 894 l 597 894 q 756 856 697 894 q 833 749 814 817 q 835 596 853 682 q 714 382 806 463 q 467 301 622 301 l 225 301 l 161 0 l 10 0 m 250 421 l 464 421 q 616 468 564 421 q 683 596 668 515 q 678 735 703 693 q 557 776 653 776 l 325 776 l 250 421 z "},"Þ":{"ha":821,"x_min":10,"x_max":821,"o":"m 10 0 l 199 894 l 350 894 l 318 742 l 565 742 q 722 703 664 742 q 801 598 781 665 q 803 444 821 531 q 681 230 774 311 q 433 149 589 149 l 192 149 l 161 0 l 10 0 m 218 268 l 432 268 q 578 316 522 268 q 651 444 635 364 q 642 579 671 536 q 514 622 613 622 l 293 622 l 218 268 z "},"Q":{"ha":968,"x_min":29,"x_max":974,"o":"m 482 -239 q 343 -179 382 -239 q 325 -10 304 -119 q 96 121 163 10 q 75 444 29 232 q 252 799 126 689 q 597 908 378 908 q 887 799 800 908 q 922 444 974 689 q 764 114 875 225 q 460 -11 653 3 q 465 -104 446 -85 q 539 -124 483 -124 q 640 -110 588 -124 l 615 -222 q 555 -234 592 -229 q 482 -239 518 -239 m 428 114 q 647 191 561 114 q 771 444 733 268 q 787 642 797 568 q 724 747 776 715 q 569 779 672 779 q 352 705 438 779 q 228 444 267 631 q 235 191 190 268 q 428 114 279 114 z "},"R":{"ha":849,"x_min":10,"x_max":865,"o":"m 10 0 l 199 894 l 596 894 q 805 817 744 894 q 838 608 865 740 q 758 447 817 514 q 600 354 699 379 q 630 315 621 336 q 646 260 639 294 l 704 0 l 549 0 l 492 250 q 465 301 483 286 q 396 317 447 317 l 228 317 l 161 0 l 10 0 m 254 439 l 474 439 q 615 479 564 439 q 686 608 667 519 q 677 736 706 696 q 558 776 649 776 l 325 776 l 254 439 z "},"Ŕ":{"ha":849,"x_min":10,"x_max":865,"o":"m 457 956 l 614 1201 l 747 1201 l 578 956 l 457 956 m 10 0 l 199 894 l 596 894 q 805 817 744 894 q 838 608 865 740 q 758 447 817 514 q 600 354 699 379 q 630 315 621 336 q 646 260 639 294 l 704 0 l 549 0 l 492 250 q 465 301 483 286 q 396 317 447 317 l 228 317 l 161 0 l 10 0 m 254 439 l 474 439 q 615 479 564 439 q 686 608 667 519 q 677 736 706 696 q 558 776 649 776 l 325 776 l 254 439 z "},"Ř":{"ha":849,"x_min":10,"x_max":865,"o":"m 479 954 l 354 1178 l 472 1178 l 546 1038 l 681 1178 l 806 1178 l 585 954 l 479 954 m 10 0 l 199 894 l 596 894 q 805 817 744 894 q 838 608 865 740 q 758 447 817 514 q 600 354 699 379 q 630 315 621 336 q 646 260 639 294 l 704 0 l 549 0 l 492 250 q 465 301 483 286 q 396 317 447 317 l 228 317 l 161 0 l 10 0 m 254 439 l 474 439 q 615 479 564 439 q 686 608 667 519 q 677 736 706 696 q 558 776 649 776 l 325 776 l 254 439 z "},"Ŗ":{"ha":849,"x_min":10,"x_max":865,"o":"m 10 0 l 199 894 l 596 894 q 805 817 744 894 q 838 608 865 740 q 758 447 817 514 q 600 354 699 379 q 630 315 621 336 q 646 260 639 294 l 704 0 l 549 0 l 492 250 q 465 301 483 286 q 396 317 447 317 l 228 317 l 161 0 l 10 0 m 254 439 l 474 439 q 615 479 564 439 q 686 608 667 519 q 677 736 706 696 q 558 776 649 776 l 325 776 l 254 439 m 158 -314 l 254 -51 l 379 -51 l 258 -314 l 158 -314 z "},"Ṛ":{"ha":849,"x_min":10,"x_max":865,"o":"m 10 0 l 199 894 l 596 894 q 805 817 744 894 q 838 608 865 740 q 758 447 817 514 q 600 354 699 379 q 630 315 621 336 q 646 260 639 294 l 704 0 l 549 0 l 492 250 q 465 301 483 286 q 396 317 447 317 l 228 317 l 161 0 l 10 0 m 254 439 l 474 439 q 615 479 564 439 q 686 608 667 519 q 677 736 706 696 q 558 776 649 776 l 325 776 l 254 439 m 232 -240 l 257 -118 l 388 -118 l 363 -240 l 232 -240 z "},"Ṝ":{"ha":849,"x_min":10,"x_max":865,"o":"m 333 996 l 354 1094 l 767 1094 l 746 996 l 333 996 m 10 0 l 199 894 l 596 894 q 805 817 744 894 q 838 608 865 740 q 758 447 817 514 q 600 354 699 379 q 630 315 621 336 q 646 260 639 294 l 704 0 l 549 0 l 492 250 q 465 301 483 286 q 396 317 447 317 l 228 317 l 161 0 l 10 0 m 254 439 l 474 439 q 615 479 564 439 q 686 608 667 519 q 677 736 706 696 q 558 776 649 776 l 325 776 l 254 439 m 232 -240 l 257 -118 l 388 -118 l 363 -240 l 232 -240 z "},"Ṟ":{"ha":849,"x_min":10,"x_max":865,"o":"m 10 0 l 199 894 l 596 894 q 805 817 744 894 q 838 608 865 740 q 758 447 817 514 q 600 354 699 379 q 630 315 621 336 q 646 260 639 294 l 704 0 l 549 0 l 492 250 q 465 301 483 286 q 396 317 447 317 l 228 317 l 161 0 l 10 0 m 254 439 l 474 439 q 615 479 564 439 q 686 608 667 519 q 677 736 706 696 q 558 776 649 776 l 325 776 l 254 439 m 82 -199 l 103 -100 l 515 -100 l 494 -199 l 82 -199 z "},"S":{"ha":771,"x_min":7,"x_max":764,"o":"m 276 -14 q 7 31 104 -14 l 36 164 q 156 128 90 142 q 290 114 222 114 q 456 139 397 114 q 531 239 515 164 q 524 313 540 285 q 460 360 508 340 q 328 403 413 381 q 148 497 197 439 q 121 657 99 556 q 241 842 146 775 q 518 908 336 908 q 662 897 596 908 q 764 872 728 886 l 736 739 q 511 779 639 779 q 350 753 411 779 q 274 657 289 726 q 279 592 265 617 q 337 549 293 567 q 461 508 381 531 q 615 443 563 482 q 683 353 668 404 q 683 239 697 303 q 621 104 667 161 q 491 17 575 47 q 276 -14 407 -14 z "},"Ś":{"ha":771,"x_min":7,"x_max":764,"o":"m 426 960 l 583 1206 l 717 1206 l 547 960 l 426 960 m 276 -14 q 7 31 104 -14 l 36 164 q 156 128 90 142 q 290 114 222 114 q 456 139 397 114 q 531 239 515 164 q 524 313 540 285 q 460 360 508 340 q 328 403 413 381 q 148 497 197 439 q 121 657 99 556 q 241 842 146 775 q 518 908 336 908 q 662 897 596 908 q 764 872 728 886 l 736 739 q 511 779 639 779 q 350 753 411 779 q 274 657 289 726 q 279 592 265 617 q 337 549 293 567 q 461 508 381 531 q 615 443 563 482 q 683 353 668 404 q 683 239 697 303 q 621 104 667 161 q 491 17 575 47 q 276 -14 407 -14 z "},"Š":{"ha":771,"x_min":7,"x_max":800,"o":"m 474 954 l 349 1178 l 467 1178 l 540 1038 l 675 1178 l 800 1178 l 579 954 l 474 954 m 276 -14 q 7 31 104 -14 l 36 164 q 156 128 90 142 q 290 114 222 114 q 456 139 397 114 q 531 239 515 164 q 524 313 540 285 q 460 360 508 340 q 328 403 413 381 q 148 497 197 439 q 121 657 99 556 q 241 842 146 775 q 518 908 336 908 q 662 897 596 908 q 764 872 728 886 l 736 739 q 511 779 639 779 q 350 753 411 779 q 274 657 289 726 q 279 592 265 617 q 337 549 293 567 q 461 508 381 531 q 615 443 563 482 q 683 353 668 404 q 683 239 697 303 q 621 104 667 161 q 491 17 575 47 q 276 -14 407 -14 z "},"Ş":{"ha":771,"x_min":7,"x_max":764,"o":"m 190 -333 q 138 -330 168 -333 q 92 -322 107 -326 l 110 -240 q 193 -251 147 -251 q 285 -240 256 -251 q 324 -189 315 -228 q 304 -141 331 -150 q 224 -132 278 -132 l 168 -132 l 229 -12 q 7 31 92 -8 l 36 164 q 156 128 90 142 q 290 114 222 114 q 456 139 397 114 q 531 239 515 164 q 524 313 540 285 q 460 360 508 340 q 328 403 413 381 q 148 497 197 439 q 121 657 99 556 q 241 842 146 775 q 518 908 336 908 q 662 897 596 908 q 764 872 728 886 l 736 739 q 511 779 639 779 q 350 753 411 779 q 274 657 289 726 q 279 592 265 617 q 337 549 293 567 q 461 508 381 531 q 615 443 563 482 q 683 353 668 404 q 683 239 697 303 q 578 63 660 129 q 331 -12 497 -3 l 303 -65 q 407 -99 376 -65 q 425 -190 438 -132 q 353 -296 411 -258 q 190 -333 296 -333 z "},"Ŝ":{"ha":771,"x_min":7,"x_max":764,"o":"m 283 965 l 503 1189 l 608 1189 l 735 965 l 618 965 l 542 1106 l 410 965 l 283 965 m 276 -14 q 7 31 104 -14 l 36 164 q 156 128 90 142 q 290 114 222 114 q 456 139 397 114 q 531 239 515 164 q 524 313 540 285 q 460 360 508 340 q 328 403 413 381 q 148 497 197 439 q 121 657 99 556 q 241 842 146 775 q 518 908 336 908 q 662 897 596 908 q 764 872 728 886 l 736 739 q 511 779 639 779 q 350 753 411 779 q 274 657 289 726 q 279 592 265 617 q 337 549 293 567 q 461 508 381 531 q 615 443 563 482 q 683 353 668 404 q 683 239 697 303 q 621 104 667 161 q 491 17 575 47 q 276 -14 407 -14 z "},"Ș":{"ha":771,"x_min":7,"x_max":764,"o":"m 276 -14 q 7 31 104 -14 l 36 164 q 156 128 90 142 q 290 114 222 114 q 456 139 397 114 q 531 239 515 164 q 524 313 540 285 q 460 360 508 340 q 328 403 413 381 q 148 497 197 439 q 121 657 99 556 q 241 842 146 775 q 518 908 336 908 q 662 897 596 908 q 764 872 728 886 l 736 739 q 511 779 639 779 q 350 753 411 779 q 274 657 289 726 q 279 592 265 617 q 337 549 293 567 q 461 508 381 531 q 615 443 563 482 q 683 353 668 404 q 683 239 697 303 q 621 104 667 161 q 491 17 575 47 q 276 -14 407 -14 m 135 -310 l 225 -69 l 357 -69 l 250 -310 l 135 -310 z "},"Ṡ":{"ha":771,"x_min":7,"x_max":764,"o":"m 449 988 l 475 1110 l 603 1110 l 576 988 l 449 988 m 276 -14 q 7 31 104 -14 l 36 164 q 156 128 90 142 q 290 114 222 114 q 456 139 397 114 q 531 239 515 164 q 524 313 540 285 q 460 360 508 340 q 328 403 413 381 q 148 497 197 439 q 121 657 99 556 q 241 842 146 775 q 518 908 336 908 q 662 897 596 908 q 764 872 728 886 l 736 739 q 511 779 639 779 q 350 753 411 779 q 274 657 289 726 q 279 592 265 617 q 337 549 293 567 q 461 508 381 531 q 615 443 563 482 q 683 353 668 404 q 683 239 697 303 q 621 104 667 161 q 491 17 575 47 q 276 -14 407 -14 z "},"Ṣ":{"ha":771,"x_min":7,"x_max":764,"o":"m 276 -14 q 7 31 104 -14 l 36 164 q 156 128 90 142 q 290 114 222 114 q 456 139 397 114 q 531 239 515 164 q 524 313 540 285 q 460 360 508 340 q 328 403 413 381 q 148 497 197 439 q 121 657 99 556 q 241 842 146 775 q 518 908 336 908 q 662 897 596 908 q 764 872 728 886 l 736 739 q 511 779 639 779 q 350 753 411 779 q 274 657 289 726 q 279 592 265 617 q 337 549 293 567 q 461 508 381 531 q 615 443 563 482 q 683 353 668 404 q 683 239 697 303 q 621 104 667 161 q 491 17 575 47 q 276 -14 407 -14 m 181 -240 l 206 -118 l 336 -118 l 311 -240 l 181 -240 z "},"ẞ":{"ha":868,"x_min":3,"x_max":842,"o":"m 453 -14 q 348 -6 397 -14 q 260 17 299 1 l 288 144 q 365 122 319 129 q 453 114 410 114 q 639 256 607 114 q 627 347 653 321 q 517 374 601 374 l 383 374 l 410 501 l 690 656 q 663 746 701 708 q 519 783 624 783 q 350 737 406 783 q 275 596 294 690 l 149 0 l 3 0 l 128 592 q 262 826 160 743 q 547 908 364 908 q 734 869 668 908 q 821 763 800 829 q 825 617 842 697 l 558 474 l 608 474 q 753 413 703 474 q 782 254 803 353 q 677 61 757 136 q 453 -14 597 -14 z "},"Ə":{"ha":936,"x_min":35,"x_max":940,"o":"m 369 -14 q 161 33 238 -14 q 60 165 85 81 q 58 360 35 249 l 90 514 l 768 514 q 760 675 785 614 q 665 764 736 736 q 468 792 594 792 q 328 777 406 792 q 193 739 251 763 l 217 854 q 363 893 282 878 q 525 908 444 908 q 851 788 761 908 q 890 436 940 668 q 721 107 847 228 q 369 -14 594 -14 m 394 99 q 626 176 540 99 q 746 406 713 253 l 201 406 l 185 331 q 217 158 161 218 q 394 99 272 99 z "},"T":{"ha":789,"x_min":119,"x_max":867,"o":"m 242 0 l 406 776 l 119 776 l 144 894 l 867 894 l 842 776 l 557 776 l 393 0 l 242 0 z "},"Ŧ":{"ha":789,"x_min":119,"x_max":867,"o":"m 242 0 l 331 425 l 154 425 l 178 538 l 354 538 l 406 776 l 119 776 l 144 894 l 867 894 l 842 776 l 557 776 l 506 538 l 686 538 l 663 425 l 482 425 l 393 0 l 242 0 z "},"Ť":{"ha":789,"x_min":119,"x_max":867,"o":"m 468 965 l 343 1189 l 461 1189 l 535 1049 l 669 1189 l 794 1189 l 574 965 l 468 965 m 242 0 l 406 776 l 119 776 l 144 894 l 867 894 l 842 776 l 557 776 l 393 0 l 242 0 z "},"Ţ":{"ha":789,"x_min":119,"x_max":867,"o":"m 218 -333 q 165 -330 196 -333 q 119 -322 135 -326 l 138 -240 q 221 -251 175 -251 q 313 -240 283 -251 q 351 -189 343 -228 q 332 -141 358 -150 q 251 -132 306 -132 l 196 -132 l 264 0 l 242 0 l 406 776 l 119 776 l 144 894 l 867 894 l 842 776 l 557 776 l 393 0 l 365 0 l 331 -65 q 435 -99 404 -65 q 453 -190 465 -132 q 381 -296 439 -258 q 218 -333 324 -333 z "},"Ț":{"ha":789,"x_min":119,"x_max":867,"o":"m 242 0 l 406 776 l 119 776 l 144 894 l 867 894 l 842 776 l 557 776 l 393 0 l 242 0 m 149 -325 l 244 -62 l 369 -62 l 249 -325 l 149 -325 z "},"Ṭ":{"ha":789,"x_min":119,"x_max":867,"o":"m 242 0 l 406 776 l 119 776 l 144 894 l 867 894 l 842 776 l 557 776 l 393 0 l 242 0 m 203 -231 l 228 -108 l 358 -108 l 333 -231 l 203 -231 z "},"Ṯ":{"ha":789,"x_min":69,"x_max":867,"o":"m 242 0 l 406 776 l 119 776 l 144 894 l 867 894 l 842 776 l 557 776 l 393 0 l 242 0 m 69 -189 l 90 -90 l 503 -90 l 482 -189 l 69 -189 z "},"U":{"ha":936,"x_min":50,"x_max":967,"o":"m 388 -14 q 191 29 269 -14 q 81 151 113 72 q 72 332 50 229 l 192 894 l 343 894 l 225 338 q 239 167 200 221 q 415 114 278 114 q 604 167 535 114 q 699 338 674 219 l 817 894 l 967 894 l 847 332 q 701 75 813 164 q 388 -14 589 -14 z "},"Ú":{"ha":936,"x_min":50,"x_max":967,"o":"m 525 956 l 682 1201 l 815 1201 l 646 956 l 525 956 m 388 -14 q 191 29 269 -14 q 81 151 113 72 q 72 332 50 229 l 192 894 l 343 894 l 225 338 q 239 167 200 221 q 415 114 278 114 q 604 167 535 114 q 699 338 674 219 l 817 894 l 967 894 l 847 332 q 701 75 813 164 q 388 -14 589 -14 z "},"Ŭ":{"ha":936,"x_min":50,"x_max":967,"o":"m 574 956 q 442 1009 482 956 q 421 1151 403 1063 l 518 1151 q 522 1075 508 1104 q 589 1046 536 1046 q 667 1075 636 1046 q 708 1151 699 1104 l 815 1151 q 732 1009 797 1063 q 574 956 667 956 m 388 -14 q 191 29 269 -14 q 81 151 113 72 q 72 332 50 229 l 192 894 l 343 894 l 225 338 q 239 167 200 221 q 415 114 278 114 q 604 167 535 114 q 699 338 674 219 l 817 894 l 967 894 l 847 332 q 701 75 813 164 q 388 -14 589 -14 z "},"Ǔ":{"ha":936,"x_min":50,"x_max":967,"o":"m 539 954 l 414 1178 l 532 1178 l 606 1038 l 740 1178 l 865 1178 l 644 954 l 539 954 m 388 -14 q 191 29 269 -14 q 81 151 113 72 q 72 332 50 229 l 192 894 l 343 894 l 225 338 q 239 167 200 221 q 415 114 278 114 q 604 167 535 114 q 699 338 674 219 l 817 894 l 967 894 l 847 332 q 701 75 813 164 q 388 -14 589 -14 z "},"Û":{"ha":936,"x_min":50,"x_max":967,"o":"m 367 954 l 586 1178 l 692 1178 l 818 954 l 701 954 l 625 1094 l 493 954 l 367 954 m 388 -14 q 191 29 269 -14 q 81 151 113 72 q 72 332 50 229 l 192 894 l 343 894 l 225 338 q 239 167 200 221 q 415 114 278 114 q 604 167 535 114 q 699 338 674 219 l 817 894 l 967 894 l 847 332 q 701 75 813 164 q 388 -14 589 -14 z "},"Ü":{"ha":936,"x_min":50,"x_max":967,"o":"m 399 989 l 425 1108 l 551 1108 l 525 989 l 399 989 m 656 989 l 682 1108 l 810 1108 l 783 989 l 656 989 m 388 -14 q 191 29 269 -14 q 81 151 113 72 q 72 332 50 229 l 192 894 l 343 894 l 225 338 q 239 167 200 221 q 415 114 278 114 q 604 167 535 114 q 699 338 674 219 l 817 894 l 967 894 l 847 332 q 701 75 813 164 q 388 -14 589 -14 z "},"Ǘ":{"ha":936,"x_min":50,"x_max":967,"o":"m 564 1092 l 686 1268 l 801 1268 l 671 1092 l 564 1092 m 393 956 l 418 1072 l 542 1072 l 517 956 l 393 956 m 668 956 l 693 1072 l 817 1072 l 792 956 l 668 956 m 388 -14 q 191 29 269 -14 q 81 151 113 72 q 72 332 50 229 l 192 894 l 343 894 l 225 338 q 239 167 200 221 q 415 114 278 114 q 604 167 535 114 q 699 338 674 219 l 817 894 l 967 894 l 847 332 q 701 75 813 164 q 388 -14 589 -14 z "},"Ǚ":{"ha":936,"x_min":50,"x_max":967,"o":"m 568 1089 l 447 1256 l 561 1256 l 632 1147 l 747 1256 l 867 1256 l 678 1089 l 568 1089 m 390 956 l 415 1072 l 540 1072 l 515 956 l 390 956 m 667 956 l 692 1072 l 814 1072 l 789 956 l 667 956 m 388 -14 q 191 29 269 -14 q 81 151 113 72 q 72 332 50 229 l 192 894 l 343 894 l 225 338 q 239 167 200 221 q 415 114 278 114 q 604 167 535 114 q 699 338 674 219 l 817 894 l 967 894 l 847 332 q 701 75 813 164 q 388 -14 589 -14 z "},"Ǜ":{"ha":936,"x_min":50,"x_max":967,"o":"m 568 1092 l 513 1268 l 629 1268 l 675 1092 l 568 1092 m 390 956 l 415 1072 l 539 1072 l 514 956 l 390 956 m 665 956 l 690 1072 l 814 1072 l 789 956 l 665 956 m 388 -14 q 191 29 269 -14 q 81 151 113 72 q 72 332 50 229 l 192 894 l 343 894 l 225 338 q 239 167 200 221 q 415 114 278 114 q 604 167 535 114 q 699 338 674 219 l 817 894 l 967 894 l 847 332 q 701 75 813 164 q 388 -14 589 -14 z "},"Ǖ":{"ha":936,"x_min":50,"x_max":967,"o":"m 432 1154 l 453 1253 l 865 1253 l 844 1154 l 432 1154 m 404 963 l 431 1082 l 557 1082 l 531 963 l 404 963 m 661 963 l 688 1082 l 815 1082 l 789 963 l 661 963 m 388 -14 q 191 29 269 -14 q 81 151 113 72 q 72 332 50 229 l 192 894 l 343 894 l 225 338 q 239 167 200 221 q 415 114 278 114 q 604 167 535 114 q 699 338 674 219 l 817 894 l 967 894 l 847 332 q 701 75 813 164 q 388 -14 589 -14 z "},"Ụ":{"ha":936,"x_min":50,"x_max":967,"o":"m 388 -14 q 191 29 269 -14 q 81 151 113 72 q 72 332 50 229 l 192 894 l 343 894 l 225 338 q 239 167 200 221 q 415 114 278 114 q 604 167 535 114 q 699 338 674 219 l 817 894 l 967 894 l 847 332 q 701 75 813 164 q 388 -14 589 -14 m 275 -240 l 300 -118 l 431 -118 l 406 -240 l 275 -240 z "},"Ù":{"ha":936,"x_min":50,"x_max":967,"o":"m 551 956 l 489 1201 l 621 1201 l 674 956 l 551 956 m 388 -14 q 191 29 269 -14 q 81 151 113 72 q 72 332 50 229 l 192 894 l 343 894 l 225 338 q 239 167 200 221 q 415 114 278 114 q 604 167 535 114 q 699 338 674 219 l 817 894 l 967 894 l 847 332 q 701 75 813 164 q 388 -14 589 -14 z "},"Ủ":{"ha":936,"x_min":50,"x_max":967,"o":"m 531 954 l 556 1068 q 664 1088 636 1072 q 699 1138 692 1103 q 607 1196 710 1196 q 560 1191 586 1196 q 515 1179 535 1186 l 532 1261 q 594 1274 557 1269 q 665 1279 631 1279 q 789 1244 751 1279 q 813 1150 826 1210 q 767 1062 801 1093 q 663 1019 733 1031 l 649 954 l 531 954 m 388 -14 q 191 29 269 -14 q 81 151 113 72 q 72 332 50 229 l 192 894 l 343 894 l 225 338 q 239 167 200 221 q 415 114 278 114 q 604 167 535 114 q 699 338 674 219 l 817 894 l 967 894 l 847 332 q 701 75 813 164 q 388 -14 589 -14 z "},"Ư":{"ha":1128,"x_min":38,"x_max":1232,"o":"m 388 -14 q 120 75 203 -14 q 72 332 38 164 l 192 894 l 343 894 l 225 338 q 251 169 201 225 q 415 114 301 114 q 601 169 528 114 q 699 338 675 225 l 817 894 l 967 894 l 947 797 q 1060 833 1024 800 q 1115 956 1097 867 l 1232 956 q 1172 799 1211 857 q 1072 717 1132 742 q 924 690 1011 692 l 847 332 q 692 75 813 164 q 388 -14 571 -14 z "},"Ứ":{"ha":1128,"x_min":38,"x_max":1232,"o":"m 543 956 l 700 1201 l 833 1201 l 664 956 l 543 956 m 388 -14 q 120 75 203 -14 q 72 332 38 164 l 192 894 l 343 894 l 225 338 q 251 169 201 225 q 415 114 301 114 q 601 169 528 114 q 699 338 675 225 l 817 894 l 967 894 l 947 797 q 1060 833 1024 800 q 1115 956 1097 867 l 1232 956 q 1172 799 1211 857 q 1072 717 1132 742 q 924 690 1011 692 l 847 332 q 692 75 813 164 q 388 -14 571 -14 z "},"Ự":{"ha":1128,"x_min":38,"x_max":1232,"o":"m 388 -14 q 120 75 203 -14 q 72 332 38 164 l 192 894 l 343 894 l 225 338 q 251 169 201 225 q 415 114 301 114 q 601 169 528 114 q 699 338 675 225 l 817 894 l 967 894 l 947 797 q 1060 833 1024 800 q 1115 956 1097 867 l 1232 956 q 1172 799 1211 857 q 1072 717 1132 742 q 924 690 1011 692 l 847 332 q 692 75 813 164 q 388 -14 571 -14 m 272 -240 l 297 -118 l 428 -118 l 403 -240 l 272 -240 z "},"Ừ":{"ha":1128,"x_min":38,"x_max":1232,"o":"m 546 956 l 483 1201 l 615 1201 l 668 956 l 546 956 m 388 -14 q 120 75 203 -14 q 72 332 38 164 l 192 894 l 343 894 l 225 338 q 251 169 201 225 q 415 114 301 114 q 601 169 528 114 q 699 338 675 225 l 817 894 l 967 894 l 947 797 q 1060 833 1024 800 q 1115 956 1097 867 l 1232 956 q 1172 799 1211 857 q 1072 717 1132 742 q 924 690 1011 692 l 847 332 q 692 75 813 164 q 388 -14 571 -14 z "},"Ử":{"ha":1128,"x_min":38,"x_max":1232,"o":"m 542 954 l 567 1068 q 675 1088 647 1072 q 710 1138 703 1103 q 618 1196 721 1196 q 572 1191 597 1196 q 526 1179 546 1186 l 543 1261 q 605 1274 568 1269 q 676 1279 642 1279 q 800 1244 763 1279 q 824 1150 838 1210 q 778 1062 813 1093 q 674 1019 744 1031 l 660 954 l 542 954 m 388 -14 q 120 75 203 -14 q 72 332 38 164 l 192 894 l 343 894 l 225 338 q 251 169 201 225 q 415 114 301 114 q 601 169 528 114 q 699 338 675 225 l 817 894 l 967 894 l 947 797 q 1060 833 1024 800 q 1115 956 1097 867 l 1232 956 q 1172 799 1211 857 q 1072 717 1132 742 q 924 690 1011 692 l 847 332 q 692 75 813 164 q 388 -14 571 -14 z "},"Ữ":{"ha":1128,"x_min":38,"x_max":1232,"o":"m 708 974 q 638 988 671 974 q 573 1015 604 1001 q 510 1028 542 1028 q 441 1017 474 1028 q 378 978 408 1006 l 401 1089 q 458 1119 424 1108 q 528 1131 493 1131 q 600 1117 568 1131 q 663 1090 632 1104 q 729 1076 693 1076 q 851 1128 803 1076 l 828 1017 q 778 986 810 999 q 708 974 746 974 m 388 -14 q 120 75 203 -14 q 72 332 38 164 l 192 894 l 343 894 l 225 338 q 251 169 201 225 q 415 114 301 114 q 601 169 528 114 q 699 338 675 225 l 817 894 l 967 894 l 947 797 q 1060 833 1024 800 q 1115 956 1097 867 l 1232 956 q 1172 799 1211 857 q 1072 717 1132 742 q 924 690 1011 692 l 847 332 q 692 75 813 164 q 388 -14 571 -14 z "},"Ű":{"ha":936,"x_min":50,"x_max":967,"o":"m 339 954 l 492 1182 l 628 1182 l 461 954 l 339 954 m 639 954 l 792 1182 l 929 1182 l 761 954 l 639 954 m 388 -14 q 191 29 269 -14 q 81 151 113 72 q 72 332 50 229 l 192 894 l 343 894 l 225 338 q 239 167 200 221 q 415 114 278 114 q 604 167 535 114 q 699 338 674 219 l 817 894 l 967 894 l 847 332 q 701 75 813 164 q 388 -14 589 -14 z "},"Ū":{"ha":936,"x_min":50,"x_max":967,"o":"m 388 1001 l 408 1100 l 821 1100 l 800 1001 l 388 1001 m 388 -14 q 191 29 269 -14 q 81 151 113 72 q 72 332 50 229 l 192 894 l 343 894 l 225 338 q 239 167 200 221 q 415 114 278 114 q 604 167 535 114 q 699 338 674 219 l 817 894 l 967 894 l 847 332 q 701 75 813 164 q 388 -14 589 -14 z "},"Ų":{"ha":936,"x_min":42,"x_max":967,"o":"m 356 -306 q 258 -276 296 -306 q 233 -182 219 -246 q 276 -89 244 -133 q 353 -12 307 -44 q 117 91 192 -3 q 72 332 42 185 l 192 894 l 343 894 l 225 338 q 239 167 200 221 q 415 114 278 114 q 604 167 535 114 q 699 338 674 219 l 817 894 l 967 894 l 847 332 q 725 96 817 182 q 474 -8 633 10 q 397 -78 426 -42 q 360 -156 367 -115 q 367 -199 353 -187 q 413 -211 382 -211 q 450 -207 429 -211 q 485 -196 471 -203 l 465 -287 q 416 -301 446 -296 q 356 -306 386 -306 z "},"Ů":{"ha":936,"x_min":50,"x_max":967,"o":"m 582 954 q 476 1000 510 954 q 454 1111 442 1046 q 519 1224 469 1178 q 649 1269 569 1269 q 759 1224 724 1269 q 779 1111 794 1178 q 713 1000 765 1046 q 582 954 661 954 m 599 1029 q 665 1053 638 1029 q 700 1111 693 1076 q 692 1169 707 1146 q 633 1193 678 1193 q 569 1169 597 1193 q 533 1111 540 1146 q 541 1053 526 1076 q 599 1029 556 1029 m 388 -14 q 191 29 269 -14 q 81 151 113 72 q 72 332 50 229 l 192 894 l 343 894 l 225 338 q 239 167 200 221 q 415 114 278 114 q 604 167 535 114 q 699 338 674 219 l 817 894 l 967 894 l 847 332 q 701 75 813 164 q 388 -14 589 -14 z "},"Ũ":{"ha":936,"x_min":50,"x_max":967,"o":"m 700 976 q 629 990 663 976 q 565 1017 596 1004 q 501 1031 533 1031 q 433 1019 465 1031 q 369 981 400 1008 l 393 1092 q 450 1122 415 1111 q 519 1133 485 1133 q 592 1120 560 1133 q 654 1093 624 1107 q 721 1079 685 1079 q 843 1131 794 1079 l 819 1019 q 769 989 801 1001 q 700 976 738 976 m 388 -14 q 191 29 269 -14 q 81 151 113 72 q 72 332 50 229 l 192 894 l 343 894 l 225 338 q 239 167 200 221 q 415 114 278 114 q 604 167 535 114 q 699 338 674 219 l 817 894 l 967 894 l 847 332 q 701 75 813 164 q 388 -14 589 -14 z "},"V":{"ha":972,"x_min":172,"x_max":1022,"o":"m 325 0 l 172 894 l 326 894 l 439 163 l 863 894 l 1022 894 l 494 0 l 325 0 z "},"W":{"ha":1207,"x_min":172,"x_max":1257,"o":"m 192 0 l 172 894 l 321 894 l 331 224 l 619 786 l 642 894 l 765 894 l 814 224 l 1110 894 l 1257 894 l 861 0 l 715 0 l 668 626 l 346 0 l 192 0 z "},"Ẃ":{"ha":1207,"x_min":172,"x_max":1257,"o":"m 664 956 l 821 1201 l 954 1201 l 785 956 l 664 956 m 192 0 l 172 894 l 321 894 l 331 224 l 619 786 l 642 894 l 765 894 l 814 224 l 1110 894 l 1257 894 l 861 0 l 715 0 l 668 626 l 346 0 l 192 0 z "},"Ŵ":{"ha":1207,"x_min":172,"x_max":1257,"o":"m 508 954 l 728 1178 l 833 1178 l 960 954 l 843 954 l 767 1094 l 635 954 l 508 954 m 192 0 l 172 894 l 321 894 l 331 224 l 619 786 l 642 894 l 765 894 l 814 224 l 1110 894 l 1257 894 l 861 0 l 715 0 l 668 626 l 346 0 l 192 0 z "},"Ẅ":{"ha":1207,"x_min":172,"x_max":1257,"o":"m 550 986 l 576 1106 l 703 1106 l 676 986 l 550 986 m 807 986 l 833 1106 l 961 1106 l 935 986 l 807 986 m 192 0 l 172 894 l 321 894 l 331 224 l 619 786 l 642 894 l 765 894 l 814 224 l 1110 894 l 1257 894 l 861 0 l 715 0 l 668 626 l 346 0 l 192 0 z "},"Ẁ":{"ha":1207,"x_min":172,"x_max":1257,"o":"m 647 956 l 585 1201 l 717 1201 l 769 956 l 647 956 m 192 0 l 172 894 l 321 894 l 331 224 l 619 786 l 642 894 l 765 894 l 814 224 l 1110 894 l 1257 894 l 861 0 l 715 0 l 668 626 l 346 0 l 192 0 z "},"X":{"ha":940,"x_min":-19,"x_max":983,"o":"m -19 0 l 394 446 l 176 894 l 351 894 l 510 563 l 807 894 l 983 894 l 575 446 l 800 0 l 622 0 l 460 328 l 158 0 l -19 0 z "},"Y":{"ha":911,"x_min":171,"x_max":963,"o":"m 303 0 l 372 332 l 171 894 l 322 894 l 469 460 l 800 894 l 963 894 l 522 332 l 453 0 l 303 0 z "},"Ý":{"ha":911,"x_min":171,"x_max":963,"o":"m 506 956 l 663 1201 l 796 1201 l 626 956 l 506 956 m 303 0 l 372 332 l 171 894 l 322 894 l 469 460 l 800 894 l 963 894 l 522 332 l 453 0 l 303 0 z "},"Ŷ":{"ha":911,"x_min":171,"x_max":963,"o":"m 354 954 l 574 1178 l 679 1178 l 806 954 l 689 954 l 613 1094 l 481 954 l 354 954 m 303 0 l 372 332 l 171 894 l 322 894 l 469 460 l 800 894 l 963 894 l 522 332 l 453 0 l 303 0 z "},"Ÿ":{"ha":911,"x_min":171,"x_max":963,"o":"m 394 989 l 421 1108 l 547 1108 l 521 989 l 394 989 m 651 989 l 678 1108 l 806 1108 l 779 989 l 651 989 m 303 0 l 372 332 l 171 894 l 322 894 l 469 460 l 800 894 l 963 894 l 522 332 l 453 0 l 303 0 z "},"Ẏ":{"ha":911,"x_min":171,"x_max":963,"o":"m 522 988 l 549 1110 l 676 1110 l 650 988 l 522 988 m 303 0 l 372 332 l 171 894 l 322 894 l 469 460 l 800 894 l 963 894 l 522 332 l 453 0 l 303 0 z "},"Ỵ":{"ha":911,"x_min":171,"x_max":963,"o":"m 303 0 l 372 332 l 171 894 l 322 894 l 469 460 l 800 894 l 963 894 l 522 332 l 453 0 l 303 0 m 265 -224 l 290 -101 l 421 -101 l 396 -224 l 265 -224 z "},"Ỳ":{"ha":911,"x_min":171,"x_max":963,"o":"m 535 956 l 472 1201 l 604 1201 l 657 956 l 535 956 m 303 0 l 372 332 l 171 894 l 322 894 l 469 460 l 800 894 l 963 894 l 522 332 l 453 0 l 303 0 z "},"Ỷ":{"ha":911,"x_min":171,"x_max":963,"o":"m 511 954 l 536 1068 q 644 1088 617 1072 q 679 1138 672 1103 q 588 1196 690 1196 q 541 1191 567 1196 q 496 1179 515 1186 l 513 1261 q 574 1274 538 1269 q 646 1279 611 1279 q 769 1244 732 1279 q 793 1150 807 1210 q 748 1062 782 1093 q 643 1019 714 1031 l 629 954 l 511 954 m 303 0 l 372 332 l 171 894 l 322 894 l 469 460 l 800 894 l 963 894 l 522 332 l 453 0 l 303 0 z "},"Ỹ":{"ha":911,"x_min":171,"x_max":963,"o":"m 696 976 q 625 990 658 976 q 560 1017 592 1004 q 497 1031 529 1031 q 428 1019 461 1031 q 365 981 396 1008 l 389 1092 q 446 1122 411 1111 q 515 1133 481 1133 q 588 1120 556 1133 q 650 1093 619 1107 q 717 1079 681 1079 q 839 1131 790 1079 l 815 1019 q 765 989 797 1001 q 696 976 733 976 m 303 0 l 372 332 l 171 894 l 322 894 l 469 460 l 800 894 l 963 894 l 522 332 l 453 0 l 303 0 z "},"Z":{"ha":799,"x_min":-19,"x_max":844,"o":"m -19 0 l -3 81 l 624 771 l 167 771 l 193 894 l 844 894 l 825 801 l 203 117 l 686 117 l 663 0 l -19 0 z "},"Ź":{"ha":799,"x_min":-19,"x_max":844,"o":"m 471 956 l 628 1201 l 761 1201 l 592 956 l 471 956 m -19 0 l -3 81 l 624 771 l 167 771 l 193 894 l 844 894 l 825 801 l 203 117 l 686 117 l 663 0 l -19 0 z "},"Ž":{"ha":799,"x_min":-19,"x_max":844,"o":"m 496 954 l 371 1178 l 489 1178 l 563 1038 l 697 1178 l 822 1178 l 601 954 l 496 954 m -19 0 l -3 81 l 624 771 l 167 771 l 193 894 l 844 894 l 825 801 l 203 117 l 686 117 l 663 0 l -19 0 z "},"Ż":{"ha":799,"x_min":-19,"x_max":844,"o":"m 481 988 l 507 1110 l 635 1110 l 608 988 l 481 988 m -19 0 l -3 81 l 624 771 l 167 771 l 193 894 l 844 894 l 825 801 l 203 117 l 686 117 l 663 0 l -19 0 z "},"Ẓ":{"ha":799,"x_min":-19,"x_max":844,"o":"m -19 0 l -3 81 l 624 771 l 167 771 l 193 894 l 844 894 l 825 801 l 203 117 l 686 117 l 663 0 l -19 0 m 226 -240 l 251 -118 l 382 -118 l 357 -240 l 226 -240 z "},"a":{"ha":814,"x_min":22,"x_max":781,"o":"m 276 -14 q 127 17 188 -14 q 44 119 67 49 q 44 303 22 189 q 127 501 68 418 q 267 628 186 583 q 440 672 349 672 q 542 658 500 672 q 619 613 583 644 l 629 658 l 781 658 l 642 0 l 513 0 l 515 65 q 406 6 463 25 q 276 -14 349 -14 m 342 100 q 525 169 443 100 l 594 496 q 538 541 569 525 q 457 557 507 557 q 290 491 357 557 q 197 301 224 425 q 188 180 181 224 q 233 118 196 136 q 342 100 269 100 z "},"á":{"ha":810,"x_min":18,"x_max":776,"o":"m 399 725 l 556 971 l 689 971 l 519 725 l 399 725 m 272 -14 q 123 17 183 -14 q 40 119 63 49 q 40 303 18 189 q 123 501 64 418 q 263 628 182 583 q 436 672 344 672 q 538 658 496 672 q 615 613 579 644 l 625 658 l 776 658 l 638 0 l 508 0 l 511 65 q 401 6 458 25 q 272 -14 344 -14 m 338 100 q 521 169 439 100 l 590 496 q 534 541 565 525 q 453 557 503 557 q 286 491 353 557 q 193 301 219 425 q 184 180 176 224 q 228 118 192 136 q 338 100 265 100 z "},"ă":{"ha":810,"x_min":18,"x_max":776,"o":"m 474 725 q 342 778 382 725 q 321 921 303 832 l 418 921 q 422 844 408 874 q 489 815 436 815 q 567 844 536 815 q 608 921 599 874 l 715 921 q 632 778 697 832 q 474 725 567 725 m 272 -14 q 123 17 183 -14 q 40 119 63 49 q 40 303 18 189 q 123 501 64 418 q 263 628 182 583 q 436 672 344 672 q 538 658 496 672 q 615 613 579 644 l 625 658 l 776 658 l 638 0 l 508 0 l 511 65 q 401 6 458 25 q 272 -14 344 -14 m 338 100 q 521 169 439 100 l 590 496 q 534 541 565 525 q 453 557 503 557 q 286 491 353 557 q 193 301 219 425 q 184 180 176 224 q 228 118 192 136 q 338 100 265 100 z "},"ắ":{"ha":810,"x_min":18,"x_max":776,"o":"m 449 888 l 576 1072 l 693 1072 l 556 888 l 449 888 m 479 725 q 374 745 419 725 q 310 811 329 765 q 306 931 290 857 l 394 931 q 404 838 382 869 q 494 807 426 807 q 592 838 551 807 q 644 931 632 869 l 739 931 q 647 772 717 819 q 479 725 578 725 m 272 -14 q 123 17 183 -14 q 40 119 63 49 q 40 303 18 189 q 123 501 64 418 q 263 628 182 583 q 436 672 344 672 q 538 658 496 672 q 615 613 579 644 l 625 658 l 776 658 l 638 0 l 508 0 l 511 65 q 401 6 458 25 q 272 -14 344 -14 m 338 100 q 521 169 439 100 l 590 496 q 534 541 565 525 q 453 557 503 557 q 286 491 353 557 q 193 301 219 425 q 184 180 176 224 q 228 118 192 136 q 338 100 265 100 z "},"ặ":{"ha":810,"x_min":18,"x_max":776,"o":"m 471 725 q 340 778 379 725 q 318 921 300 832 l 415 921 q 419 844 406 874 q 486 815 433 815 q 565 844 533 815 q 606 921 596 874 l 713 921 q 629 778 694 832 q 471 725 564 725 m 272 -14 q 123 17 183 -14 q 40 119 63 49 q 40 303 18 189 q 123 501 64 418 q 263 628 182 583 q 436 672 344 672 q 538 658 496 672 q 615 613 579 644 l 625 658 l 776 658 l 638 0 l 508 0 l 511 65 q 401 6 458 25 q 272 -14 344 -14 m 338 100 q 521 169 439 100 l 590 496 q 534 541 565 525 q 453 557 503 557 q 286 491 353 557 q 193 301 219 425 q 184 180 176 224 q 228 118 192 136 q 338 100 265 100 m 204 -240 l 229 -118 l 360 -118 l 335 -240 l 204 -240 z "},"ằ":{"ha":810,"x_min":18,"x_max":776,"o":"m 467 888 l 407 1072 l 524 1072 l 574 888 l 467 888 m 474 725 q 369 745 414 725 q 304 811 324 765 q 300 931 285 857 l 389 931 q 399 838 376 869 q 489 807 421 807 q 586 838 546 807 q 639 931 626 869 l 733 931 q 642 772 711 819 q 474 725 572 725 m 272 -14 q 123 17 183 -14 q 40 119 63 49 q 40 303 18 189 q 123 501 64 418 q 263 628 182 583 q 436 672 344 672 q 538 658 496 672 q 615 613 579 644 l 625 658 l 776 658 l 638 0 l 508 0 l 511 65 q 401 6 458 25 q 272 -14 344 -14 m 338 100 q 521 169 439 100 l 590 496 q 534 541 565 525 q 453 557 503 557 q 286 491 353 557 q 193 301 219 425 q 184 180 176 224 q 228 118 192 136 q 338 100 265 100 z "},"ẳ":{"ha":810,"x_min":18,"x_max":776,"o":"m 451 894 l 468 976 q 563 994 536 979 q 594 1036 589 1010 q 584 1073 600 1064 q 532 1082 568 1082 q 490 1077 510 1082 q 451 1065 471 1072 l 467 1136 q 519 1148 489 1143 q 582 1153 550 1153 q 678 1124 647 1153 q 697 1046 708 1094 q 658 976 688 1000 q 567 940 628 951 l 557 894 l 451 894 m 476 725 q 372 745 417 725 q 307 811 326 765 q 303 931 288 857 l 392 931 q 401 838 379 869 q 492 807 424 807 q 589 838 549 807 q 642 931 629 869 l 736 931 q 644 772 714 819 q 476 725 575 725 m 272 -14 q 123 17 183 -14 q 40 119 63 49 q 40 303 18 189 q 123 501 64 418 q 263 628 182 583 q 436 672 344 672 q 538 658 496 672 q 615 613 579 644 l 625 658 l 776 658 l 638 0 l 508 0 l 511 65 q 401 6 458 25 q 272 -14 344 -14 m 338 100 q 521 169 439 100 l 590 496 q 534 541 565 525 q 453 557 503 557 q 286 491 353 557 q 193 301 219 425 q 184 180 176 224 q 228 118 192 136 q 338 100 265 100 z "},"ẵ":{"ha":810,"x_min":18,"x_max":776,"o":"m 642 960 q 573 973 606 960 q 510 999 540 986 q 449 1011 481 1011 q 383 1000 414 1011 q 324 964 351 989 l 344 1063 q 399 1092 365 1081 q 467 1103 433 1103 q 536 1090 506 1103 q 596 1063 567 1076 q 660 1050 625 1050 q 775 1100 732 1050 l 756 1000 q 708 971 738 982 q 642 960 678 960 m 483 725 q 378 745 424 725 q 314 811 333 765 q 310 931 294 857 l 399 931 q 408 838 386 869 q 499 807 431 807 q 596 838 556 807 q 649 931 636 869 l 743 931 q 651 772 721 819 q 483 725 582 725 m 272 -14 q 123 17 183 -14 q 40 119 63 49 q 40 303 18 189 q 123 501 64 418 q 263 628 182 583 q 436 672 344 672 q 538 658 496 672 q 615 613 579 644 l 625 658 l 776 658 l 638 0 l 508 0 l 511 65 q 401 6 458 25 q 272 -14 344 -14 m 338 100 q 521 169 439 100 l 590 496 q 534 541 565 525 q 453 557 503 557 q 286 491 353 557 q 193 301 219 425 q 184 180 176 224 q 228 118 192 136 q 338 100 265 100 z "},"ǎ":{"ha":810,"x_min":18,"x_max":776,"o":"m 410 724 l 285 947 l 403 947 l 476 807 l 611 947 l 736 947 l 515 724 l 410 724 m 272 -14 q 123 17 183 -14 q 40 119 63 49 q 40 303 18 189 q 123 501 64 418 q 263 628 182 583 q 436 672 344 672 q 538 658 496 672 q 615 613 579 644 l 625 658 l 776 658 l 638 0 l 508 0 l 511 65 q 401 6 458 25 q 272 -14 344 -14 m 338 100 q 521 169 439 100 l 590 496 q 534 541 565 525 q 453 557 503 557 q 286 491 353 557 q 193 301 219 425 q 184 180 176 224 q 228 118 192 136 q 338 100 265 100 z "},"â":{"ha":810,"x_min":18,"x_max":776,"o":"m 240 724 l 460 947 l 565 947 l 692 724 l 575 724 l 499 864 l 367 724 l 240 724 m 272 -14 q 123 17 183 -14 q 40 119 63 49 q 40 303 18 189 q 123 501 64 418 q 263 628 182 583 q 436 672 344 672 q 538 658 496 672 q 615 613 579 644 l 625 658 l 776 658 l 638 0 l 508 0 l 511 65 q 401 6 458 25 q 272 -14 344 -14 m 338 100 q 521 169 439 100 l 590 496 q 534 541 565 525 q 453 557 503 557 q 286 491 353 557 q 193 301 219 425 q 184 180 176 224 q 228 118 192 136 q 338 100 265 100 z "},"ấ":{"ha":810,"x_min":18,"x_max":871,"o":"m 628 881 l 756 1065 l 871 1065 l 735 881 l 628 881 m 244 724 l 447 900 l 564 900 l 692 724 l 572 724 l 497 838 l 375 724 l 244 724 m 272 -14 q 123 17 183 -14 q 40 119 63 49 q 40 303 18 189 q 123 501 64 418 q 263 628 182 583 q 436 672 344 672 q 538 658 496 672 q 615 613 579 644 l 625 658 l 776 658 l 638 0 l 508 0 l 511 65 q 401 6 458 25 q 272 -14 344 -14 m 338 100 q 521 169 439 100 l 590 496 q 534 541 565 525 q 453 557 503 557 q 286 491 353 557 q 193 301 219 425 q 184 180 176 224 q 228 118 192 136 q 338 100 265 100 z "},"ậ":{"ha":810,"x_min":18,"x_max":776,"o":"m 238 724 l 457 947 l 563 947 l 689 724 l 572 724 l 496 864 l 364 724 l 238 724 m 272 -14 q 123 17 183 -14 q 40 119 63 49 q 40 303 18 189 q 123 501 64 418 q 263 628 182 583 q 436 672 344 672 q 538 658 496 672 q 615 613 579 644 l 625 658 l 776 658 l 638 0 l 508 0 l 511 65 q 401 6 458 25 q 272 -14 344 -14 m 338 100 q 521 169 439 100 l 590 496 q 534 541 565 525 q 453 557 503 557 q 286 491 353 557 q 193 301 219 425 q 184 180 176 224 q 228 118 192 136 q 338 100 265 100 m 194 -240 l 219 -118 l 350 -118 l 325 -240 l 194 -240 z "},"ầ":{"ha":810,"x_min":18,"x_max":776,"o":"m 254 881 l 196 1065 l 313 1065 l 361 881 l 254 881 m 231 724 l 432 900 l 550 900 l 675 724 l 556 724 l 482 838 l 358 724 l 231 724 m 272 -14 q 123 17 183 -14 q 40 119 63 49 q 40 303 18 189 q 123 501 64 418 q 263 628 182 583 q 436 672 344 672 q 538 658 496 672 q 615 613 579 644 l 625 658 l 776 658 l 638 0 l 508 0 l 511 65 q 401 6 458 25 q 272 -14 344 -14 m 338 100 q 521 169 439 100 l 590 496 q 534 541 565 525 q 453 557 503 557 q 286 491 353 557 q 193 301 219 425 q 184 180 176 224 q 228 118 192 136 q 338 100 265 100 z "},"ẩ":{"ha":810,"x_min":18,"x_max":881,"o":"m 624 850 l 643 942 q 732 958 710 944 q 760 996 754 971 q 704 1039 769 1039 q 663 1034 682 1039 q 624 1022 643 1029 l 640 1096 q 688 1108 663 1103 q 749 1113 714 1113 q 849 1083 817 1113 q 869 1004 881 1053 q 828 932 860 958 q 739 897 797 906 l 729 850 l 624 850 m 235 722 l 436 899 l 554 899 l 681 722 l 561 722 l 488 836 l 364 722 l 235 722 m 272 -14 q 123 17 183 -14 q 40 119 63 49 q 40 303 18 189 q 123 501 64 418 q 263 628 182 583 q 436 672 344 672 q 538 658 496 672 q 615 613 579 644 l 625 658 l 776 658 l 638 0 l 508 0 l 511 65 q 401 6 458 25 q 272 -14 344 -14 m 338 100 q 521 169 439 100 l 590 496 q 534 541 565 525 q 453 557 503 557 q 286 491 353 557 q 193 301 219 425 q 184 180 176 224 q 228 118 192 136 q 338 100 265 100 z "},"ẫ":{"ha":810,"x_min":18,"x_max":776,"o":"m 619 911 q 551 924 583 911 q 488 951 518 938 q 426 964 458 964 q 360 953 392 964 q 301 915 329 942 l 322 1014 q 377 1043 343 1032 q 444 1054 411 1054 q 514 1042 483 1054 q 574 1016 544 1029 q 638 1003 603 1003 q 754 1051 708 1003 l 732 953 q 685 923 715 935 q 619 911 656 911 m 242 724 l 443 900 l 561 900 l 688 724 l 568 724 l 494 838 l 371 724 l 242 724 m 272 -14 q 123 17 183 -14 q 40 119 63 49 q 40 303 18 189 q 123 501 64 418 q 263 628 182 583 q 436 672 344 672 q 538 658 496 672 q 615 613 579 644 l 625 658 l 776 658 l 638 0 l 508 0 l 511 65 q 401 6 458 25 q 272 -14 344 -14 m 338 100 q 521 169 439 100 l 590 496 q 534 541 565 525 q 453 557 503 557 q 286 491 353 557 q 193 301 219 425 q 184 180 176 224 q 228 118 192 136 q 338 100 265 100 z "},"ä":{"ha":810,"x_min":18,"x_max":776,"o":"m 289 758 l 315 878 l 442 878 l 415 758 l 289 758 m 546 758 l 572 878 l 700 878 l 674 758 l 546 758 m 272 -14 q 123 17 183 -14 q 40 119 63 49 q 40 303 18 189 q 123 501 64 418 q 263 628 182 583 q 436 672 344 672 q 538 658 496 672 q 615 613 579 644 l 625 658 l 776 658 l 638 0 l 508 0 l 511 65 q 401 6 458 25 q 272 -14 344 -14 m 338 100 q 521 169 439 100 l 590 496 q 534 541 565 525 q 453 557 503 557 q 286 491 353 557 q 193 301 219 425 q 184 180 176 224 q 228 118 192 136 q 338 100 265 100 z "},"ạ":{"ha":810,"x_min":18,"x_max":776,"o":"m 272 -14 q 123 17 183 -14 q 40 119 63 49 q 40 303 18 189 q 123 501 64 418 q 263 628 182 583 q 436 672 344 672 q 538 658 496 672 q 615 613 579 644 l 625 658 l 776 658 l 638 0 l 508 0 l 511 65 q 401 6 458 25 q 272 -14 344 -14 m 338 100 q 521 169 439 100 l 590 496 q 534 541 565 525 q 453 557 503 557 q 286 491 353 557 q 193 301 219 425 q 184 180 176 224 q 228 118 192 136 q 338 100 265 100 m 201 -240 l 226 -118 l 357 -118 l 332 -240 l 201 -240 z "},"à":{"ha":810,"x_min":18,"x_max":776,"o":"m 419 725 l 357 971 l 489 971 l 542 725 l 419 725 m 272 -14 q 123 17 183 -14 q 40 119 63 49 q 40 303 18 189 q 123 501 64 418 q 263 628 182 583 q 436 672 344 672 q 538 658 496 672 q 615 613 579 644 l 625 658 l 776 658 l 638 0 l 508 0 l 511 65 q 401 6 458 25 q 272 -14 344 -14 m 338 100 q 521 169 439 100 l 590 496 q 534 541 565 525 q 453 557 503 557 q 286 491 353 557 q 193 301 219 425 q 184 180 176 224 q 228 118 192 136 q 338 100 265 100 z "},"ả":{"ha":810,"x_min":18,"x_max":776,"o":"m 394 724 l 419 838 q 528 857 500 842 q 563 907 556 872 q 471 965 574 965 q 424 960 450 965 q 379 949 399 956 l 396 1031 q 458 1044 421 1039 q 529 1049 494 1049 q 653 1014 615 1049 q 676 919 690 979 q 631 831 665 863 q 526 789 597 800 l 513 724 l 394 724 m 272 -14 q 123 17 183 -14 q 40 119 63 49 q 40 303 18 189 q 123 501 64 418 q 263 628 182 583 q 436 672 344 672 q 538 658 496 672 q 615 613 579 644 l 625 658 l 776 658 l 638 0 l 508 0 l 511 65 q 401 6 458 25 q 272 -14 344 -14 m 338 100 q 521 169 439 100 l 590 496 q 534 541 565 525 q 453 557 503 557 q 286 491 353 557 q 193 301 219 425 q 184 180 176 224 q 228 118 192 136 q 338 100 265 100 z "},"ɑ":{"ha":810,"x_min":18,"x_max":776,"o":"m 272 -14 q 123 17 183 -14 q 40 119 63 49 q 40 303 18 189 q 123 501 64 418 q 263 628 182 583 q 436 672 344 672 q 538 658 496 672 q 615 613 579 644 l 625 658 l 776 658 l 638 0 l 508 0 l 511 65 q 401 6 458 25 q 272 -14 344 -14 m 338 100 q 521 169 439 100 l 590 496 q 534 541 565 525 q 453 557 503 557 q 286 491 353 557 q 193 301 219 425 q 184 180 176 224 q 228 118 192 136 q 338 100 265 100 z "},"ā":{"ha":810,"x_min":18,"x_max":776,"o":"m 268 754 l 289 853 l 701 853 l 681 754 l 268 754 m 272 -14 q 123 17 183 -14 q 40 119 63 49 q 40 303 18 189 q 123 501 64 418 q 263 628 182 583 q 436 672 344 672 q 538 658 496 672 q 615 613 579 644 l 625 658 l 776 658 l 638 0 l 508 0 l 511 65 q 401 6 458 25 q 272 -14 344 -14 m 338 100 q 521 169 439 100 l 590 496 q 534 541 565 525 q 453 557 503 557 q 286 491 353 557 q 193 301 219 425 q 184 180 176 224 q 228 118 192 136 q 338 100 265 100 z "},"ą":{"ha":810,"x_min":18,"x_max":776,"o":"m 506 -306 q 408 -276 446 -306 q 383 -182 369 -246 q 431 -81 394 -129 q 508 0 467 -32 l 511 65 q 401 6 458 25 q 272 -14 344 -14 q 123 17 183 -14 q 40 119 63 49 q 40 303 18 189 q 123 501 64 418 q 263 628 182 583 q 436 672 344 672 q 538 658 496 672 q 615 613 579 644 l 625 658 l 776 658 l 638 0 q 552 -74 586 -35 q 510 -156 518 -114 q 517 -199 503 -187 q 563 -211 532 -211 q 600 -207 579 -211 q 635 -196 621 -203 l 615 -287 q 566 -301 596 -296 q 506 -306 536 -306 m 338 100 q 521 169 439 100 l 590 496 q 534 541 565 525 q 453 557 503 557 q 286 491 353 557 q 193 301 219 425 q 184 180 176 224 q 228 118 192 136 q 338 100 265 100 z "},"å":{"ha":810,"x_min":18,"x_max":776,"o":"m 474 724 q 367 769 401 724 q 346 881 333 815 q 411 993 361 947 q 540 1039 461 1039 q 651 993 615 1039 q 671 881 686 947 q 605 769 657 815 q 474 724 553 724 m 490 799 q 557 822 529 799 q 592 881 585 846 q 584 939 599 915 q 525 963 569 963 q 460 939 489 963 q 425 881 432 915 q 433 822 418 846 q 490 799 447 799 m 272 -14 q 123 17 183 -14 q 40 119 63 49 q 40 303 18 189 q 123 501 64 418 q 263 628 182 583 q 436 672 344 672 q 538 658 496 672 q 615 613 579 644 l 625 658 l 776 658 l 638 0 l 508 0 l 511 65 q 401 6 458 25 q 272 -14 344 -14 m 338 100 q 521 169 439 100 l 590 496 q 534 541 565 525 q 453 557 503 557 q 286 491 353 557 q 193 301 219 425 q 184 180 176 224 q 228 118 192 136 q 338 100 265 100 z "},"ǻ":{"ha":810,"x_min":18,"x_max":794,"o":"m 504 1089 l 661 1285 l 794 1285 l 625 1089 l 504 1089 m 460 718 q 353 764 388 718 q 332 875 319 810 q 397 988 347 942 q 526 1033 447 1033 q 637 988 601 1033 q 657 875 672 942 q 591 764 643 810 q 460 718 539 718 m 476 793 q 543 817 515 793 q 578 875 571 840 q 570 933 585 910 q 511 957 556 957 q 447 933 475 957 q 411 875 418 910 q 419 817 404 840 q 476 793 433 793 m 272 -14 q 123 17 183 -14 q 40 119 63 49 q 40 303 18 189 q 123 501 64 418 q 263 628 182 583 q 436 672 344 672 q 538 658 496 672 q 615 613 579 644 l 625 658 l 776 658 l 638 0 l 508 0 l 511 65 q 401 6 458 25 q 272 -14 344 -14 m 338 100 q 521 169 439 100 l 590 496 q 534 541 565 525 q 453 557 503 557 q 286 491 353 557 q 193 301 219 425 q 184 180 176 224 q 228 118 192 136 q 338 100 265 100 z "},"ã":{"ha":810,"x_min":18,"x_max":776,"o":"m 586 746 q 515 760 549 746 q 451 787 482 774 q 388 800 419 800 q 319 789 351 800 q 256 750 286 778 l 279 861 q 336 892 301 881 q 406 903 371 903 q 478 890 446 903 q 540 863 510 876 q 607 849 571 849 q 729 900 681 849 l 706 789 q 656 758 688 771 q 586 746 624 746 m 272 -14 q 123 17 183 -14 q 40 119 63 49 q 40 303 18 189 q 123 501 64 418 q 263 628 182 583 q 436 672 344 672 q 538 658 496 672 q 615 613 579 644 l 625 658 l 776 658 l 638 0 l 508 0 l 511 65 q 401 6 458 25 q 272 -14 344 -14 m 338 100 q 521 169 439 100 l 590 496 q 534 541 565 525 q 453 557 503 557 q 286 491 353 557 q 193 301 219 425 q 184 180 176 224 q 228 118 192 136 q 338 100 265 100 z "},"æ":{"ha":1224,"x_min":1,"x_max":1190,"o":"m 214 -14 q 99 8 149 -14 q 25 76 49 31 q 15 188 1 121 q 112 340 35 282 q 324 397 189 397 l 535 397 l 542 426 q 543 501 551 474 q 499 542 535 529 q 389 554 463 554 q 164 519 272 554 l 188 632 q 302 661 236 650 q 442 672 368 672 q 658 585 607 672 q 775 649 707 625 q 921 672 843 672 q 1131 594 1071 672 q 1163 392 1190 515 l 1138 269 l 656 269 q 697 137 646 174 q 867 100 747 100 q 971 109 917 100 q 1068 135 1025 118 l 1044 25 q 936 -4 996 6 q 811 -14 876 -14 q 654 15 721 -14 q 557 101 588 43 q 419 19 497 53 q 214 -14 342 -14 m 676 368 l 1025 368 l 1035 414 q 1020 520 1050 482 q 901 558 990 558 q 747 513 796 558 q 676 368 697 467 m 269 94 q 394 116 342 94 q 488 176 446 138 l 514 294 l 306 294 q 203 269 239 294 q 157 190 168 243 q 176 117 146 139 q 269 94 206 94 z "},"ǽ":{"ha":1224,"x_min":1,"x_max":1190,"o":"m 615 725 l 772 971 l 906 971 l 736 725 l 615 725 m 214 -14 q 99 8 149 -14 q 25 76 49 31 q 15 188 1 121 q 112 340 35 282 q 324 397 189 397 l 535 397 l 542 426 q 543 501 551 474 q 499 542 535 529 q 389 554 463 554 q 164 519 272 554 l 188 632 q 302 661 236 650 q 442 672 368 672 q 658 585 607 672 q 775 649 707 625 q 921 672 843 672 q 1131 594 1071 672 q 1163 392 1190 515 l 1138 269 l 656 269 q 697 137 646 174 q 867 100 747 100 q 971 109 917 100 q 1068 135 1025 118 l 1044 25 q 936 -4 996 6 q 811 -14 876 -14 q 654 15 721 -14 q 557 101 588 43 q 419 19 497 53 q 214 -14 342 -14 m 676 368 l 1025 368 l 1035 414 q 1020 520 1050 482 q 901 558 990 558 q 747 513 796 558 q 676 368 697 467 m 269 94 q 394 116 342 94 q 488 176 446 138 l 514 294 l 306 294 q 203 269 239 294 q 157 190 168 243 q 176 117 146 139 q 269 94 206 94 z "},"b":{"ha":808,"x_min":8,"x_max":765,"o":"m 365 -14 q 244 6 293 -14 q 160 65 196 25 l 139 0 l 8 0 l 207 936 l 358 936 l 290 615 q 508 672 388 672 q 658 637 597 672 q 742 527 719 601 q 740 335 765 453 q 606 71 701 156 q 365 -14 511 -14 m 350 100 q 510 158 457 100 q 588 335 563 217 q 582 507 614 457 q 444 557 550 557 q 265 500 342 557 l 194 169 q 260 117 219 135 q 350 100 300 100 z "},"c":{"ha":658,"x_min":15,"x_max":678,"o":"m 328 -14 q 92 74 168 -14 q 50 329 15 163 q 197 588 86 503 q 482 672 307 672 q 594 663 550 672 q 678 632 639 653 l 654 519 q 488 556 590 556 q 301 505 374 556 q 203 329 229 454 q 215 156 178 211 q 388 101 253 101 q 575 139 486 101 l 550 24 q 446 -4 500 6 q 328 -14 392 -14 z "},"ć":{"ha":658,"x_min":15,"x_max":681,"o":"m 390 725 l 547 971 l 681 971 l 511 725 l 390 725 m 328 -14 q 92 74 168 -14 q 50 329 15 163 q 197 588 86 503 q 482 672 307 672 q 594 663 550 672 q 678 632 639 653 l 654 519 q 488 556 590 556 q 301 505 374 556 q 203 329 229 454 q 215 156 178 211 q 388 101 253 101 q 575 139 486 101 l 550 24 q 446 -4 500 6 q 328 -14 392 -14 z "},"č":{"ha":658,"x_min":15,"x_max":731,"o":"m 404 724 l 279 947 l 397 947 l 471 807 l 606 947 l 731 947 l 510 724 l 404 724 m 328 -14 q 92 74 168 -14 q 50 329 15 163 q 197 588 86 503 q 482 672 307 672 q 594 663 550 672 q 678 632 639 653 l 654 519 q 488 556 590 556 q 301 505 374 556 q 203 329 229 454 q 215 156 178 211 q 388 101 253 101 q 575 139 486 101 l 550 24 q 446 -4 500 6 q 328 -14 392 -14 z "},"ç":{"ha":658,"x_min":19,"x_max":678,"o":"m 219 -333 q 167 -330 197 -333 q 121 -322 136 -326 l 139 -240 q 222 -251 176 -251 q 315 -240 285 -251 q 353 -189 344 -228 q 333 -141 360 -150 q 253 -132 307 -132 l 197 -132 l 260 -10 q 76 95 133 8 q 50 329 19 182 q 197 588 86 503 q 482 672 307 672 q 594 663 550 672 q 678 632 639 653 l 654 519 q 488 556 590 556 q 301 505 374 556 q 203 329 229 454 q 215 156 178 211 q 388 101 253 101 q 575 139 486 101 l 550 24 q 360 -12 467 -8 l 332 -65 q 436 -99 406 -65 q 454 -190 467 -132 q 383 -296 440 -258 q 219 -333 325 -333 z "},"ĉ":{"ha":658,"x_min":15,"x_max":681,"o":"m 229 724 l 449 947 l 554 947 l 681 724 l 564 724 l 488 864 l 356 724 l 229 724 m 328 -14 q 92 74 168 -14 q 50 329 15 163 q 197 588 86 503 q 482 672 307 672 q 594 663 550 672 q 678 632 639 653 l 654 519 q 488 556 590 556 q 301 505 374 556 q 203 329 229 454 q 215 156 178 211 q 388 101 253 101 q 575 139 486 101 l 550 24 q 446 -4 500 6 q 328 -14 392 -14 z "},"ċ":{"ha":658,"x_min":15,"x_max":678,"o":"m 407 757 l 433 879 l 561 879 l 535 757 l 407 757 m 328 -14 q 92 74 168 -14 q 50 329 15 163 q 197 588 86 503 q 482 672 307 672 q 594 663 550 672 q 678 632 639 653 l 654 519 q 488 556 590 556 q 301 505 374 556 q 203 329 229 454 q 215 156 178 211 q 388 101 253 101 q 575 139 486 101 l 550 24 q 446 -4 500 6 q 328 -14 392 -14 z "},"d":{"ha":810,"x_min":25,"x_max":842,"o":"m 278 -14 q 133 22 193 -14 q 49 132 72 57 q 50 326 25 207 q 188 588 89 504 q 431 672 288 672 q 622 615 551 672 l 690 936 l 842 936 l 643 0 l 514 0 l 517 65 q 407 6 464 25 q 278 -14 350 -14 m 343 100 q 526 169 444 100 l 597 499 q 446 557 546 557 q 293 502 357 557 q 203 325 229 447 q 208 153 178 207 q 343 100 238 100 z "},"ð":{"ha":797,"x_min":11,"x_max":876,"o":"m 315 -14 q 76 64 142 -14 q 39 274 11 142 q 166 487 69 414 q 410 560 263 560 q 520 542 463 560 q 618 489 578 525 l 631 546 q 646 640 642 599 q 643 713 650 682 l 443 633 l 460 711 l 610 771 q 474 806 571 806 q 364 796 414 806 q 267 771 314 786 l 289 875 q 395 899 338 890 q 517 908 453 908 q 651 885 596 908 q 738 822 706 863 l 876 878 l 860 799 l 769 763 q 771 531 800 669 l 728 332 q 653 136 703 213 q 522 23 604 60 q 315 -14 440 -14 m 338 92 q 495 140 436 92 q 576 292 554 189 l 597 392 q 515 440 563 421 q 417 460 468 460 q 250 410 306 460 q 175 274 194 360 q 192 140 157 189 q 338 92 228 92 z "},"ď":{"ha":969,"x_min":39,"x_max":1089,"o":"m 279 -14 q 104 40 169 -14 q 39 213 39 94 q 90 449 39 344 q 231 613 142 553 q 432 672 319 672 q 624 615 553 672 l 692 936 l 843 936 l 644 0 l 515 0 l 519 65 q 408 6 465 25 q 279 -14 351 -14 m 868 674 l 964 936 l 1089 936 l 969 674 l 868 674 m 344 100 q 529 169 446 100 l 599 499 q 447 557 547 557 q 315 517 372 557 q 226 404 258 476 q 194 236 194 332 q 232 133 194 165 q 344 100 269 100 z "},"đ":{"ha":810,"x_min":25,"x_max":892,"o":"m 278 -14 q 133 22 193 -14 q 49 132 72 57 q 50 326 25 207 q 188 588 89 504 q 431 672 288 672 q 622 615 551 672 l 649 743 l 424 743 l 447 851 l 672 851 l 690 936 l 842 936 l 824 851 l 892 851 l 868 743 l 800 743 l 643 0 l 514 0 l 517 65 q 407 6 464 25 q 278 -14 350 -14 m 343 100 q 526 169 444 100 l 597 499 q 446 557 546 557 q 293 502 357 557 q 203 325 229 447 q 208 153 178 207 q 343 100 238 100 z "},"ḍ":{"ha":810,"x_min":25,"x_max":842,"o":"m 278 -14 q 133 22 193 -14 q 49 132 72 57 q 50 326 25 207 q 188 588 89 504 q 431 672 288 672 q 622 615 551 672 l 690 936 l 842 936 l 643 0 l 514 0 l 517 65 q 407 6 464 25 q 278 -14 350 -14 m 343 100 q 526 169 444 100 l 597 499 q 446 557 546 557 q 293 502 357 557 q 203 325 229 447 q 208 153 178 207 q 343 100 238 100 m 218 -240 l 243 -118 l 374 -118 l 349 -240 l 218 -240 z "},"ḏ":{"ha":810,"x_min":25,"x_max":842,"o":"m 278 -14 q 133 22 193 -14 q 49 132 72 57 q 50 326 25 207 q 188 588 89 504 q 431 672 288 672 q 622 615 551 672 l 690 936 l 842 936 l 643 0 l 514 0 l 517 65 q 407 6 464 25 q 278 -14 350 -14 m 343 100 q 526 169 444 100 l 597 499 q 446 557 546 557 q 293 502 357 557 q 203 325 229 447 q 208 153 178 207 q 343 100 238 100 m 83 -228 l 104 -129 l 517 -129 l 496 -228 l 83 -228 z "},"e":{"ha":747,"x_min":26,"x_max":707,"o":"m 339 -14 q 158 24 231 -14 q 56 138 85 61 q 51 331 26 214 q 178 581 85 489 q 449 672 272 672 q 606 635 547 672 q 685 533 664 597 q 690 392 707 469 l 665 269 l 183 269 q 219 138 174 174 q 394 101 265 101 q 499 111 444 101 q 596 136 553 121 l 572 25 q 464 -4 524 6 q 339 -14 404 -14 m 204 368 l 553 368 l 563 414 q 551 520 578 482 q 429 558 524 558 q 274 513 324 558 q 204 368 225 467 z "},"é":{"ha":747,"x_min":26,"x_max":707,"o":"m 389 725 l 546 971 l 679 971 l 510 725 l 389 725 m 339 -14 q 158 24 231 -14 q 56 138 85 61 q 51 331 26 214 q 178 581 85 489 q 449 672 272 672 q 606 635 547 672 q 685 533 664 597 q 690 392 707 469 l 665 269 l 183 269 q 219 138 174 174 q 394 101 265 101 q 499 111 444 101 q 596 136 553 121 l 572 25 q 464 -4 524 6 q 339 -14 404 -14 m 204 368 l 553 368 l 563 414 q 551 520 578 482 q 429 558 524 558 q 274 513 324 558 q 204 368 225 467 z "},"ĕ":{"ha":747,"x_min":26,"x_max":707,"o":"m 457 725 q 326 778 365 725 q 304 921 286 832 l 401 921 q 406 844 392 874 q 472 815 419 815 q 551 844 519 815 q 592 921 582 874 l 699 921 q 615 778 681 832 q 457 725 550 725 m 339 -14 q 158 24 231 -14 q 56 138 85 61 q 51 331 26 214 q 178 581 85 489 q 449 672 272 672 q 606 635 547 672 q 685 533 664 597 q 690 392 707 469 l 665 269 l 183 269 q 219 138 174 174 q 394 101 265 101 q 499 111 444 101 q 596 136 553 121 l 572 25 q 464 -4 524 6 q 339 -14 404 -14 m 204 368 l 553 368 l 563 414 q 551 520 578 482 q 429 558 524 558 q 274 513 324 558 q 204 368 225 467 z "},"ě":{"ha":747,"x_min":26,"x_max":739,"o":"m 413 724 l 288 947 l 406 947 l 479 807 l 614 947 l 739 947 l 518 724 l 413 724 m 339 -14 q 158 24 231 -14 q 56 138 85 61 q 51 331 26 214 q 178 581 85 489 q 449 672 272 672 q 606 635 547 672 q 685 533 664 597 q 690 392 707 469 l 665 269 l 183 269 q 219 138 174 174 q 394 101 265 101 q 499 111 444 101 q 596 136 553 121 l 572 25 q 464 -4 524 6 q 339 -14 404 -14 m 204 368 l 553 368 l 563 414 q 551 520 578 482 q 429 558 524 558 q 274 513 324 558 q 204 368 225 467 z "},"ê":{"ha":747,"x_min":26,"x_max":707,"o":"m 228 724 l 447 947 l 553 947 l 679 724 l 563 724 l 486 864 l 354 724 l 228 724 m 339 -14 q 158 24 231 -14 q 56 138 85 61 q 51 331 26 214 q 178 581 85 489 q 449 672 272 672 q 606 635 547 672 q 685 533 664 597 q 690 392 707 469 l 665 269 l 183 269 q 219 138 174 174 q 394 101 265 101 q 499 111 444 101 q 596 136 553 121 l 572 25 q 464 -4 524 6 q 339 -14 404 -14 m 204 368 l 553 368 l 563 414 q 551 520 578 482 q 429 558 524 558 q 274 513 324 558 q 204 368 225 467 z "},"ế":{"ha":746,"x_min":26,"x_max":863,"o":"m 619 879 l 747 1064 l 863 1064 l 726 879 l 619 879 m 236 722 l 439 899 l 556 899 l 683 722 l 564 722 l 489 836 l 367 722 l 236 722 m 339 -14 q 158 24 231 -14 q 56 138 85 61 q 51 331 26 214 q 178 581 85 489 q 449 672 272 672 q 606 635 547 672 q 685 533 664 597 q 690 392 707 469 l 665 269 l 183 269 q 219 138 174 174 q 394 101 265 101 q 499 111 444 101 q 596 136 553 121 l 572 25 q 464 -4 524 6 q 339 -14 404 -14 m 204 368 l 553 368 l 563 414 q 551 520 578 482 q 429 558 524 558 q 274 513 324 558 q 204 368 225 467 z "},"ệ":{"ha":747,"x_min":26,"x_max":707,"o":"m 231 724 l 450 947 l 556 947 l 682 724 l 565 724 l 489 864 l 357 724 l 231 724 m 339 -14 q 158 24 231 -14 q 56 138 85 61 q 51 331 26 214 q 178 581 85 489 q 449 672 272 672 q 606 635 547 672 q 685 533 664 597 q 690 392 707 469 l 665 269 l 183 269 q 219 138 174 174 q 394 101 265 101 q 499 111 444 101 q 596 136 553 121 l 572 25 q 464 -4 524 6 q 339 -14 404 -14 m 204 368 l 553 368 l 563 414 q 551 520 578 482 q 429 558 524 558 q 274 513 324 558 q 204 368 225 467 m 189 -240 l 214 -118 l 344 -118 l 319 -240 l 189 -240 z "},"ề":{"ha":747,"x_min":26,"x_max":707,"o":"m 274 897 l 215 1082 l 332 1082 l 381 897 l 274 897 m 250 740 l 451 917 l 569 917 l 694 740 l 575 740 l 501 854 l 378 740 l 250 740 m 339 -14 q 158 24 231 -14 q 56 138 85 61 q 51 331 26 214 q 178 581 85 489 q 449 672 272 672 q 606 635 547 672 q 685 533 664 597 q 690 392 707 469 l 665 269 l 183 269 q 219 138 174 174 q 394 101 265 101 q 499 111 444 101 q 596 136 553 121 l 572 25 q 464 -4 524 6 q 339 -14 404 -14 m 204 368 l 553 368 l 563 414 q 551 520 578 482 q 429 558 524 558 q 274 513 324 558 q 204 368 225 467 z "},"ể":{"ha":746,"x_min":26,"x_max":876,"o":"m 619 850 l 639 942 q 728 958 706 944 q 756 996 750 971 q 700 1039 765 1039 q 658 1034 678 1039 q 619 1022 639 1029 l 636 1096 q 684 1108 658 1103 q 744 1113 710 1113 q 844 1083 813 1113 q 865 1004 876 1053 q 824 932 856 958 q 735 897 793 906 l 725 850 l 619 850 m 231 722 l 432 899 l 550 899 l 676 722 l 557 722 l 483 836 l 360 722 l 231 722 m 339 -14 q 158 24 231 -14 q 56 138 85 61 q 51 331 26 214 q 178 581 85 489 q 449 672 272 672 q 606 635 547 672 q 685 533 664 597 q 690 392 707 469 l 665 269 l 183 269 q 219 138 174 174 q 394 101 265 101 q 499 111 444 101 q 596 136 553 121 l 572 25 q 464 -4 524 6 q 339 -14 404 -14 m 204 368 l 553 368 l 563 414 q 551 520 578 482 q 429 558 524 558 q 274 513 324 558 q 204 368 225 467 z "},"ễ":{"ha":747,"x_min":26,"x_max":749,"o":"m 614 911 q 545 924 578 911 q 483 951 513 938 q 421 964 453 964 q 355 953 386 964 q 296 915 324 942 l 317 1014 q 372 1043 338 1032 q 439 1054 406 1054 q 508 1042 478 1054 q 568 1016 539 1029 q 632 1003 597 1003 q 749 1051 703 1003 l 726 953 q 680 923 710 935 q 614 911 650 911 m 236 724 l 438 900 l 556 900 l 682 724 l 563 724 l 489 838 l 365 724 l 236 724 m 339 -14 q 158 24 231 -14 q 56 138 85 61 q 51 331 26 214 q 178 581 85 489 q 449 672 272 672 q 606 635 547 672 q 685 533 664 597 q 690 392 707 469 l 665 269 l 183 269 q 219 138 174 174 q 394 101 265 101 q 499 111 444 101 q 596 136 553 121 l 572 25 q 464 -4 524 6 q 339 -14 404 -14 m 204 368 l 553 368 l 563 414 q 551 520 578 482 q 429 558 524 558 q 274 513 324 558 q 204 368 225 467 z "},"ë":{"ha":747,"x_min":26,"x_max":707,"o":"m 267 758 l 293 878 l 419 878 l 393 758 l 267 758 m 524 758 l 550 878 l 678 878 l 651 758 l 524 758 m 339 -14 q 158 24 231 -14 q 56 138 85 61 q 51 331 26 214 q 178 581 85 489 q 449 672 272 672 q 606 635 547 672 q 685 533 664 597 q 690 392 707 469 l 665 269 l 183 269 q 219 138 174 174 q 394 101 265 101 q 499 111 444 101 q 596 136 553 121 l 572 25 q 464 -4 524 6 q 339 -14 404 -14 m 204 368 l 553 368 l 563 414 q 551 520 578 482 q 429 558 524 558 q 274 513 324 558 q 204 368 225 467 z "},"ė":{"ha":747,"x_min":26,"x_max":707,"o":"m 399 757 l 425 879 l 553 879 l 526 757 l 399 757 m 339 -14 q 158 24 231 -14 q 56 138 85 61 q 51 331 26 214 q 178 581 85 489 q 449 672 272 672 q 606 635 547 672 q 685 533 664 597 q 690 392 707 469 l 665 269 l 183 269 q 219 138 174 174 q 394 101 265 101 q 499 111 444 101 q 596 136 553 121 l 572 25 q 464 -4 524 6 q 339 -14 404 -14 m 204 368 l 553 368 l 563 414 q 551 520 578 482 q 429 558 524 558 q 274 513 324 558 q 204 368 225 467 z "},"ẹ":{"ha":747,"x_min":26,"x_max":707,"o":"m 339 -14 q 158 24 231 -14 q 56 138 85 61 q 51 331 26 214 q 178 581 85 489 q 449 672 272 672 q 606 635 547 672 q 685 533 664 597 q 690 392 707 469 l 665 269 l 183 269 q 219 138 174 174 q 394 101 265 101 q 499 111 444 101 q 596 136 553 121 l 572 25 q 464 -4 524 6 q 339 -14 404 -14 m 204 368 l 553 368 l 563 414 q 551 520 578 482 q 429 558 524 558 q 274 513 324 558 q 204 368 225 467 m 189 -240 l 214 -118 l 344 -118 l 319 -240 l 189 -240 z "},"è":{"ha":747,"x_min":26,"x_max":707,"o":"m 394 725 l 332 971 l 464 971 l 517 725 l 394 725 m 339 -14 q 158 24 231 -14 q 56 138 85 61 q 51 331 26 214 q 178 581 85 489 q 449 672 272 672 q 606 635 547 672 q 685 533 664 597 q 690 392 707 469 l 665 269 l 183 269 q 219 138 174 174 q 394 101 265 101 q 499 111 444 101 q 596 136 553 121 l 572 25 q 464 -4 524 6 q 339 -14 404 -14 m 204 368 l 553 368 l 563 414 q 551 520 578 482 q 429 558 524 558 q 274 513 324 558 q 204 368 225 467 z "},"ẻ":{"ha":747,"x_min":26,"x_max":707,"o":"m 399 724 l 424 838 q 532 857 504 842 q 567 907 560 872 q 475 965 578 965 q 428 960 454 965 q 383 949 403 956 l 400 1031 q 462 1044 425 1039 q 533 1049 499 1049 q 657 1014 619 1049 q 681 919 694 979 q 635 831 669 863 q 531 789 601 800 l 517 724 l 399 724 m 339 -14 q 158 24 231 -14 q 56 138 85 61 q 51 331 26 214 q 178 581 85 489 q 449 672 272 672 q 606 635 547 672 q 685 533 664 597 q 690 392 707 469 l 665 269 l 183 269 q 219 138 174 174 q 394 101 265 101 q 499 111 444 101 q 596 136 553 121 l 572 25 q 464 -4 524 6 q 339 -14 404 -14 m 204 368 l 553 368 l 563 414 q 551 520 578 482 q 429 558 524 558 q 274 513 324 558 q 204 368 225 467 z "},"ē":{"ha":747,"x_min":26,"x_max":707,"o":"m 272 771 l 293 869 l 706 869 l 685 771 l 272 771 m 339 -14 q 158 24 231 -14 q 56 138 85 61 q 51 331 26 214 q 178 581 85 489 q 449 672 272 672 q 606 635 547 672 q 685 533 664 597 q 690 392 707 469 l 665 269 l 183 269 q 219 138 174 174 q 394 101 265 101 q 499 111 444 101 q 596 136 553 121 l 572 25 q 464 -4 524 6 q 339 -14 404 -14 m 204 368 l 553 368 l 563 414 q 551 520 578 482 q 429 558 524 558 q 274 513 324 558 q 204 368 225 467 z "},"ę":{"ha":747,"x_min":26,"x_max":707,"o":"m 354 -306 q 256 -276 294 -306 q 232 -182 218 -246 q 274 -90 243 -133 q 351 -14 306 -46 l 339 -14 q 158 24 231 -14 q 56 138 85 61 q 51 331 26 214 q 178 581 85 489 q 449 672 272 672 q 606 635 547 672 q 685 533 664 597 q 690 392 707 469 l 665 269 l 183 269 q 219 138 174 174 q 394 101 265 101 q 499 111 444 101 q 596 136 553 121 l 572 25 q 485 0 533 8 q 400 -74 433 -35 q 358 -156 367 -114 q 366 -199 351 -187 q 411 -211 381 -211 q 449 -207 428 -211 q 483 -196 469 -203 l 464 -287 q 415 -301 444 -296 q 354 -306 385 -306 m 204 368 l 553 368 l 563 414 q 551 520 578 482 q 429 558 524 558 q 274 513 324 558 q 204 368 225 467 z "},"ẽ":{"ha":747,"x_min":26,"x_max":717,"o":"m 574 746 q 503 760 536 746 q 438 787 469 774 q 375 800 407 800 q 306 789 339 800 q 243 750 274 778 l 267 861 q 324 892 289 881 q 393 903 358 903 q 465 890 433 903 q 528 863 497 876 q 594 849 558 849 q 717 900 668 849 l 693 789 q 643 758 675 771 q 574 746 611 746 m 339 -14 q 158 24 231 -14 q 56 138 85 61 q 51 331 26 214 q 178 581 85 489 q 449 672 272 672 q 606 635 547 672 q 685 533 664 597 q 690 392 707 469 l 665 269 l 183 269 q 219 138 174 174 q 394 101 265 101 q 499 111 444 101 q 596 136 553 121 l 572 25 q 464 -4 524 6 q 339 -14 404 -14 m 204 368 l 553 368 l 563 414 q 551 520 578 482 q 429 558 524 558 q 274 513 324 558 q 204 368 225 467 z "},"ə":{"ha":746,"x_min":11,"x_max":714,"o":"m 279 -14 q 72 65 133 -14 q 38 267 11 144 l 64 388 l 546 388 q 535 488 551 451 q 472 540 519 525 q 335 556 425 556 q 231 547 285 556 q 132 521 176 538 l 156 632 q 389 672 256 672 q 636 588 558 672 q 676 326 714 503 q 550 78 643 169 q 279 -14 457 -14 m 300 99 q 455 145 406 99 q 525 289 504 192 l 176 289 l 167 244 q 163 166 157 199 q 201 116 169 133 q 300 99 233 99 z "},"f":{"ha":501,"x_min":50,"x_max":601,"o":"m 50 0 l 164 540 l 68 540 l 93 658 l 189 658 l 207 739 q 290 898 228 838 q 471 958 353 958 q 543 952 511 958 q 601 935 575 946 l 578 826 q 493 842 536 842 q 398 818 428 842 q 356 738 368 794 l 339 658 l 511 658 l 479 540 l 314 540 l 200 0 l 50 0 z "},"g":{"ha":810,"x_min":21,"x_max":776,"o":"m 233 -244 q 178 -242 211 -244 q 113 -237 144 -240 q 64 -231 82 -235 l 90 -110 q 161 -124 118 -119 q 233 -128 204 -128 q 403 -97 335 -128 q 486 6 471 -67 l 497 56 q 282 0 403 0 q 132 33 194 0 q 45 135 69 65 q 43 315 21 206 q 178 578 79 485 q 419 672 278 672 q 540 653 492 672 q 624 593 588 633 l 647 658 l 776 658 l 643 29 q 518 -168 617 -92 q 233 -244 419 -244 m 344 114 q 441 130 397 114 q 522 172 485 146 l 589 488 q 436 557 536 557 q 281 494 343 557 q 196 317 219 431 q 188 192 179 236 q 234 131 196 147 q 344 114 272 114 z "},"ğ":{"ha":810,"x_min":21,"x_max":776,"o":"m 440 725 q 309 778 349 725 q 288 921 269 832 l 385 921 q 389 844 375 874 q 456 815 403 815 q 534 844 503 815 q 575 921 565 874 l 682 921 q 599 778 664 832 q 440 725 533 725 m 233 -244 q 178 -242 211 -244 q 113 -237 144 -240 q 64 -231 82 -235 l 90 -110 q 161 -124 118 -119 q 233 -128 204 -128 q 403 -97 335 -128 q 486 6 471 -67 l 497 56 q 282 0 403 0 q 132 33 194 0 q 45 135 69 65 q 43 315 21 206 q 178 578 79 485 q 419 672 278 672 q 540 653 492 672 q 624 593 588 633 l 647 658 l 776 658 l 643 29 q 518 -168 617 -92 q 233 -244 419 -244 m 344 114 q 441 130 397 114 q 522 172 485 146 l 589 488 q 436 557 536 557 q 281 494 343 557 q 196 317 219 431 q 188 192 179 236 q 234 131 196 147 q 344 114 272 114 z "},"ǧ":{"ha":810,"x_min":21,"x_max":776,"o":"m 414 724 l 289 947 l 407 947 l 481 807 l 615 947 l 740 947 l 519 724 l 414 724 m 233 -244 q 178 -242 211 -244 q 113 -237 144 -240 q 64 -231 82 -235 l 90 -110 q 161 -124 118 -119 q 233 -128 204 -128 q 403 -97 335 -128 q 486 6 471 -67 l 497 56 q 282 0 403 0 q 132 33 194 0 q 45 135 69 65 q 43 315 21 206 q 178 578 79 485 q 419 672 278 672 q 540 653 492 672 q 624 593 588 633 l 647 658 l 776 658 l 643 29 q 518 -168 617 -92 q 233 -244 419 -244 m 344 114 q 441 130 397 114 q 522 172 485 146 l 589 488 q 436 557 536 557 q 281 494 343 557 q 196 317 219 431 q 188 192 179 236 q 234 131 196 147 q 344 114 272 114 z "},"ĝ":{"ha":810,"x_min":21,"x_max":776,"o":"m 218 724 l 438 947 l 543 947 l 669 724 l 553 724 l 476 864 l 344 724 l 218 724 m 233 -244 q 178 -242 211 -244 q 113 -237 144 -240 q 64 -231 82 -235 l 90 -110 q 161 -124 118 -119 q 233 -128 204 -128 q 403 -97 335 -128 q 486 6 471 -67 l 497 56 q 282 0 403 0 q 132 33 194 0 q 45 135 69 65 q 43 315 21 206 q 178 578 79 485 q 419 672 278 672 q 540 653 492 672 q 624 593 588 633 l 647 658 l 776 658 l 643 29 q 518 -168 617 -92 q 233 -244 419 -244 m 344 114 q 441 130 397 114 q 522 172 485 146 l 589 488 q 436 557 536 557 q 281 494 343 557 q 196 317 219 431 q 188 192 179 236 q 234 131 196 147 q 344 114 272 114 z "},"ģ":{"ha":810,"x_min":21,"x_max":776,"o":"m 369 725 l 490 988 l 590 988 l 494 725 l 369 725 m 233 -244 q 178 -242 211 -244 q 113 -237 144 -240 q 64 -231 82 -235 l 90 -110 q 161 -124 118 -119 q 233 -128 204 -128 q 403 -97 335 -128 q 486 6 471 -67 l 497 56 q 282 0 403 0 q 132 33 194 0 q 45 135 69 65 q 43 315 21 206 q 178 578 79 485 q 419 672 278 672 q 540 653 492 672 q 624 593 588 633 l 647 658 l 776 658 l 643 29 q 518 -168 617 -92 q 233 -244 419 -244 m 344 114 q 441 130 397 114 q 522 172 485 146 l 589 488 q 436 557 536 557 q 281 494 343 557 q 196 317 219 431 q 188 192 179 236 q 234 131 196 147 q 344 114 272 114 z "},"ġ":{"ha":810,"x_min":21,"x_max":776,"o":"m 372 746 l 399 868 l 526 868 l 500 746 l 372 746 m 233 -244 q 178 -242 211 -244 q 113 -237 144 -240 q 64 -231 82 -235 l 90 -110 q 161 -124 118 -119 q 233 -128 204 -128 q 403 -97 335 -128 q 486 6 471 -67 l 497 56 q 282 0 403 0 q 132 33 194 0 q 45 135 69 65 q 43 315 21 206 q 178 578 79 485 q 419 672 278 672 q 540 653 492 672 q 624 593 588 633 l 647 658 l 776 658 l 643 29 q 518 -168 617 -92 q 233 -244 419 -244 m 344 114 q 441 130 397 114 q 522 172 485 146 l 589 488 q 436 557 536 557 q 281 494 343 557 q 196 317 219 431 q 188 192 179 236 q 234 131 196 147 q 344 114 272 114 z "},"ḡ":{"ha":810,"x_min":21,"x_max":776,"o":"m 261 765 l 282 864 l 694 864 l 674 765 l 261 765 m 233 -244 q 178 -242 211 -244 q 113 -237 144 -240 q 64 -231 82 -235 l 90 -110 q 161 -124 118 -119 q 233 -128 204 -128 q 403 -97 335 -128 q 486 6 471 -67 l 497 56 q 282 0 403 0 q 132 33 194 0 q 45 135 69 65 q 43 315 21 206 q 178 578 79 485 q 419 672 278 672 q 540 653 492 672 q 624 593 588 633 l 647 658 l 776 658 l 643 29 q 518 -168 617 -92 q 233 -244 419 -244 m 344 114 q 441 130 397 114 q 522 172 485 146 l 589 488 q 436 557 536 557 q 281 494 343 557 q 196 317 219 431 q 188 192 179 236 q 234 131 196 147 q 344 114 272 114 z "},"h":{"ha":803,"x_min":8,"x_max":757,"o":"m 8 0 l 207 936 l 358 936 l 285 594 q 399 651 335 629 q 539 672 464 672 q 708 609 658 672 q 732 426 757 546 l 642 0 l 492 0 l 581 419 q 573 526 596 496 q 464 557 550 557 q 358 535 414 557 q 261 479 301 514 l 160 0 l 8 0 z "},"ħ":{"ha":817,"x_min":22,"x_max":771,"o":"m 22 0 l 179 744 l 104 744 l 128 854 l 203 854 l 221 936 l 372 936 l 354 854 l 561 854 l 538 744 l 331 744 l 299 594 q 413 651 349 629 q 553 672 478 672 q 722 609 672 672 q 746 426 771 546 l 656 0 l 506 0 l 594 419 q 587 526 610 496 q 478 557 564 557 q 372 535 428 557 q 275 479 315 514 l 174 0 l 22 0 z "},"ḫ":{"ha":803,"x_min":8,"x_max":757,"o":"m 8 0 l 207 936 l 358 936 l 285 594 q 399 651 335 629 q 539 672 464 672 q 708 609 658 672 q 732 426 757 546 l 642 0 l 492 0 l 581 419 q 573 526 596 496 q 464 557 550 557 q 358 535 414 557 q 261 479 301 514 l 160 0 l 8 0 m 274 -287 q 141 -234 182 -287 q 119 -90 100 -181 l 218 -90 q 222 -168 208 -139 q 288 -197 236 -197 q 366 -168 335 -197 q 407 -90 397 -139 l 514 -90 q 430 -234 494 -181 q 274 -287 365 -287 z "},"ĥ":{"ha":803,"x_min":8,"x_max":757,"o":"m 222 975 l 442 1199 l 547 1199 l 674 975 l 557 975 l 481 1115 l 349 975 l 222 975 m 8 0 l 207 936 l 358 936 l 285 594 q 399 651 335 629 q 539 672 464 672 q 708 609 658 672 q 732 426 757 546 l 642 0 l 492 0 l 581 419 q 573 526 596 496 q 464 557 550 557 q 358 535 414 557 q 261 479 301 514 l 160 0 l 8 0 z "},"ḥ":{"ha":803,"x_min":8,"x_max":757,"o":"m 8 0 l 207 936 l 358 936 l 285 594 q 399 651 335 629 q 539 672 464 672 q 708 609 658 672 q 732 426 757 546 l 642 0 l 492 0 l 581 419 q 573 526 596 496 q 464 557 550 557 q 358 535 414 557 q 261 479 301 514 l 160 0 l 8 0 m 215 -240 l 240 -118 l 371 -118 l 346 -240 l 215 -240 z "},"i":{"ha":394,"x_min":76,"x_max":424,"o":"m 232 796 l 258 921 l 424 921 l 397 796 l 232 796 m 76 0 l 192 543 l 92 543 l 129 658 l 367 658 l 228 0 l 76 0 z "},"ı":{"ha":428,"x_min":108,"x_max":399,"o":"m 108 0 l 224 543 l 124 543 l 161 658 l 399 658 l 260 0 l 108 0 z "},"í":{"ha":428,"x_min":108,"x_max":550,"o":"m 260 725 l 417 971 l 550 971 l 381 725 l 260 725 m 108 0 l 224 543 l 124 543 l 161 658 l 399 658 l 260 0 l 108 0 z "},"ĭ":{"ha":428,"x_min":110,"x_max":542,"o":"m 300 724 q 167 777 208 724 q 146 921 126 831 l 243 921 q 247 843 233 872 q 313 814 261 814 q 392 843 360 814 q 433 921 424 872 l 542 921 q 461 777 522 831 q 300 724 400 724 m 110 0 l 225 543 l 125 543 l 163 658 l 400 658 l 261 0 l 110 0 z "},"ǐ":{"ha":426,"x_min":108,"x_max":576,"o":"m 250 724 l 125 947 l 243 947 l 317 807 l 451 947 l 576 947 l 356 724 l 250 724 m 108 0 l 224 543 l 124 543 l 161 658 l 399 658 l 260 0 l 108 0 z "},"î":{"ha":426,"x_min":82,"x_max":533,"o":"m 82 724 l 301 947 l 407 947 l 533 724 l 417 724 l 340 864 l 208 724 l 82 724 m 108 0 l 224 543 l 124 543 l 161 658 l 399 658 l 260 0 l 108 0 z "},"ï":{"ha":428,"x_min":108,"x_max":521,"o":"m 110 758 l 136 878 l 263 878 l 236 758 l 110 758 m 367 758 l 393 878 l 521 878 l 494 758 l 367 758 m 108 0 l 224 543 l 124 543 l 161 658 l 399 658 l 260 0 l 108 0 z "},"ị":{"ha":426,"x_min":69,"x_max":456,"o":"m 264 796 l 290 921 l 456 921 l 429 796 l 264 796 m 108 0 l 224 543 l 124 543 l 161 658 l 399 658 l 260 0 l 108 0 m 69 -240 l 94 -118 l 225 -118 l 200 -240 l 69 -240 z "},"ì":{"ha":428,"x_min":108,"x_max":399,"o":"m 276 725 l 214 971 l 346 971 l 399 725 l 276 725 m 108 0 l 224 543 l 124 543 l 161 658 l 399 658 l 260 0 l 108 0 z "},"ỉ":{"ha":426,"x_min":108,"x_max":533,"o":"m 238 724 l 263 838 q 371 857 343 842 q 406 907 399 872 q 314 965 417 965 q 267 960 293 965 q 222 949 242 956 l 239 1031 q 301 1044 264 1039 q 372 1049 338 1049 q 496 1014 458 1049 q 519 919 533 979 q 474 831 508 863 q 369 789 440 800 l 356 724 l 238 724 m 108 0 l 224 543 l 124 543 l 161 658 l 399 658 l 260 0 l 108 0 z "},"ĳ":{"ha":754,"x_min":108,"x_max":782,"o":"m 264 796 l 290 921 l 456 921 l 429 796 l 264 796 m 590 796 l 617 921 l 782 921 l 756 796 l 590 796 m 306 -325 q 172 -303 225 -325 l 196 -193 q 238 -203 217 -200 q 278 -207 260 -207 q 373 -183 343 -207 q 414 -106 403 -160 l 553 543 l 453 543 l 490 658 l 726 658 l 561 -119 q 479 -269 542 -212 q 306 -325 417 -325 m 108 0 l 224 543 l 124 543 l 161 658 l 399 658 l 260 0 l 108 0 z "},"ī":{"ha":428,"x_min":96,"x_max":531,"o":"m 96 785 l 117 883 l 531 883 l 510 785 l 96 785 m 108 0 l 224 543 l 124 543 l 161 658 l 399 658 l 260 0 l 108 0 z "},"į":{"ha":428,"x_min":-28,"x_max":456,"o":"m 264 796 l 290 921 l 456 921 l 429 796 l 264 796 m 108 -306 q 10 -276 49 -306 q -14 -182 -28 -246 q 35 -81 -3 -129 q 126 0 74 -32 l 108 0 l 224 543 l 124 543 l 161 658 l 399 658 l 260 0 l 240 0 q 155 -74 189 -35 q 113 -156 121 -114 q 120 -199 106 -187 q 165 -211 135 -211 q 203 -207 182 -211 q 238 -196 224 -203 l 218 -287 q 169 -301 199 -296 q 108 -306 139 -306 z "},"ĩ":{"ha":428,"x_min":72,"x_max":546,"o":"m 403 735 q 332 749 365 735 q 267 776 299 763 q 204 789 236 789 q 135 778 168 789 q 72 739 103 767 l 96 850 q 153 881 118 869 q 222 892 188 892 q 294 878 263 892 q 357 851 326 865 q 424 838 388 838 q 546 889 497 838 l 522 778 q 472 747 504 760 q 403 735 440 735 m 108 0 l 224 543 l 124 543 l 161 658 l 399 658 l 260 0 l 108 0 z "},"j":{"ha":426,"x_min":-154,"x_max":456,"o":"m 264 796 l 290 921 l 456 921 l 429 796 l 264 796 m -21 -325 q -154 -303 -101 -325 l -131 -193 q -88 -203 -110 -200 q -49 -207 -67 -207 q 47 -183 17 -207 q 88 -106 76 -160 l 226 543 l 126 543 l 164 658 l 400 658 l 235 -119 q 153 -269 215 -212 q -21 -325 90 -325 z "},"ȷ":{"ha":424,"x_min":-157,"x_max":397,"o":"m -24 -325 q -157 -303 -104 -325 l -133 -193 q -91 -203 -112 -200 q -51 -207 -69 -207 q 44 -183 14 -207 q 85 -106 74 -160 l 224 543 l 124 543 l 161 658 l 397 658 l 232 -119 q 147 -269 213 -212 q -24 -325 82 -325 z "},"ĵ":{"ha":424,"x_min":-157,"x_max":536,"o":"m 85 724 l 304 947 l 410 947 l 536 724 l 419 724 l 343 864 l 211 724 l 85 724 m -24 -325 q -157 -303 -104 -325 l -133 -193 q -91 -203 -112 -200 q -51 -207 -69 -207 q 44 -183 14 -207 q 85 -106 74 -160 l 224 543 l 124 543 l 161 658 l 397 658 l 232 -119 q 147 -269 213 -212 q -24 -325 82 -325 z "},"k":{"ha":746,"x_min":8,"x_max":749,"o":"m 8 0 l 207 936 l 358 936 l 243 394 l 575 658 l 749 658 l 425 393 l 625 0 l 465 0 l 313 313 l 208 229 l 160 0 l 8 0 z "},"ķ":{"ha":764,"x_min":8,"x_max":749,"o":"m 8 0 l 207 936 l 358 936 l 243 394 l 575 658 l 749 658 l 425 393 l 625 0 l 465 0 l 313 313 l 208 229 l 160 0 l 8 0 m 129 -314 l 225 -51 l 350 -51 l 229 -314 l 129 -314 z "},"ĸ":{"ha":765,"x_min":10,"x_max":750,"o":"m 10 0 l 149 658 l 300 658 l 239 369 l 576 658 l 750 658 l 422 375 l 626 0 l 467 0 l 311 293 l 203 201 l 161 0 l 10 0 z "},"l":{"ha":389,"x_min":24,"x_max":358,"o":"m 168 -14 q 56 28 89 -14 q 42 157 24 69 l 207 936 l 358 936 l 196 171 q 196 118 188 132 q 236 104 204 104 q 303 113 269 104 l 279 3 q 226 -10 251 -7 q 168 -14 200 -14 z "},"ĺ":{"ha":389,"x_min":24,"x_max":525,"o":"m 235 1017 l 392 1263 l 525 1263 l 356 1017 l 235 1017 m 168 -14 q 56 28 89 -14 q 42 157 24 69 l 207 936 l 358 936 l 196 171 q 196 118 188 132 q 236 104 204 104 q 303 113 269 104 l 279 3 q 226 -10 251 -7 q 168 -14 200 -14 z "},"ľ":{"ha":483,"x_min":22,"x_max":603,"o":"m 169 -14 q 56 26 89 -14 q 42 157 22 65 l 207 936 l 358 936 l 196 171 q 197 122 190 140 q 238 104 203 104 q 303 113 269 104 l 279 3 q 226 -10 251 -7 q 169 -14 201 -14 m 382 674 l 478 936 l 603 936 l 483 674 l 382 674 z "},"ļ":{"ha":389,"x_min":-1,"x_max":358,"o":"m 168 -14 q 56 28 89 -14 q 42 157 24 69 l 207 936 l 358 936 l 196 171 q 196 118 188 132 q 236 104 204 104 q 303 113 269 104 l 279 3 q 226 -10 251 -7 q 168 -14 200 -14 m -1 -314 l 94 -51 l 219 -51 l 99 -314 l -1 -314 z "},"ŀ":{"ha":449,"x_min":24,"x_max":482,"o":"m 168 -14 q 56 28 89 -14 q 42 157 24 69 l 207 936 l 358 936 l 196 171 q 196 118 188 132 q 236 104 204 104 q 303 113 269 104 l 279 3 q 226 -10 251 -7 q 168 -14 200 -14 m 328 379 l 354 501 l 482 501 l 456 379 l 328 379 z "},"ḷ":{"ha":389,"x_min":8,"x_max":358,"o":"m 168 -14 q 56 28 89 -14 q 42 157 24 69 l 207 936 l 358 936 l 196 171 q 196 118 188 132 q 236 104 204 104 q 303 113 269 104 l 279 3 q 226 -10 251 -7 q 168 -14 200 -14 m 8 -240 l 33 -118 l 164 -118 l 139 -240 l 8 -240 z "},"ḹ":{"ha":388,"x_min":10,"x_max":525,"o":"m 92 1003 l 113 1101 l 525 1101 l 504 1003 l 92 1003 m 169 -14 q 58 28 90 -14 q 43 157 25 69 l 208 936 l 360 936 l 197 171 q 197 118 189 132 q 238 104 206 104 q 304 113 271 104 l 281 3 q 227 -10 253 -7 q 169 -14 201 -14 m 10 -240 l 35 -118 l 165 -118 l 140 -240 l 10 -240 z "},"ḻ":{"ha":388,"x_min":-129,"x_max":358,"o":"m 168 -14 q 56 28 89 -14 q 42 157 24 69 l 207 936 l 358 936 l 196 171 q 196 118 188 132 q 236 104 204 104 q 303 113 269 104 l 279 3 q 226 -10 251 -7 q 168 -14 200 -14 m -129 -203 l -108 -104 l 304 -104 l 283 -203 l -129 -203 z "},"ł":{"ha":388,"x_min":-58,"x_max":444,"o":"m 168 -14 q 55 26 88 -14 q 42 157 22 65 l 89 381 l -58 322 l -33 439 l 114 497 l 207 936 l 358 936 l 279 564 l 444 631 l 419 514 l 254 447 l 196 171 q 198 118 188 132 q 236 104 208 104 q 303 113 269 104 l 279 3 q 226 -10 251 -7 q 168 -14 200 -14 z "},"m":{"ha":1190,"x_min":10,"x_max":1147,"o":"m 10 0 l 149 658 l 288 658 l 281 589 q 400 650 338 628 q 529 672 463 672 q 633 649 600 672 q 682 586 667 626 q 801 648 736 624 q 949 672 865 672 q 1101 614 1056 672 q 1121 435 1147 556 l 1029 0 l 881 0 l 969 419 q 963 526 985 496 q 863 557 940 557 q 769 540 815 557 q 686 490 722 524 q 678 422 686 463 l 589 0 l 449 0 l 536 418 q 534 524 551 490 q 447 557 517 557 q 349 534 399 557 q 260 479 300 511 l 158 0 l 10 0 z "},"ṃ":{"ha":1190,"x_min":10,"x_max":1147,"o":"m 10 0 l 149 658 l 288 658 l 281 589 q 400 650 338 628 q 529 672 463 672 q 633 649 600 672 q 682 586 667 626 q 801 648 736 624 q 949 672 865 672 q 1101 614 1056 672 q 1121 435 1147 556 l 1029 0 l 881 0 l 969 419 q 963 526 985 496 q 863 557 940 557 q 769 540 815 557 q 686 490 722 524 q 678 422 686 463 l 589 0 l 449 0 l 536 418 q 534 524 551 490 q 447 557 517 557 q 349 534 399 557 q 260 479 300 511 l 158 0 l 10 0 m 400 -240 l 425 -118 l 556 -118 l 531 -240 l 400 -240 z "},"n":{"ha":804,"x_min":10,"x_max":758,"o":"m 10 0 l 149 658 l 288 658 l 281 589 q 399 648 332 624 q 540 672 465 672 q 710 608 661 672 q 733 426 758 544 l 643 0 l 493 0 l 582 419 q 575 526 597 496 q 463 557 553 557 q 357 536 411 557 q 263 482 303 515 l 161 0 l 10 0 z "},"ń":{"ha":804,"x_min":10,"x_max":758,"o":"m 396 725 l 553 971 l 686 971 l 517 725 l 396 725 m 10 0 l 149 658 l 288 658 l 281 589 q 399 648 332 624 q 540 672 465 672 q 710 608 661 672 q 733 426 758 544 l 643 0 l 493 0 l 582 419 q 575 526 597 496 q 463 557 553 557 q 357 536 411 557 q 263 482 303 515 l 161 0 l 10 0 z "},"ŉ":{"ha":881,"x_min":32,"x_max":835,"o":"m 32 636 l 128 899 l 253 899 l 132 636 l 32 636 m 86 0 l 225 658 l 364 658 l 357 589 q 475 648 408 624 q 617 672 542 672 q 786 608 738 672 q 810 426 835 544 l 719 0 l 569 0 l 658 419 q 651 526 674 496 q 539 557 629 557 q 433 536 488 557 q 339 482 379 515 l 238 0 l 86 0 z "},"ň":{"ha":804,"x_min":10,"x_max":758,"o":"m 410 724 l 285 947 l 403 947 l 476 807 l 611 947 l 736 947 l 515 724 l 410 724 m 10 0 l 149 658 l 288 658 l 281 589 q 399 648 332 624 q 540 672 465 672 q 710 608 661 672 q 733 426 758 544 l 643 0 l 493 0 l 582 419 q 575 526 597 496 q 463 557 553 557 q 357 536 411 557 q 263 482 303 515 l 161 0 l 10 0 z "},"ņ":{"ha":804,"x_min":10,"x_max":758,"o":"m 10 0 l 149 658 l 288 658 l 281 589 q 399 648 332 624 q 540 672 465 672 q 710 608 661 672 q 733 426 758 544 l 643 0 l 493 0 l 582 419 q 575 526 597 496 q 463 557 553 557 q 357 536 411 557 q 263 482 303 515 l 161 0 l 10 0 m 172 -314 l 268 -51 l 393 -51 l 272 -314 l 172 -314 z "},"ṅ":{"ha":804,"x_min":10,"x_max":758,"o":"m 419 757 l 446 879 l 574 879 l 547 757 l 419 757 m 10 0 l 149 658 l 288 658 l 281 589 q 399 648 332 624 q 540 672 465 672 q 710 608 661 672 q 733 426 758 544 l 643 0 l 493 0 l 582 419 q 575 526 597 496 q 463 557 553 557 q 357 536 411 557 q 263 482 303 515 l 161 0 l 10 0 z "},"ṇ":{"ha":804,"x_min":10,"x_max":758,"o":"m 10 0 l 149 658 l 288 658 l 281 589 q 399 648 332 624 q 540 672 465 672 q 710 608 661 672 q 733 426 758 544 l 643 0 l 493 0 l 582 419 q 575 526 597 496 q 463 557 553 557 q 357 536 411 557 q 263 482 303 515 l 161 0 l 10 0 m 215 -240 l 240 -118 l 371 -118 l 346 -240 l 215 -240 z "},"ŋ":{"ha":804,"x_min":10,"x_max":760,"o":"m 360 -325 q 226 -303 279 -325 l 250 -193 q 292 -203 271 -200 q 332 -207 314 -207 q 428 -183 397 -207 q 469 -106 458 -160 l 582 419 q 573 526 597 496 q 463 557 549 557 q 357 536 411 557 q 263 482 303 515 l 161 0 l 10 0 l 149 658 l 288 658 l 281 589 q 399 648 332 624 q 540 672 465 672 q 714 613 668 672 q 733 426 760 553 l 617 -119 q 534 -269 597 -212 q 360 -325 471 -325 z "},"ṉ":{"ha":804,"x_min":10,"x_max":758,"o":"m 10 0 l 149 658 l 288 658 l 281 589 q 399 648 332 624 q 540 672 465 672 q 710 608 661 672 q 733 426 758 544 l 643 0 l 493 0 l 582 419 q 575 526 597 496 q 463 557 553 557 q 357 536 411 557 q 263 482 303 515 l 161 0 l 10 0 m 79 -199 l 100 -100 l 513 -100 l 492 -199 l 79 -199 z "},"ñ":{"ha":804,"x_min":10,"x_max":758,"o":"m 597 746 q 526 760 560 746 q 462 787 493 774 q 399 800 431 800 q 330 789 363 800 q 267 750 297 778 l 290 861 q 347 892 313 881 q 417 903 382 903 q 489 890 457 903 q 551 863 521 876 q 618 849 582 849 q 740 900 692 849 l 717 789 q 667 758 699 771 q 597 746 635 746 m 10 0 l 149 658 l 288 658 l 281 589 q 399 648 332 624 q 540 672 465 672 q 710 608 661 672 q 733 426 758 544 l 643 0 l 493 0 l 582 419 q 575 526 597 496 q 463 557 553 557 q 357 536 411 557 q 263 482 303 515 l 161 0 l 10 0 z "},"o":{"ha":807,"x_min":15,"x_max":772,"o":"m 319 -14 q 85 75 156 -14 q 50 329 15 164 q 182 583 85 494 q 465 672 279 672 q 703 583 635 672 q 738 329 772 494 q 606 75 703 164 q 319 -14 508 -14 m 347 114 q 506 165 451 114 q 585 329 560 215 q 581 493 608 443 q 439 543 553 543 q 281 493 336 543 q 203 329 226 443 q 208 165 178 215 q 347 114 238 114 z "},"ó":{"ha":807,"x_min":15,"x_max":772,"o":"m 411 725 l 568 971 l 701 971 l 532 725 l 411 725 m 319 -14 q 85 75 156 -14 q 50 329 15 164 q 182 583 85 494 q 465 672 279 672 q 703 583 635 672 q 738 329 772 494 q 606 75 703 164 q 319 -14 508 -14 m 347 114 q 506 165 451 114 q 585 329 560 215 q 581 493 608 443 q 439 543 553 543 q 281 493 336 543 q 203 329 226 443 q 208 165 178 215 q 347 114 238 114 z "},"ŏ":{"ha":807,"x_min":15,"x_max":772,"o":"m 475 725 q 344 778 383 725 q 322 921 304 832 l 419 921 q 424 844 410 874 q 490 815 438 815 q 569 844 538 815 q 610 921 600 874 l 717 921 q 633 778 699 832 q 475 725 568 725 m 319 -14 q 85 75 156 -14 q 50 329 15 164 q 182 583 85 494 q 465 672 279 672 q 703 583 635 672 q 738 329 772 494 q 606 75 703 164 q 319 -14 508 -14 m 347 114 q 506 165 451 114 q 585 329 560 215 q 581 493 608 443 q 439 543 553 543 q 281 493 336 543 q 203 329 226 443 q 208 165 178 215 q 347 114 238 114 z "},"ǒ":{"ha":807,"x_min":15,"x_max":772,"o":"m 424 724 l 299 947 l 417 947 l 490 807 l 625 947 l 750 947 l 529 724 l 424 724 m 319 -14 q 85 75 156 -14 q 50 329 15 164 q 182 583 85 494 q 465 672 279 672 q 703 583 635 672 q 738 329 772 494 q 606 75 703 164 q 319 -14 508 -14 m 347 114 q 506 165 451 114 q 585 329 560 215 q 581 493 608 443 q 439 543 553 543 q 281 493 336 543 q 203 329 226 443 q 208 165 178 215 q 347 114 238 114 z "},"ô":{"ha":807,"x_min":15,"x_max":772,"o":"m 251 724 l 471 947 l 576 947 l 703 724 l 586 724 l 510 864 l 378 724 l 251 724 m 319 -14 q 85 75 156 -14 q 50 329 15 164 q 182 583 85 494 q 465 672 279 672 q 703 583 635 672 q 738 329 772 494 q 606 75 703 164 q 319 -14 508 -14 m 347 114 q 506 165 451 114 q 585 329 560 215 q 581 493 608 443 q 439 543 553 543 q 281 493 336 543 q 203 329 226 443 q 208 165 178 215 q 347 114 238 114 z "},"ố":{"ha":807,"x_min":15,"x_max":881,"o":"m 638 881 l 765 1065 l 881 1065 l 744 881 l 638 881 m 254 724 l 457 900 l 574 900 l 701 724 l 582 724 l 507 838 l 385 724 l 254 724 m 319 -14 q 85 75 156 -14 q 50 329 15 164 q 182 583 85 494 q 465 672 279 672 q 703 583 635 672 q 738 329 772 494 q 606 75 703 164 q 319 -14 508 -14 m 347 114 q 506 165 451 114 q 585 329 560 215 q 581 493 608 443 q 439 543 553 543 q 281 493 336 543 q 203 329 226 443 q 208 165 178 215 q 347 114 238 114 z "},"ộ":{"ha":807,"x_min":15,"x_max":772,"o":"m 251 724 l 471 947 l 576 947 l 703 724 l 586 724 l 510 864 l 378 724 l 251 724 m 319 -14 q 85 75 156 -14 q 50 329 15 164 q 182 583 85 494 q 465 672 279 672 q 703 583 635 672 q 738 329 772 494 q 606 75 703 164 q 319 -14 508 -14 m 347 114 q 506 165 451 114 q 585 329 560 215 q 581 493 608 443 q 439 543 553 543 q 281 493 336 543 q 203 329 226 443 q 208 165 178 215 q 347 114 238 114 m 208 -240 l 233 -118 l 364 -118 l 339 -240 l 208 -240 z "},"ồ":{"ha":807,"x_min":15,"x_max":772,"o":"m 271 881 l 213 1065 l 329 1065 l 378 881 l 271 881 m 247 724 l 449 900 l 567 900 l 692 724 l 572 724 l 499 838 l 375 724 l 247 724 m 319 -14 q 85 75 156 -14 q 50 329 15 164 q 182 583 85 494 q 465 672 279 672 q 703 583 635 672 q 738 329 772 494 q 606 75 703 164 q 319 -14 508 -14 m 347 114 q 506 165 451 114 q 585 329 560 215 q 581 493 608 443 q 439 543 553 543 q 281 493 336 543 q 203 329 226 443 q 208 165 178 215 q 347 114 238 114 z "},"ổ":{"ha":792,"x_min":15,"x_max":897,"o":"m 640 851 l 660 943 q 749 959 726 946 q 776 997 771 972 q 721 1040 786 1040 q 679 1035 699 1040 q 640 1024 660 1031 l 657 1097 q 705 1109 679 1104 q 765 1114 731 1114 q 865 1084 833 1114 q 886 1006 897 1054 q 845 933 876 960 q 756 899 814 907 l 746 851 l 640 851 m 251 724 l 453 900 l 571 900 l 697 724 l 578 724 l 504 838 l 381 724 l 251 724 m 319 -14 q 85 75 156 -14 q 50 329 15 164 q 182 583 85 494 q 465 672 279 672 q 703 583 635 672 q 738 329 772 494 q 606 75 703 164 q 319 -14 508 -14 m 347 114 q 506 165 451 114 q 585 329 560 215 q 581 493 608 443 q 439 543 553 543 q 281 493 336 543 q 203 329 226 443 q 208 165 178 215 q 347 114 238 114 z "},"ỗ":{"ha":807,"x_min":15,"x_max":772,"o":"m 625 911 q 556 924 589 911 q 494 951 524 938 q 432 964 464 964 q 366 953 397 964 q 307 915 335 942 l 328 1014 q 383 1043 349 1032 q 450 1054 417 1054 q 519 1042 489 1054 q 579 1016 550 1029 q 643 1003 608 1003 q 760 1051 714 1003 l 738 953 q 691 923 721 935 q 625 911 661 911 m 251 724 l 453 900 l 571 900 l 697 724 l 578 724 l 504 838 l 381 724 l 251 724 m 319 -14 q 85 75 156 -14 q 50 329 15 164 q 182 583 85 494 q 465 672 279 672 q 703 583 635 672 q 738 329 772 494 q 606 75 703 164 q 319 -14 508 -14 m 347 114 q 506 165 451 114 q 585 329 560 215 q 581 493 608 443 q 439 543 553 543 q 281 493 336 543 q 203 329 226 443 q 208 165 178 215 q 347 114 238 114 z "},"ö":{"ha":807,"x_min":15,"x_max":772,"o":"m 292 758 l 318 878 l 444 878 l 418 758 l 292 758 m 549 758 l 575 878 l 703 878 l 676 758 l 549 758 m 319 -14 q 85 75 156 -14 q 50 329 15 164 q 182 583 85 494 q 465 672 279 672 q 703 583 635 672 q 738 329 772 494 q 606 75 703 164 q 319 -14 508 -14 m 347 114 q 506 165 451 114 q 585 329 560 215 q 581 493 608 443 q 439 543 553 543 q 281 493 336 543 q 203 329 226 443 q 208 165 178 215 q 347 114 238 114 z "},"ọ":{"ha":807,"x_min":15,"x_max":772,"o":"m 319 -14 q 85 75 156 -14 q 50 329 15 164 q 182 583 85 494 q 465 672 279 672 q 703 583 635 672 q 738 329 772 494 q 606 75 703 164 q 319 -14 508 -14 m 347 114 q 506 165 451 114 q 585 329 560 215 q 581 493 608 443 q 439 543 553 543 q 281 493 336 543 q 203 329 226 443 q 208 165 178 215 q 347 114 238 114 m 208 -240 l 233 -118 l 364 -118 l 339 -240 l 208 -240 z "},"ò":{"ha":807,"x_min":15,"x_max":772,"o":"m 424 725 l 361 971 l 493 971 l 546 725 l 424 725 m 319 -14 q 85 75 156 -14 q 50 329 15 164 q 182 583 85 494 q 465 672 279 672 q 703 583 635 672 q 738 329 772 494 q 606 75 703 164 q 319 -14 508 -14 m 347 114 q 506 165 451 114 q 585 329 560 215 q 581 493 608 443 q 439 543 553 543 q 281 493 336 543 q 203 329 226 443 q 208 165 178 215 q 347 114 238 114 z "},"ỏ":{"ha":807,"x_min":15,"x_max":772,"o":"m 419 724 l 444 838 q 553 857 525 842 q 588 907 581 872 q 496 965 599 965 q 449 960 475 965 q 404 949 424 956 l 421 1031 q 483 1044 446 1039 q 554 1049 519 1049 q 678 1014 640 1049 q 701 919 715 979 q 656 831 690 863 q 551 789 622 800 l 538 724 l 419 724 m 319 -14 q 85 75 156 -14 q 50 329 15 164 q 182 583 85 494 q 465 672 279 672 q 703 583 635 672 q 738 329 772 494 q 606 75 703 164 q 319 -14 508 -14 m 347 114 q 506 165 451 114 q 585 329 560 215 q 581 493 608 443 q 439 543 553 543 q 281 493 336 543 q 203 329 226 443 q 208 165 178 215 q 347 114 238 114 z "},"ơ":{"ha":938,"x_min":15,"x_max":993,"o":"m 319 -14 q 78 75 142 -14 q 50 329 15 164 q 187 583 85 494 q 465 672 289 672 q 615 649 556 672 q 708 582 674 626 q 823 619 788 583 q 876 744 858 656 l 993 744 q 906 554 967 614 q 746 481 844 494 q 749 410 750 449 q 738 329 747 372 q 601 75 703 164 q 319 -14 499 -14 m 347 114 q 506 165 451 114 q 585 329 560 215 q 576 493 608 443 q 439 543 543 543 q 281 493 336 543 q 203 329 226 443 q 211 165 178 215 q 347 114 244 114 z "},"ớ":{"ha":938,"x_min":15,"x_max":993,"o":"m 426 725 l 583 971 l 717 971 l 547 725 l 426 725 m 319 -14 q 78 75 142 -14 q 50 329 15 164 q 187 583 85 494 q 465 672 289 672 q 615 649 556 672 q 708 582 674 626 q 823 619 788 583 q 876 744 858 656 l 993 744 q 906 554 967 614 q 746 481 844 494 q 749 410 750 449 q 738 329 747 372 q 601 75 703 164 q 319 -14 499 -14 m 347 114 q 506 165 451 114 q 585 329 560 215 q 576 493 608 443 q 439 543 543 543 q 281 493 336 543 q 203 329 226 443 q 211 165 178 215 q 347 114 244 114 z "},"ợ":{"ha":938,"x_min":15,"x_max":993,"o":"m 319 -14 q 78 75 142 -14 q 50 329 15 164 q 187 583 85 494 q 465 672 289 672 q 615 649 556 672 q 708 582 674 626 q 823 619 788 583 q 876 744 858 656 l 993 744 q 906 554 967 614 q 746 481 844 494 q 749 410 750 449 q 738 329 747 372 q 601 75 703 164 q 319 -14 499 -14 m 347 114 q 506 165 451 114 q 585 329 560 215 q 576 493 608 443 q 439 543 543 543 q 281 493 336 543 q 203 329 226 443 q 211 165 178 215 q 347 114 244 114 m 215 -240 l 240 -118 l 371 -118 l 346 -240 l 215 -240 z "},"ờ":{"ha":938,"x_min":15,"x_max":993,"o":"m 438 725 l 375 971 l 507 971 l 560 725 l 438 725 m 319 -14 q 78 75 142 -14 q 50 329 15 164 q 187 583 85 494 q 465 672 289 672 q 615 649 556 672 q 708 582 674 626 q 823 619 788 583 q 876 744 858 656 l 993 744 q 906 554 967 614 q 746 481 844 494 q 749 410 750 449 q 738 329 747 372 q 601 75 703 164 q 319 -14 499 -14 m 347 114 q 506 165 451 114 q 585 329 560 215 q 576 493 608 443 q 439 543 543 543 q 281 493 336 543 q 203 329 226 443 q 211 165 178 215 q 347 114 244 114 z "},"ở":{"ha":938,"x_min":15,"x_max":993,"o":"m 415 724 l 440 838 q 549 857 521 842 q 583 907 576 872 q 492 965 594 965 q 445 960 471 965 q 400 949 419 956 l 417 1031 q 478 1044 442 1039 q 550 1049 515 1049 q 674 1014 636 1049 q 697 919 711 979 q 652 831 686 863 q 547 789 618 800 l 533 724 l 415 724 m 319 -14 q 78 75 142 -14 q 50 329 15 164 q 187 583 85 494 q 465 672 289 672 q 615 649 556 672 q 708 582 674 626 q 823 619 788 583 q 876 744 858 656 l 993 744 q 906 554 967 614 q 746 481 844 494 q 749 410 750 449 q 738 329 747 372 q 601 75 703 164 q 319 -14 499 -14 m 347 114 q 506 165 451 114 q 585 329 560 215 q 576 493 608 443 q 439 543 543 543 q 281 493 336 543 q 203 329 226 443 q 211 165 178 215 q 347 114 244 114 z "},"ỡ":{"ha":938,"x_min":15,"x_max":993,"o":"m 600 743 q 529 757 563 743 q 465 784 496 771 q 401 797 433 797 q 333 786 365 797 q 269 747 300 775 l 293 858 q 350 889 315 878 q 419 900 385 900 q 492 887 460 900 q 554 860 524 874 q 621 846 585 846 q 743 897 694 846 l 719 786 q 669 756 701 768 q 600 743 638 743 m 319 -14 q 78 75 142 -14 q 50 329 15 164 q 187 583 85 494 q 465 672 289 672 q 615 649 556 672 q 708 582 674 626 q 823 619 788 583 q 876 744 858 656 l 993 744 q 906 554 967 614 q 746 481 844 494 q 749 410 750 449 q 738 329 747 372 q 601 75 703 164 q 319 -14 499 -14 m 347 114 q 506 165 451 114 q 585 329 560 215 q 576 493 608 443 q 439 543 543 543 q 281 493 336 543 q 203 329 226 443 q 211 165 178 215 q 347 114 244 114 z "},"ő":{"ha":807,"x_min":15,"x_max":853,"o":"m 263 724 l 415 951 l 551 951 l 385 724 l 263 724 m 563 724 l 715 951 l 853 951 l 685 724 l 563 724 m 319 -14 q 85 75 156 -14 q 50 329 15 164 q 182 583 85 494 q 465 672 279 672 q 703 583 635 672 q 738 329 772 494 q 606 75 703 164 q 319 -14 508 -14 m 347 114 q 506 165 451 114 q 585 329 560 215 q 581 493 608 443 q 439 543 553 543 q 281 493 336 543 q 203 329 226 443 q 208 165 178 215 q 347 114 238 114 z "},"ō":{"ha":807,"x_min":15,"x_max":772,"o":"m 276 771 l 297 869 l 710 869 l 689 771 l 276 771 m 319 -14 q 85 75 156 -14 q 50 329 15 164 q 182 583 85 494 q 465 672 279 672 q 703 583 635 672 q 738 329 772 494 q 606 75 703 164 q 319 -14 508 -14 m 347 114 q 506 165 451 114 q 585 329 560 215 q 581 493 608 443 q 439 543 553 543 q 281 493 336 543 q 203 329 226 443 q 208 165 178 215 q 347 114 238 114 z "},"ø":{"ha":807,"x_min":0,"x_max":761,"o":"m 104 -75 l 158 17 q 50 329 0 93 q 182 583 85 494 q 465 672 279 672 q 503 671 485 672 q 539 667 522 669 l 578 733 l 681 733 l 626 642 q 734 526 707 606 q 738 329 761 446 q 606 75 703 164 q 319 -14 508 -14 q 281 -12 300 -14 q 246 -8 263 -11 l 207 -75 l 104 -75 m 231 140 l 465 542 q 453 542 460 542 q 439 543 446 543 q 282 493 336 543 q 203 329 228 443 q 192 210 188 257 q 231 140 197 164 m 347 114 q 506 165 451 114 q 585 329 560 215 q 595 449 600 403 q 554 518 590 496 l 318 115 q 333 114 325 114 q 347 114 340 114 z "},"ǿ":{"ha":807,"x_min":0,"x_max":761,"o":"m 390 725 l 547 971 l 681 971 l 511 725 l 390 725 m 104 -75 l 158 17 q 50 329 0 93 q 182 583 85 494 q 465 672 279 672 q 503 671 485 672 q 539 667 522 669 l 578 733 l 681 733 l 626 642 q 734 526 707 606 q 738 329 761 446 q 606 75 703 164 q 319 -14 508 -14 q 281 -12 300 -14 q 246 -8 263 -11 l 207 -75 l 104 -75 m 231 140 l 465 542 q 453 542 460 542 q 439 543 446 543 q 282 493 336 543 q 203 329 228 443 q 192 210 188 257 q 231 140 197 164 m 347 114 q 506 165 451 114 q 585 329 560 215 q 595 449 600 403 q 554 518 590 496 l 318 115 q 333 114 325 114 q 347 114 340 114 z "},"õ":{"ha":807,"x_min":15,"x_max":772,"o":"m 594 757 q 524 771 557 757 q 459 798 490 785 q 396 811 428 811 q 327 800 360 811 q 264 761 294 789 l 288 872 q 344 903 310 892 q 414 914 379 914 q 486 901 454 914 q 549 874 518 888 q 615 860 579 860 q 738 911 689 860 l 714 800 q 664 769 696 782 q 594 757 632 757 m 319 -14 q 85 75 156 -14 q 50 329 15 164 q 182 583 85 494 q 465 672 279 672 q 703 583 635 672 q 738 329 772 494 q 606 75 703 164 q 319 -14 508 -14 m 347 114 q 506 165 451 114 q 585 329 560 215 q 581 493 608 443 q 439 543 553 543 q 281 493 336 543 q 203 329 226 443 q 208 165 178 215 q 347 114 238 114 z "},"œ":{"ha":1288,"x_min":15,"x_max":1247,"o":"m 319 -14 q 85 75 156 -14 q 50 329 15 164 q 182 583 85 494 q 465 672 279 672 q 612 647 556 672 q 701 572 668 621 q 824 647 750 621 q 989 672 897 672 q 1146 635 1088 672 q 1226 533 1204 597 q 1231 392 1247 469 l 1206 269 l 724 269 q 760 138 714 174 q 935 101 806 101 q 1039 111 985 101 q 1136 136 1093 121 l 1113 25 q 1004 -4 1064 6 q 879 -14 944 -14 q 724 12 790 -14 q 621 89 657 38 q 495 13 569 39 q 319 -14 421 -14 m 744 368 l 1093 368 l 1103 414 q 1091 520 1118 482 q 969 558 1064 558 q 815 513 864 558 q 744 368 765 467 m 347 114 q 506 165 451 114 q 585 329 560 215 q 581 493 608 443 q 439 543 553 543 q 281 493 336 543 q 203 329 226 443 q 208 165 178 215 q 347 114 238 114 z "},"p":{"ha":810,"x_min":-54,"x_max":765,"o":"m -54 -300 l 149 658 l 279 658 l 274 593 q 383 653 326 633 q 513 672 440 672 q 661 636 601 672 q 743 524 721 600 q 740 329 765 449 q 610 69 703 151 q 361 -14 517 -14 q 169 42 242 -14 l 97 -300 l -54 -300 m 347 100 q 503 154 444 100 q 588 331 561 208 q 586 502 613 447 q 449 557 560 557 q 264 488 346 557 l 194 158 q 256 116 219 132 q 347 100 293 100 z "},"þ":{"ha":810,"x_min":-54,"x_max":776,"o":"m -54 -300 l 215 972 l 367 972 l 292 615 q 511 672 388 672 q 712 585 647 672 q 740 329 776 499 q 608 69 701 151 q 361 -14 514 -14 q 169 42 242 -14 l 97 -300 l -54 -300 m 347 100 q 503 154 444 100 q 588 331 561 208 q 584 502 613 447 q 449 557 556 557 q 264 488 346 557 l 194 158 q 256 116 219 132 q 347 100 293 100 z "},"q":{"ha":799,"x_min":15,"x_max":781,"o":"m 594 -336 q 475 -292 513 -336 q 457 -153 438 -247 l 499 42 q 282 -14 401 -14 q 81 72 147 -14 q 50 329 15 158 q 181 590 86 507 q 424 672 276 672 q 544 653 496 672 q 628 593 592 633 l 651 658 l 781 658 l 611 -142 q 613 -201 601 -185 q 665 -218 624 -218 q 696 -215 679 -218 q 725 -210 713 -212 l 703 -319 q 652 -332 676 -328 q 594 -336 628 -336 m 346 100 q 443 116 400 100 q 524 158 486 132 l 593 488 q 440 557 540 557 q 283 502 339 557 q 203 331 228 447 q 210 154 176 208 q 346 100 243 100 z "},"r":{"ha":500,"x_min":10,"x_max":540,"o":"m 10 0 l 149 658 l 288 658 l 281 582 q 403 638 333 613 q 540 672 474 663 l 517 557 q 428 537 476 550 q 336 508 381 524 q 261 475 292 492 l 161 0 l 10 0 z "},"ŕ":{"ha":511,"x_min":10,"x_max":540,"o":"m 169 725 l 326 971 l 460 971 l 290 725 l 169 725 m 10 0 l 149 658 l 288 658 l 281 582 q 403 638 333 613 q 540 672 474 663 l 517 557 q 428 537 476 550 q 336 508 381 524 q 261 475 292 492 l 161 0 l 10 0 z "},"ř":{"ha":510,"x_min":8,"x_max":539,"o":"m 210 724 l 85 947 l 203 947 l 276 807 l 411 947 l 536 947 l 315 724 l 210 724 m 8 0 l 147 658 l 286 658 l 279 582 q 402 638 332 613 q 539 672 472 663 l 515 557 q 427 537 475 550 q 335 508 379 524 q 260 475 290 492 l 160 0 l 8 0 z "},"ŗ":{"ha":510,"x_min":-89,"x_max":539,"o":"m 8 0 l 147 658 l 286 658 l 279 582 q 402 638 332 613 q 539 672 472 663 l 515 557 q 427 537 475 550 q 335 508 379 524 q 260 475 290 492 l 160 0 l 8 0 m -89 -314 l 7 -51 l 132 -51 l 11 -314 l -89 -314 z "},"ṛ":{"ha":511,"x_min":-32,"x_max":540,"o":"m 10 0 l 149 658 l 288 658 l 281 582 q 403 638 333 613 q 540 672 474 663 l 517 557 q 428 537 476 550 q 336 508 381 524 q 261 475 292 492 l 161 0 l 10 0 m -32 -240 l -7 -118 l 124 -118 l 99 -240 l -32 -240 z "},"ṝ":{"ha":515,"x_min":-26,"x_max":544,"o":"m 99 765 l 119 864 l 532 864 l 511 765 l 99 765 m 14 0 l 153 658 l 292 658 l 285 582 q 408 638 338 613 q 544 672 478 663 l 521 557 q 433 537 481 550 q 340 508 385 524 q 265 475 296 492 l 165 0 l 14 0 m -26 -240 l -1 -118 l 129 -118 l 104 -240 l -26 -240 z "},"ṟ":{"ha":510,"x_min":-153,"x_max":539,"o":"m 8 0 l 147 658 l 286 658 l 279 582 q 402 638 332 613 q 539 672 472 663 l 515 557 q 427 537 475 550 q 335 508 379 524 q 260 475 290 492 l 160 0 l 8 0 m -153 -199 l -132 -100 l 281 -100 l 260 -199 l -153 -199 z "},"s":{"ha":646,"x_min":0,"x_max":589,"o":"m 225 -14 q 97 -4 157 -14 q 0 19 38 6 l 28 147 q 126 119 71 129 q 232 110 181 110 q 346 124 310 110 q 392 178 382 138 q 382 224 399 207 q 328 254 365 240 q 233 288 290 268 q 141 330 179 307 q 88 389 103 353 q 83 483 72 425 q 175 623 103 574 q 399 672 247 672 q 505 664 456 672 q 589 643 554 656 l 563 517 q 482 540 528 532 q 396 549 436 549 q 285 536 324 549 q 238 486 246 524 q 264 431 229 447 q 378 388 299 415 q 490 338 450 364 q 543 274 531 311 q 543 179 556 238 q 448 34 522 82 q 225 -14 374 -14 z "},"ś":{"ha":646,"x_min":0,"x_max":613,"o":"m 322 725 l 479 971 l 613 971 l 443 725 l 322 725 m 225 -14 q 97 -4 157 -14 q 0 19 38 6 l 28 147 q 126 119 71 129 q 232 110 181 110 q 346 124 310 110 q 392 178 382 138 q 382 224 399 207 q 328 254 365 240 q 233 288 290 268 q 141 330 179 307 q 88 389 103 353 q 83 483 72 425 q 175 623 103 574 q 399 672 247 672 q 505 664 456 672 q 589 643 554 656 l 563 517 q 482 540 528 532 q 396 549 436 549 q 285 536 324 549 q 238 486 246 524 q 264 431 229 447 q 378 388 299 415 q 490 338 450 364 q 543 274 531 311 q 543 179 556 238 q 448 34 522 82 q 225 -14 374 -14 z "},"š":{"ha":646,"x_min":0,"x_max":674,"o":"m 347 724 l 222 947 l 340 947 l 414 807 l 549 947 l 674 947 l 453 724 l 347 724 m 225 -14 q 97 -4 157 -14 q 0 19 38 6 l 28 147 q 126 119 71 129 q 232 110 181 110 q 346 124 310 110 q 392 178 382 138 q 382 224 399 207 q 328 254 365 240 q 233 288 290 268 q 141 330 179 307 q 88 389 103 353 q 83 483 72 425 q 175 623 103 574 q 399 672 247 672 q 505 664 456 672 q 589 643 554 656 l 563 517 q 482 540 528 532 q 396 549 436 549 q 285 536 324 549 q 238 486 246 524 q 264 431 229 447 q 378 388 299 415 q 490 338 450 364 q 543 274 531 311 q 543 179 556 238 q 448 34 522 82 q 225 -14 374 -14 z "},"ş":{"ha":646,"x_min":0,"x_max":589,"o":"m 142 -333 q 89 -330 119 -333 q 43 -322 58 -326 l 61 -240 q 144 -251 99 -251 q 237 -240 207 -251 q 275 -189 267 -228 q 256 -141 282 -150 q 175 -132 229 -132 l 119 -132 l 181 -12 q 78 -1 125 -10 q 0 19 32 7 l 28 147 q 126 119 71 129 q 232 110 181 110 q 346 124 310 110 q 392 178 382 138 q 382 224 399 207 q 328 254 365 240 q 233 288 290 268 q 141 330 179 307 q 88 389 103 353 q 83 483 72 425 q 175 623 103 574 q 399 672 247 672 q 505 664 456 672 q 589 643 554 656 l 563 517 q 482 540 528 532 q 396 549 436 549 q 285 536 324 549 q 238 486 246 524 q 264 431 229 447 q 378 388 299 415 q 490 338 450 364 q 543 274 531 311 q 543 179 556 238 q 463 44 525 90 q 282 -11 401 -3 l 254 -65 q 358 -99 328 -65 q 376 -190 389 -132 q 305 -296 363 -258 q 142 -333 247 -333 z "},"ŝ":{"ha":646,"x_min":0,"x_max":631,"o":"m 179 731 l 399 954 l 504 954 l 631 731 l 514 731 l 438 871 l 306 731 l 179 731 m 225 -14 q 97 -4 157 -14 q 0 19 38 6 l 28 147 q 126 119 71 129 q 232 110 181 110 q 346 124 310 110 q 392 178 382 138 q 382 224 399 207 q 328 254 365 240 q 233 288 290 268 q 141 330 179 307 q 88 389 103 353 q 83 483 72 425 q 175 623 103 574 q 399 672 247 672 q 505 664 456 672 q 589 643 554 656 l 563 517 q 482 540 528 532 q 396 549 436 549 q 285 536 324 549 q 238 486 246 524 q 264 431 229 447 q 378 388 299 415 q 490 338 450 364 q 543 274 531 311 q 543 179 556 238 q 448 34 522 82 q 225 -14 374 -14 z "},"ș":{"ha":646,"x_min":0,"x_max":589,"o":"m 225 -14 q 97 -4 157 -14 q 0 19 38 6 l 28 147 q 126 119 71 129 q 232 110 181 110 q 346 124 310 110 q 392 178 382 138 q 382 224 399 207 q 328 254 365 240 q 233 288 290 268 q 141 330 179 307 q 88 389 103 353 q 83 483 72 425 q 175 623 103 574 q 399 672 247 672 q 505 664 456 672 q 589 643 554 656 l 563 517 q 482 540 528 532 q 396 549 436 549 q 285 536 324 549 q 238 486 246 524 q 264 431 229 447 q 378 388 299 415 q 490 338 450 364 q 543 274 531 311 q 543 179 556 238 q 448 34 522 82 q 225 -14 374 -14 m 76 -310 l 167 -69 l 299 -69 l 192 -310 l 76 -310 z "},"ṡ":{"ha":646,"x_min":0,"x_max":589,"o":"m 344 757 l 371 879 l 499 879 l 472 757 l 344 757 m 225 -14 q 97 -4 157 -14 q 0 19 38 6 l 28 147 q 126 119 71 129 q 232 110 181 110 q 346 124 310 110 q 392 178 382 138 q 382 224 399 207 q 328 254 365 240 q 233 288 290 268 q 141 330 179 307 q 88 389 103 353 q 83 483 72 425 q 175 623 103 574 q 399 672 247 672 q 505 664 456 672 q 589 643 554 656 l 563 517 q 482 540 528 532 q 396 549 436 549 q 285 536 324 549 q 238 486 246 524 q 264 431 229 447 q 378 388 299 415 q 490 338 450 364 q 543 274 531 311 q 543 179 556 238 q 448 34 522 82 q 225 -14 374 -14 z "},"ṣ":{"ha":646,"x_min":0,"x_max":589,"o":"m 225 -14 q 97 -4 157 -14 q 0 19 38 6 l 28 147 q 126 119 71 129 q 232 110 181 110 q 346 124 310 110 q 392 178 382 138 q 382 224 399 207 q 328 254 365 240 q 233 288 290 268 q 141 330 179 307 q 88 389 103 353 q 83 483 72 425 q 175 623 103 574 q 399 672 247 672 q 505 664 456 672 q 589 643 554 656 l 563 517 q 482 540 528 532 q 396 549 436 549 q 285 536 324 549 q 238 486 246 524 q 264 431 229 447 q 378 388 299 415 q 490 338 450 364 q 543 274 531 311 q 543 179 556 238 q 448 34 522 82 q 225 -14 374 -14 m 140 -240 l 165 -118 l 296 -118 l 271 -240 l 140 -240 z "},"ß":{"ha":874,"x_min":1,"x_max":864,"o":"m 447 -14 q 254 17 329 -14 l 282 144 q 357 122 314 129 q 447 114 400 114 q 572 153 521 114 q 640 268 624 193 q 624 385 656 346 q 500 424 592 424 l 392 424 l 417 539 l 524 539 q 648 581 604 539 q 706 692 692 624 q 704 772 715 738 q 653 824 693 806 q 533 843 613 843 q 366 792 428 843 q 281 632 304 740 l 147 0 l 1 0 l 136 636 q 275 883 169 793 q 560 972 381 972 q 745 933 676 972 q 839 831 814 894 q 847 692 864 767 q 792 558 832 615 q 690 476 751 501 q 779 395 753 456 q 790 260 806 335 q 674 58 764 131 q 447 -14 585 -14 z "},"t":{"ha":500,"x_min":68,"x_max":515,"o":"m 257 -14 q 111 42 151 -14 q 92 196 71 99 l 165 540 l 68 540 l 93 658 l 190 658 l 222 810 l 382 856 l 340 658 l 515 658 l 481 540 l 315 540 l 244 204 q 251 121 231 140 q 335 101 272 101 q 417 115 374 101 l 394 8 q 257 -14 333 -14 z "},"ŧ":{"ha":506,"x_min":19,"x_max":515,"o":"m 257 -14 q 111 42 151 -14 q 92 196 71 99 l 111 288 l 19 288 l 42 392 l 133 392 l 165 540 l 68 540 l 93 658 l 190 658 l 222 810 l 382 856 l 340 658 l 515 658 l 481 540 l 315 540 l 283 392 l 457 392 l 435 288 l 261 288 l 244 204 q 253 124 232 147 q 335 101 275 101 q 417 115 374 101 l 394 8 q 257 -14 333 -14 z "},"ť":{"ha":531,"x_min":68,"x_max":736,"o":"m 515 776 l 611 1039 l 736 1039 l 615 776 l 515 776 m 257 -14 q 111 42 151 -14 q 92 196 71 99 l 165 540 l 68 540 l 93 658 l 190 658 l 222 810 l 382 856 l 340 658 l 515 658 l 481 540 l 315 540 l 244 204 q 251 121 231 140 q 335 101 272 101 q 417 115 374 101 l 394 8 q 257 -14 333 -14 z "},"ţ":{"ha":519,"x_min":47,"x_max":515,"o":"m 146 -333 q 93 -330 124 -333 q 47 -322 63 -326 l 65 -240 q 149 -251 103 -251 q 241 -240 211 -251 q 279 -189 271 -228 q 260 -141 286 -150 q 179 -132 233 -132 l 124 -132 l 188 -6 q 97 63 121 11 q 92 196 74 115 l 165 540 l 68 540 l 93 658 l 190 658 l 222 810 l 382 856 l 340 658 l 515 658 l 481 540 l 315 540 l 244 204 q 251 121 231 140 q 335 101 272 101 q 417 115 374 101 l 394 8 q 342 -6 368 -1 q 286 -12 317 -11 l 258 -65 q 363 -99 332 -65 q 381 -190 393 -132 q 309 -296 367 -258 q 146 -333 251 -333 z "},"ț":{"ha":506,"x_min":68,"x_max":515,"o":"m 257 -14 q 111 42 151 -14 q 92 196 71 99 l 165 540 l 68 540 l 93 658 l 190 658 l 222 810 l 382 856 l 340 658 l 515 658 l 481 540 l 315 540 l 244 204 q 251 121 231 140 q 335 101 272 101 q 417 115 374 101 l 394 8 q 257 -14 333 -14 m 72 -325 l 168 -62 l 293 -62 l 172 -325 l 72 -325 z "},"ẗ":{"ha":506,"x_min":68,"x_max":556,"o":"m 144 893 l 171 1013 l 297 1013 l 271 893 l 144 893 m 401 893 l 428 1013 l 556 1013 l 529 893 l 401 893 m 257 -14 q 111 42 151 -14 q 92 196 71 99 l 165 540 l 68 540 l 93 658 l 190 658 l 222 810 l 382 856 l 340 658 l 515 658 l 481 540 l 315 540 l 244 204 q 251 121 231 140 q 335 101 272 101 q 417 115 374 101 l 394 8 q 257 -14 333 -14 z "},"ṭ":{"ha":506,"x_min":68,"x_max":515,"o":"m 257 -14 q 111 42 151 -14 q 92 196 71 99 l 165 540 l 68 540 l 93 658 l 190 658 l 222 810 l 382 856 l 340 658 l 515 658 l 481 540 l 315 540 l 244 204 q 251 121 231 140 q 335 101 272 101 q 417 115 374 101 l 394 8 q 257 -14 333 -14 m 121 -231 l 146 -108 l 276 -108 l 251 -231 l 121 -231 z "},"ṯ":{"ha":504,"x_min":-47,"x_max":515,"o":"m 257 -14 q 111 42 151 -14 q 92 196 71 99 l 165 540 l 68 540 l 93 658 l 190 658 l 222 810 l 382 856 l 340 658 l 515 658 l 481 540 l 315 540 l 244 204 q 251 121 231 140 q 335 101 272 101 q 417 115 374 101 l 394 8 q 257 -14 333 -14 m -47 -189 l -26 -90 l 386 -90 l 365 -189 l -47 -189 z "},"u":{"ha":804,"x_min":28,"x_max":775,"o":"m 243 -14 q 81 51 133 -14 q 54 243 28 117 l 142 658 l 293 658 l 206 243 q 215 131 189 163 q 322 100 242 100 q 429 121 378 100 q 522 176 481 142 l 625 658 l 775 658 l 636 0 l 499 0 l 506 68 q 388 10 454 33 q 243 -14 321 -14 z "},"ú":{"ha":804,"x_min":28,"x_max":775,"o":"m 392 725 l 549 971 l 682 971 l 513 725 l 392 725 m 243 -14 q 81 51 133 -14 q 54 243 28 117 l 142 658 l 293 658 l 206 243 q 215 131 189 163 q 322 100 242 100 q 429 121 378 100 q 522 176 481 142 l 625 658 l 775 658 l 636 0 l 499 0 l 506 68 q 388 10 454 33 q 243 -14 321 -14 z "},"ŭ":{"ha":804,"x_min":28,"x_max":775,"o":"m 475 725 q 344 778 383 725 q 322 921 304 832 l 419 921 q 424 844 410 874 q 490 815 438 815 q 569 844 538 815 q 610 921 600 874 l 717 921 q 633 778 699 832 q 475 725 568 725 m 243 -14 q 81 51 133 -14 q 54 243 28 117 l 142 658 l 293 658 l 206 243 q 215 131 189 163 q 322 100 242 100 q 429 121 378 100 q 522 176 481 142 l 625 658 l 775 658 l 636 0 l 499 0 l 506 68 q 388 10 454 33 q 243 -14 321 -14 z "},"ǔ":{"ha":804,"x_min":28,"x_max":775,"o":"m 419 724 l 294 947 l 413 947 l 486 807 l 621 947 l 746 947 l 525 724 l 419 724 m 243 -14 q 81 51 133 -14 q 54 243 28 117 l 142 658 l 293 658 l 206 243 q 215 131 189 163 q 322 100 242 100 q 429 121 378 100 q 522 176 481 142 l 625 658 l 775 658 l 636 0 l 499 0 l 506 68 q 388 10 454 33 q 243 -14 321 -14 z "},"û":{"ha":804,"x_min":28,"x_max":775,"o":"m 246 724 l 465 947 l 571 947 l 697 724 l 581 724 l 504 864 l 372 724 l 246 724 m 243 -14 q 81 51 133 -14 q 54 243 28 117 l 142 658 l 293 658 l 206 243 q 215 131 189 163 q 322 100 242 100 q 429 121 378 100 q 522 176 481 142 l 625 658 l 775 658 l 636 0 l 499 0 l 506 68 q 388 10 454 33 q 243 -14 321 -14 z "},"ü":{"ha":804,"x_min":28,"x_max":775,"o":"m 283 756 l 310 875 l 436 875 l 410 756 l 283 756 m 540 756 l 567 875 l 694 875 l 668 756 l 540 756 m 243 -14 q 81 51 133 -14 q 54 243 28 117 l 142 658 l 293 658 l 206 243 q 215 131 189 163 q 322 100 242 100 q 429 121 378 100 q 522 176 481 142 l 625 658 l 775 658 l 636 0 l 499 0 l 506 68 q 388 10 454 33 q 243 -14 321 -14 z "},"ǘ":{"ha":804,"x_min":28,"x_max":775,"o":"m 439 861 l 561 1038 l 676 1038 l 546 861 l 439 861 m 268 725 l 293 842 l 417 842 l 392 725 l 268 725 m 543 725 l 568 842 l 692 842 l 667 725 l 543 725 m 243 -14 q 81 51 133 -14 q 54 243 28 117 l 142 658 l 293 658 l 206 243 q 215 131 189 163 q 322 100 242 100 q 429 121 378 100 q 522 176 481 142 l 625 658 l 775 658 l 636 0 l 499 0 l 506 68 q 388 10 454 33 q 243 -14 321 -14 z "},"ǚ":{"ha":804,"x_min":28,"x_max":775,"o":"m 450 857 l 329 1024 l 443 1024 l 514 915 l 629 1024 l 749 1024 l 560 857 l 450 857 m 272 724 l 297 840 l 422 840 l 397 724 l 272 724 m 549 724 l 574 840 l 696 840 l 671 724 l 549 724 m 243 -14 q 81 51 133 -14 q 54 243 28 117 l 142 658 l 293 658 l 206 243 q 215 131 189 163 q 322 100 242 100 q 429 121 378 100 q 522 176 481 142 l 625 658 l 775 658 l 636 0 l 499 0 l 506 68 q 388 10 454 33 q 243 -14 321 -14 z "},"ǜ":{"ha":804,"x_min":28,"x_max":775,"o":"m 456 861 l 400 1038 l 517 1038 l 563 861 l 456 861 m 278 725 l 303 842 l 426 842 l 401 725 l 278 725 m 553 725 l 578 842 l 701 842 l 676 725 l 553 725 m 243 -14 q 81 51 133 -14 q 54 243 28 117 l 142 658 l 293 658 l 206 243 q 215 131 189 163 q 322 100 242 100 q 429 121 378 100 q 522 176 481 142 l 625 658 l 775 658 l 636 0 l 499 0 l 506 68 q 388 10 454 33 q 243 -14 321 -14 z "},"ǖ":{"ha":804,"x_min":28,"x_max":775,"o":"m 318 940 l 339 1039 l 751 1039 l 731 940 l 318 940 m 290 747 l 317 867 l 443 867 l 417 747 l 290 747 m 547 747 l 574 867 l 701 867 l 675 747 l 547 747 m 243 -14 q 81 51 133 -14 q 54 243 28 117 l 142 658 l 293 658 l 206 243 q 215 131 189 163 q 322 100 242 100 q 429 121 378 100 q 522 176 481 142 l 625 658 l 775 658 l 636 0 l 499 0 l 506 68 q 388 10 454 33 q 243 -14 321 -14 z "},"ụ":{"ha":804,"x_min":28,"x_max":775,"o":"m 243 -14 q 81 51 133 -14 q 54 243 28 117 l 142 658 l 293 658 l 206 243 q 215 131 189 163 q 322 100 242 100 q 429 121 378 100 q 522 176 481 142 l 625 658 l 775 658 l 636 0 l 499 0 l 506 68 q 388 10 454 33 q 243 -14 321 -14 m 196 -240 l 221 -118 l 351 -118 l 326 -240 l 196 -240 z "},"ù":{"ha":804,"x_min":28,"x_max":775,"o":"m 428 725 l 365 971 l 497 971 l 550 725 l 428 725 m 243 -14 q 81 51 133 -14 q 54 243 28 117 l 142 658 l 293 658 l 206 243 q 215 131 189 163 q 322 100 242 100 q 429 121 378 100 q 522 176 481 142 l 625 658 l 775 658 l 636 0 l 499 0 l 506 68 q 388 10 454 33 q 243 -14 321 -14 z "},"ủ":{"ha":804,"x_min":28,"x_max":775,"o":"m 411 724 l 436 838 q 544 857 517 842 q 579 907 572 872 q 488 965 590 965 q 441 960 467 965 q 396 949 415 956 l 413 1031 q 474 1044 438 1039 q 546 1049 511 1049 q 669 1014 632 1049 q 693 919 707 979 q 648 831 682 863 q 543 789 614 800 l 529 724 l 411 724 m 243 -14 q 81 51 133 -14 q 54 243 28 117 l 142 658 l 293 658 l 206 243 q 215 131 189 163 q 322 100 242 100 q 429 121 378 100 q 522 176 481 142 l 625 658 l 775 658 l 636 0 l 499 0 l 506 68 q 388 10 454 33 q 243 -14 321 -14 z "},"ư":{"ha":975,"x_min":28,"x_max":1024,"o":"m 243 -14 q 76 51 125 -14 q 54 243 28 117 l 142 658 l 293 658 l 206 243 q 219 135 190 169 q 322 100 247 100 q 429 121 378 100 q 522 176 481 142 l 625 658 l 775 658 l 760 582 q 859 625 828 588 q 907 744 890 663 l 1024 744 q 924 544 994 606 q 738 478 854 482 l 636 0 l 499 0 l 506 68 q 388 10 454 33 q 243 -14 321 -14 z "},"ứ":{"ha":975,"x_min":28,"x_max":1024,"o":"m 419 725 l 576 971 l 710 971 l 540 725 l 419 725 m 243 -14 q 76 51 125 -14 q 54 243 28 117 l 142 658 l 293 658 l 206 243 q 219 135 190 169 q 322 100 247 100 q 429 121 378 100 q 522 176 481 142 l 625 658 l 775 658 l 760 582 q 859 625 828 588 q 907 744 890 663 l 1024 744 q 924 544 994 606 q 738 478 854 482 l 636 0 l 499 0 l 506 68 q 388 10 454 33 q 243 -14 321 -14 z "},"ự":{"ha":975,"x_min":28,"x_max":1024,"o":"m 243 -14 q 76 51 125 -14 q 54 243 28 117 l 142 658 l 293 658 l 206 243 q 219 135 190 169 q 322 100 247 100 q 429 121 378 100 q 522 176 481 142 l 625 658 l 775 658 l 760 582 q 859 625 828 588 q 907 744 890 663 l 1024 744 q 924 544 994 606 q 738 478 854 482 l 636 0 l 499 0 l 506 68 q 388 10 454 33 q 243 -14 321 -14 m 203 -240 l 228 -118 l 358 -118 l 333 -240 l 203 -240 z "},"ừ":{"ha":975,"x_min":28,"x_max":1024,"o":"m 429 725 l 367 971 l 499 971 l 551 725 l 429 725 m 243 -14 q 76 51 125 -14 q 54 243 28 117 l 142 658 l 293 658 l 206 243 q 219 135 190 169 q 322 100 247 100 q 429 121 378 100 q 522 176 481 142 l 625 658 l 775 658 l 760 582 q 859 625 828 588 q 907 744 890 663 l 1024 744 q 924 544 994 606 q 738 478 854 482 l 636 0 l 499 0 l 506 68 q 388 10 454 33 q 243 -14 321 -14 z "},"ử":{"ha":975,"x_min":28,"x_max":1024,"o":"m 419 724 l 444 838 q 553 857 525 842 q 588 907 581 872 q 496 965 599 965 q 449 960 475 965 q 404 949 424 956 l 421 1031 q 483 1044 446 1039 q 554 1049 519 1049 q 678 1014 640 1049 q 701 919 715 979 q 656 831 690 863 q 551 789 622 800 l 538 724 l 419 724 m 243 -14 q 76 51 125 -14 q 54 243 28 117 l 142 658 l 293 658 l 206 243 q 219 135 190 169 q 322 100 247 100 q 429 121 378 100 q 522 176 481 142 l 625 658 l 775 658 l 760 582 q 859 625 828 588 q 907 744 890 663 l 1024 744 q 924 544 994 606 q 738 478 854 482 l 636 0 l 499 0 l 506 68 q 388 10 454 33 q 243 -14 321 -14 z "},"ữ":{"ha":975,"x_min":28,"x_max":1024,"o":"m 599 743 q 528 757 561 743 q 463 784 494 771 q 400 797 432 797 q 331 786 364 797 q 268 747 299 775 l 292 858 q 349 889 314 878 q 418 900 383 900 q 490 887 458 900 q 553 860 522 874 q 619 846 583 846 q 742 897 693 846 l 718 786 q 668 756 700 768 q 599 743 636 743 m 243 -14 q 76 51 125 -14 q 54 243 28 117 l 142 658 l 293 658 l 206 243 q 219 135 190 169 q 322 100 247 100 q 429 121 378 100 q 522 176 481 142 l 625 658 l 775 658 l 760 582 q 859 625 828 588 q 907 744 890 663 l 1024 744 q 924 544 994 606 q 738 478 854 482 l 636 0 l 499 0 l 506 68 q 388 10 454 33 q 243 -14 321 -14 z "},"ű":{"ha":804,"x_min":28,"x_max":813,"o":"m 222 724 l 375 951 l 511 951 l 344 724 l 222 724 m 522 724 l 675 951 l 813 951 l 644 724 l 522 724 m 243 -14 q 81 51 133 -14 q 54 243 28 117 l 142 658 l 293 658 l 206 243 q 215 131 189 163 q 322 100 242 100 q 429 121 378 100 q 522 176 481 142 l 625 658 l 775 658 l 636 0 l 499 0 l 506 68 q 388 10 454 33 q 243 -14 321 -14 z "},"ū":{"ha":804,"x_min":28,"x_max":775,"o":"m 276 771 l 297 869 l 710 869 l 689 771 l 276 771 m 243 -14 q 81 51 133 -14 q 54 243 28 117 l 142 658 l 293 658 l 206 243 q 215 131 189 163 q 322 100 242 100 q 429 121 378 100 q 522 176 481 142 l 625 658 l 775 658 l 636 0 l 499 0 l 506 68 q 388 10 454 33 q 243 -14 321 -14 z "},"ų":{"ha":829,"x_min":28,"x_max":775,"o":"m 504 -306 q 406 -276 444 -306 q 382 -182 368 -246 q 428 -78 393 -129 q 499 0 464 -28 l 506 68 q 388 10 454 33 q 243 -14 321 -14 q 81 51 133 -14 q 54 243 28 117 l 142 658 l 293 658 l 206 243 q 215 131 189 163 q 322 100 242 100 q 429 121 378 100 q 522 176 481 142 l 625 658 l 775 658 l 636 0 q 551 -74 585 -35 q 508 -156 517 -114 q 516 -199 501 -187 q 561 -211 531 -211 q 599 -207 578 -211 q 633 -196 619 -203 l 614 -287 q 565 -301 594 -296 q 504 -306 535 -306 z "},"ů":{"ha":804,"x_min":28,"x_max":775,"o":"m 465 724 q 359 769 393 724 q 338 881 325 815 q 403 993 353 947 q 532 1039 453 1039 q 642 993 607 1039 q 663 881 678 947 q 597 769 649 815 q 465 724 544 724 m 482 799 q 549 822 521 799 q 583 881 576 846 q 576 939 590 915 q 517 963 561 963 q 452 939 481 963 q 417 881 424 915 q 424 822 410 846 q 482 799 439 799 m 243 -14 q 81 51 133 -14 q 54 243 28 117 l 142 658 l 293 658 l 206 243 q 215 131 189 163 q 322 100 242 100 q 429 121 378 100 q 522 176 481 142 l 625 658 l 775 658 l 636 0 l 499 0 l 506 68 q 388 10 454 33 q 243 -14 321 -14 z "},"ũ":{"ha":804,"x_min":28,"x_max":775,"o":"m 589 746 q 518 760 551 746 q 453 787 485 774 q 390 800 422 800 q 322 789 354 800 q 258 750 289 778 l 282 861 q 339 892 304 881 q 408 903 374 903 q 481 890 449 903 q 543 863 513 876 q 610 849 574 849 q 732 900 683 849 l 708 789 q 658 758 690 771 q 589 746 626 746 m 243 -14 q 81 51 133 -14 q 54 243 28 117 l 142 658 l 293 658 l 206 243 q 215 131 189 163 q 322 100 242 100 q 429 121 378 100 q 522 176 481 142 l 625 658 l 775 658 l 636 0 l 499 0 l 506 68 q 388 10 454 33 q 243 -14 321 -14 z "},"v":{"ha":803,"x_min":121,"x_max":803,"o":"m 242 0 l 121 658 l 272 658 l 349 147 l 642 658 l 803 658 l 406 0 l 242 0 z "},"w":{"ha":1036,"x_min":121,"x_max":1038,"o":"m 156 0 l 121 658 l 272 658 l 285 179 l 499 578 l 515 658 l 631 658 l 672 179 l 888 658 l 1038 658 l 726 0 l 589 0 l 539 431 l 306 0 l 156 0 z "},"ẃ":{"ha":1036,"x_min":121,"x_max":1038,"o":"m 526 725 l 683 971 l 817 971 l 647 725 l 526 725 m 156 0 l 121 658 l 272 658 l 285 179 l 499 578 l 515 658 l 631 658 l 672 179 l 888 658 l 1038 658 l 726 0 l 589 0 l 539 431 l 306 0 l 156 0 z "},"ŵ":{"ha":1036,"x_min":121,"x_max":1038,"o":"m 369 724 l 589 947 l 694 947 l 821 724 l 704 724 l 628 864 l 496 724 l 369 724 m 156 0 l 121 658 l 272 658 l 285 179 l 499 578 l 515 658 l 631 658 l 672 179 l 888 658 l 1038 658 l 726 0 l 589 0 l 539 431 l 306 0 l 156 0 z "},"ẅ":{"ha":1036,"x_min":121,"x_max":1038,"o":"m 410 756 l 436 875 l 563 875 l 536 756 l 410 756 m 667 756 l 693 875 l 821 875 l 794 756 l 667 756 m 156 0 l 121 658 l 272 658 l 285 179 l 499 578 l 515 658 l 631 658 l 672 179 l 888 658 l 1038 658 l 726 0 l 589 0 l 539 431 l 306 0 l 156 0 z "},"ẁ":{"ha":1036,"x_min":121,"x_max":1038,"o":"m 524 725 l 461 971 l 593 971 l 646 725 l 524 725 m 156 0 l 121 658 l 272 658 l 285 179 l 499 578 l 515 658 l 631 658 l 672 179 l 888 658 l 1038 658 l 726 0 l 589 0 l 539 431 l 306 0 l 156 0 z "},"x":{"ha":750,"x_min":-37,"x_max":758,"o":"m -37 0 l 285 335 l 111 658 l 274 658 l 389 439 l 596 658 l 758 658 l 450 335 l 629 0 l 465 0 l 344 229 l 126 0 l -37 0 z "},"y":{"ha":831,"x_min":22,"x_max":769,"o":"m 206 -244 q 150 -242 183 -244 q 85 -237 117 -240 q 36 -231 54 -235 l 63 -110 q 133 -124 90 -119 q 206 -128 176 -128 q 394 -93 317 -128 q 489 21 472 -58 l 499 68 q 381 10 447 33 q 238 -14 315 -14 q 76 53 131 -14 q 49 243 22 121 l 136 658 l 288 658 l 200 243 q 208 135 185 169 q 317 100 232 100 q 424 121 372 100 q 517 176 475 142 l 619 658 l 769 658 l 639 44 q 571 -101 622 -36 q 429 -206 519 -167 q 206 -244 339 -244 z "},"ý":{"ha":831,"x_min":22,"x_max":769,"o":"m 426 725 l 583 971 l 717 971 l 547 725 l 426 725 m 206 -244 q 150 -242 183 -244 q 85 -237 117 -240 q 36 -231 54 -235 l 63 -110 q 133 -124 90 -119 q 206 -128 176 -128 q 394 -93 317 -128 q 489 21 472 -58 l 499 68 q 381 10 447 33 q 238 -14 315 -14 q 76 53 131 -14 q 49 243 22 121 l 136 658 l 288 658 l 200 243 q 208 135 185 169 q 317 100 232 100 q 424 121 372 100 q 517 176 475 142 l 619 658 l 769 658 l 639 44 q 571 -101 622 -36 q 429 -206 519 -167 q 206 -244 339 -244 z "},"ŷ":{"ha":831,"x_min":22,"x_max":769,"o":"m 274 724 l 493 947 l 599 947 l 725 724 l 608 724 l 532 864 l 400 724 l 274 724 m 206 -244 q 150 -242 183 -244 q 85 -237 117 -240 q 36 -231 54 -235 l 63 -110 q 133 -124 90 -119 q 206 -128 176 -128 q 394 -93 317 -128 q 489 21 472 -58 l 499 68 q 381 10 447 33 q 238 -14 315 -14 q 76 53 131 -14 q 49 243 22 121 l 136 658 l 288 658 l 200 243 q 208 135 185 169 q 317 100 232 100 q 424 121 372 100 q 517 176 475 142 l 619 658 l 769 658 l 639 44 q 571 -101 622 -36 q 429 -206 519 -167 q 206 -244 339 -244 z "},"ÿ":{"ha":831,"x_min":22,"x_max":769,"o":"m 319 772 l 346 892 l 472 892 l 446 772 l 319 772 m 576 772 l 603 892 l 731 892 l 704 772 l 576 772 m 206 -244 q 150 -242 183 -244 q 85 -237 117 -240 q 36 -231 54 -235 l 63 -110 q 133 -124 90 -119 q 206 -128 176 -128 q 394 -93 317 -128 q 489 21 472 -58 l 499 68 q 381 10 447 33 q 238 -14 315 -14 q 76 53 131 -14 q 49 243 22 121 l 136 658 l 288 658 l 200 243 q 208 135 185 169 q 317 100 232 100 q 424 121 372 100 q 517 176 475 142 l 619 658 l 769 658 l 639 44 q 571 -101 622 -36 q 429 -206 519 -167 q 206 -244 339 -244 z "},"ẏ":{"ha":831,"x_min":22,"x_max":769,"o":"m 440 757 l 467 879 l 594 879 l 568 757 l 440 757 m 206 -244 q 150 -242 183 -244 q 85 -237 117 -240 q 36 -231 54 -235 l 63 -110 q 133 -124 90 -119 q 206 -128 176 -128 q 394 -93 317 -128 q 489 21 472 -58 l 499 68 q 381 10 447 33 q 238 -14 315 -14 q 76 53 131 -14 q 49 243 22 121 l 136 658 l 288 658 l 200 243 q 208 135 185 169 q 317 100 232 100 q 424 121 372 100 q 517 176 475 142 l 619 658 l 769 658 l 639 44 q 571 -101 622 -36 q 429 -206 519 -167 q 206 -244 339 -244 z "},"ỵ":{"ha":831,"x_min":22,"x_max":769,"o":"m 206 -244 q 150 -242 183 -244 q 85 -237 117 -240 q 36 -231 54 -235 l 63 -110 q 133 -124 90 -119 q 206 -128 176 -128 q 394 -93 317 -128 q 489 21 472 -58 l 499 68 q 381 10 447 33 q 238 -14 315 -14 q 76 53 131 -14 q 49 243 22 121 l 136 658 l 288 658 l 200 243 q 208 135 185 169 q 317 100 232 100 q 424 121 372 100 q 517 176 475 142 l 619 658 l 769 658 l 639 44 q 571 -101 622 -36 q 429 -206 519 -167 q 206 -244 339 -244 m 600 -224 l 625 -101 l 756 -101 l 731 -224 l 600 -224 z "},"ỳ":{"ha":831,"x_min":22,"x_max":769,"o":"m 444 725 l 382 971 l 514 971 l 567 725 l 444 725 m 206 -244 q 150 -242 183 -244 q 85 -237 117 -240 q 36 -231 54 -235 l 63 -110 q 133 -124 90 -119 q 206 -128 176 -128 q 394 -93 317 -128 q 489 21 472 -58 l 499 68 q 381 10 447 33 q 238 -14 315 -14 q 76 53 131 -14 q 49 243 22 121 l 136 658 l 288 658 l 200 243 q 208 135 185 169 q 317 100 232 100 q 424 121 372 100 q 517 176 475 142 l 619 658 l 769 658 l 639 44 q 571 -101 622 -36 q 429 -206 519 -167 q 206 -244 339 -244 z "},"ỷ":{"ha":831,"x_min":22,"x_max":769,"o":"m 440 724 l 465 838 q 574 857 546 842 q 608 907 601 872 q 517 965 619 965 q 470 960 496 965 q 425 949 444 956 l 442 1031 q 503 1044 467 1039 q 575 1049 540 1049 q 699 1014 661 1049 q 722 919 736 979 q 677 831 711 863 q 572 789 643 800 l 558 724 l 440 724 m 206 -244 q 150 -242 183 -244 q 85 -237 117 -240 q 36 -231 54 -235 l 63 -110 q 133 -124 90 -119 q 206 -128 176 -128 q 394 -93 317 -128 q 489 21 472 -58 l 499 68 q 381 10 447 33 q 238 -14 315 -14 q 76 53 131 -14 q 49 243 22 121 l 136 658 l 288 658 l 200 243 q 208 135 185 169 q 317 100 232 100 q 424 121 372 100 q 517 176 475 142 l 619 658 l 769 658 l 639 44 q 571 -101 622 -36 q 429 -206 519 -167 q 206 -244 339 -244 z "},"ỹ":{"ha":831,"x_min":22,"x_max":769,"o":"m 613 746 q 542 760 575 746 q 477 787 508 774 q 414 800 446 800 q 345 789 378 800 q 282 750 313 778 l 306 861 q 363 892 328 881 q 432 903 397 903 q 504 890 472 903 q 567 863 536 876 q 633 849 597 849 q 756 900 707 849 l 732 789 q 682 758 714 771 q 613 746 650 746 m 206 -244 q 150 -242 183 -244 q 85 -237 117 -240 q 36 -231 54 -235 l 63 -110 q 133 -124 90 -119 q 206 -128 176 -128 q 394 -93 317 -128 q 489 21 472 -58 l 499 68 q 381 10 447 33 q 238 -14 315 -14 q 76 53 131 -14 q 49 243 22 121 l 136 658 l 288 658 l 200 243 q 208 135 185 169 q 317 100 232 100 q 424 121 372 100 q 517 176 475 142 l 619 658 l 769 658 l 639 44 q 571 -101 622 -36 q 429 -206 519 -167 q 206 -244 339 -244 z "},"z":{"ha":676,"x_min":-19,"x_max":665,"o":"m -19 0 l -3 79 l 453 535 l 110 535 l 136 658 l 665 658 l 646 565 l 197 117 l 560 117 l 536 0 l -19 0 z "},"ź":{"ha":676,"x_min":-19,"x_max":665,"o":"m 351 725 l 508 971 l 642 971 l 472 725 l 351 725 m -19 0 l -3 79 l 453 535 l 110 535 l 136 658 l 665 658 l 646 565 l 197 117 l 560 117 l 536 0 l -19 0 z "},"ž":{"ha":676,"x_min":-19,"x_max":678,"o":"m 351 724 l 226 947 l 344 947 l 418 807 l 553 947 l 678 947 l 457 724 l 351 724 m -19 0 l -3 79 l 453 535 l 110 535 l 136 658 l 665 658 l 646 565 l 197 117 l 560 117 l 536 0 l -19 0 z "},"ż":{"ha":676,"x_min":-19,"x_max":665,"o":"m 358 757 l 385 879 l 513 879 l 486 757 l 358 757 m -19 0 l -3 79 l 453 535 l 110 535 l 136 658 l 665 658 l 646 565 l 197 117 l 560 117 l 536 0 l -19 0 z "},"ẓ":{"ha":676,"x_min":-19,"x_max":665,"o":"m -19 0 l -3 79 l 453 535 l 110 535 l 136 658 l 665 658 l 646 565 l 197 117 l 560 117 l 536 0 l -19 0 m 142 -240 l 167 -118 l 297 -118 l 272 -240 l 142 -240 z "},"ﬁ":{"ha":738,"x_min":50,"x_max":710,"o":"m 50 0 l 164 540 l 68 540 l 93 658 l 189 658 l 204 726 q 304 893 225 828 q 515 958 383 958 q 606 952 564 958 q 674 935 647 946 l 649 822 q 599 835 632 831 q 535 839 565 839 q 410 811 454 839 q 353 724 365 783 l 339 658 l 710 658 l 571 0 l 419 0 l 533 540 l 314 540 l 200 0 l 50 0 z "},"ﬂ":{"ha":738,"x_min":50,"x_max":769,"o":"m 50 0 l 164 540 l 68 540 l 93 658 l 189 658 l 204 729 q 297 892 225 826 q 489 958 368 958 q 570 953 529 958 q 644 938 611 949 l 769 938 l 571 0 l 419 0 l 533 540 l 314 540 l 200 0 l 50 0 m 339 658 l 558 658 l 594 829 q 556 839 578 836 q 511 842 533 842 q 401 813 436 842 q 353 725 365 785 l 339 658 z "},"ª":{"ha":478,"x_min":104,"x_max":515,"o":"m 225 528 q 139 553 174 528 q 117 638 104 579 q 170 728 129 697 q 292 758 211 758 l 406 758 l 407 771 q 401 821 415 807 q 324 835 388 835 q 201 815 264 835 l 217 886 q 283 902 244 896 q 360 908 321 908 q 474 876 433 908 q 500 769 515 843 l 451 536 l 368 536 l 369 572 q 305 539 339 550 q 225 528 271 528 m 267 593 q 327 604 299 593 q 381 642 356 615 l 392 696 l 294 696 q 234 685 254 696 q 207 642 214 674 q 215 604 201 615 q 267 593 228 593 z "},"º":{"ha":504,"x_min":114,"x_max":536,"o":"m 285 528 q 153 576 193 528 q 133 718 114 625 q 209 860 153 811 q 367 908 265 908 q 499 860 461 908 q 517 718 536 811 q 442 576 497 625 q 285 528 388 528 m 300 600 q 381 629 353 600 q 421 718 408 658 q 420 806 433 776 q 350 835 407 835 q 269 806 299 835 q 228 718 240 776 q 228 629 215 658 q 300 600 242 600 z "},"ⁿ":{"ha":499,"x_min":103,"x_max":536,"o":"m 103 536 l 179 900 l 268 900 l 263 863 q 334 895 297 883 q 417 907 371 907 q 507 874 478 907 q 522 775 536 840 l 472 536 l 379 536 l 425 757 q 424 817 435 800 q 368 833 414 833 q 307 822 340 833 q 251 792 274 810 l 197 536 l 103 536 z "},"Δ":{"ha":903,"x_min":-18,"x_max":779,"o":"m -18 0 l -1 83 l 490 894 l 629 894 l 779 82 l 763 0 l -18 0 m 157 117 l 643 117 l 532 733 l 157 117 z "},"Ω":{"ha":1061,"x_min":-10,"x_max":1057,"o":"m -10 0 l 14 114 l 214 114 q 94 273 131 175 q 88 506 58 371 q 190 744 117 640 q 380 906 263 847 q 656 965 497 965 q 897 906 804 965 q 1023 744 989 847 q 1028 506 1057 640 q 922 272 999 371 q 736 114 846 174 l 935 114 l 911 0 l 529 0 l 553 117 q 769 281 690 183 q 874 500 847 378 q 881 676 896 600 q 804 794 865 751 q 628 836 743 836 q 445 794 525 836 q 313 676 365 751 q 239 500 261 600 q 251 281 213 378 q 396 117 289 183 l 372 0 l -10 0 z "},"μ":{"ha":811,"x_min":-33,"x_max":782,"o":"m -33 -199 l 149 658 l 300 658 l 213 243 q 222 135 197 169 q 329 100 246 100 q 436 121 385 100 q 529 176 488 142 l 632 658 l 782 658 l 643 0 l 506 0 l 513 68 q 394 10 461 33 q 250 -14 328 -14 q 163 7 194 -14 l 118 -199 l -33 -199 z "},"π":{"ha":935,"x_min":61,"x_max":854,"o":"m 675 -14 q 538 44 582 -14 q 514 199 493 101 l 586 542 l 325 542 l 211 0 l 61 0 l 175 542 l 82 542 l 107 658 l 854 658 l 829 542 l 738 542 l 667 204 q 669 126 654 147 q 753 104 685 104 q 838 118 790 104 l 814 8 q 675 -14 751 -14 z "},"ก":{"ha":851,"x_min":17,"x_max":810,"o":"m 17 0 l 74 271 q 119 378 86 332 q 219 443 153 425 l 78 481 l 111 636 q 276 724 176 685 q 497 764 375 764 q 734 691 658 764 q 778 465 810 618 l 679 0 l 528 0 l 626 469 q 615 603 647 565 q 467 642 582 642 q 333 622 397 642 q 228 571 268 603 l 222 546 l 372 506 l 351 406 q 265 361 294 392 q 224 269 236 331 l 167 0 l 17 0 z "},"ข":{"ha":807,"x_min":17,"x_max":793,"o":"m 308 -14 q 88 62 158 -14 q 46 267 17 138 l 63 340 q 100 425 74 388 q 157 494 126 463 q 212 551 188 525 q 240 600 236 576 q 238 629 246 622 q 204 636 229 636 l 108 636 l 144 750 l 319 750 q 404 649 426 750 q 366 562 393 600 q 306 490 339 524 q 247 419 274 456 q 211 339 221 383 l 193 254 q 206 141 176 175 q 335 107 236 107 q 469 143 417 107 q 538 258 521 179 l 642 750 l 793 750 l 692 268 q 570 60 663 135 q 308 -14 478 -14 z "},"ฃ":{"ha":807,"x_min":26,"x_max":793,"o":"m 308 -14 q 147 20 213 -14 q 53 117 81 54 q 46 267 26 181 l 56 308 q 99 397 65 353 q 172 479 132 440 q 242 551 211 518 q 279 608 274 585 q 257 639 285 639 q 207 618 232 639 l 196 563 l 93 563 l 132 750 l 238 750 l 229 711 q 279 738 253 726 q 343 750 306 750 q 426 643 450 750 q 383 550 415 593 q 312 468 350 507 q 243 391 274 429 q 204 313 213 353 l 193 254 q 207 138 178 169 q 335 107 236 107 q 469 143 417 107 q 538 258 521 179 l 642 750 l 793 750 l 692 268 q 570 60 663 135 q 308 -14 478 -14 z "},"ค":{"ha":854,"x_min":4,"x_max":800,"o":"m 4 0 l 104 475 q 169 630 124 565 q 297 729 215 694 q 506 764 379 764 q 686 726 619 764 q 776 624 753 689 q 782 475 800 560 l 682 0 l 531 0 l 633 489 q 617 606 651 571 q 481 642 583 642 q 330 605 385 642 q 258 489 275 568 l 226 335 q 382 385 299 385 l 472 385 l 453 264 l 353 264 q 201 217 269 264 l 156 0 l 4 0 z "},"ฅ":{"ha":854,"x_min":4,"x_max":821,"o":"m 4 0 l 119 549 q 197 708 143 651 q 349 764 250 764 q 429 747 393 764 q 486 692 465 731 q 574 747 524 731 q 668 764 625 764 q 790 710 760 764 q 797 547 821 657 l 682 0 l 532 0 l 649 550 q 650 615 658 594 q 603 635 642 635 q 548 619 572 635 q 501 578 524 604 l 429 578 q 406 619 422 604 q 363 635 390 635 q 298 612 317 635 q 271 550 279 589 l 225 335 q 381 385 297 385 l 472 385 l 453 264 l 353 264 q 200 217 269 264 l 154 0 l 4 0 z "},"ฆ":{"ha":835,"x_min":-1,"x_max":821,"o":"m 403 -14 q 260 13 318 -14 q 161 82 203 39 l 136 0 l -1 0 l 60 290 q 105 387 71 340 q 179 475 139 433 q 251 551 219 517 q 288 608 282 585 q 265 639 293 639 q 215 618 240 639 l 204 563 l 101 563 l 140 750 l 246 750 l 238 711 q 288 738 261 726 q 351 750 314 750 q 435 643 458 750 q 394 553 425 596 q 324 468 363 510 q 253 384 285 426 q 213 294 222 342 l 192 197 q 268 133 219 158 q 379 107 317 107 q 508 144 467 107 q 568 265 550 181 l 671 750 l 821 750 l 717 258 q 606 57 689 128 q 403 -14 522 -14 z "},"ง":{"ha":776,"x_min":51,"x_max":756,"o":"m 288 -14 q 218 -10 256 -14 q 153 4 181 -6 l 51 518 l 199 518 l 281 101 q 466 172 393 100 q 572 399 539 244 q 588 541 592 489 q 550 615 585 593 q 440 636 515 636 l 388 636 l 411 750 l 483 750 q 696 664 636 750 q 718 400 756 578 q 559 83 671 179 q 288 -14 447 -14 z "},"จ":{"ha":790,"x_min":39,"x_max":768,"o":"m 299 -14 q 238 -9 272 -14 q 183 4 203 -4 l 135 300 l 39 300 l 71 414 l 256 414 l 306 106 q 473 165 397 101 q 582 382 549 228 q 592 536 603 479 q 529 617 582 593 q 367 642 476 642 q 247 633 311 642 q 121 606 182 625 l 146 722 q 279 752 206 740 q 432 764 353 764 q 695 665 622 764 q 728 382 768 567 q 637 165 700 253 q 487 31 574 76 q 299 -14 400 -14 z "},"ฉ":{"ha":810,"x_min":11,"x_max":799,"o":"m 222 -14 q 62 51 113 -14 q 38 246 11 117 l 74 417 l 224 417 l 190 260 q 197 141 172 175 q 307 107 222 107 q 425 132 369 107 q 528 199 481 157 l 583 458 q 587 569 599 529 q 527 625 575 608 q 383 642 479 642 q 296 637 346 642 q 195 622 246 632 q 103 600 144 613 l 128 717 q 279 751 193 738 q 447 764 365 764 q 733 457 799 764 l 638 0 l 500 0 l 508 82 q 383 13 453 40 q 222 -14 313 -14 z "},"ช":{"ha":808,"x_min":19,"x_max":797,"o":"m 308 -14 q 88 63 157 -14 q 47 267 19 140 l 64 340 q 100 422 74 385 q 158 491 126 460 q 213 549 189 522 q 242 600 238 576 q 239 629 247 622 q 206 636 231 636 l 110 636 l 146 750 l 321 750 q 406 649 426 750 q 368 563 396 601 q 308 488 340 524 q 248 417 275 453 q 213 339 221 381 l 194 254 q 212 140 178 174 q 335 107 246 107 q 469 143 417 107 q 539 258 522 179 l 558 350 q 557 441 572 415 q 485 467 542 467 l 446 467 l 476 576 l 504 576 q 590 605 563 576 q 632 693 618 633 l 646 764 l 797 764 l 782 688 q 739 580 768 622 q 644 514 710 538 q 710 444 699 488 q 707 338 721 401 l 693 268 q 568 58 667 129 q 308 -14 469 -14 z "},"ซ":{"ha":808,"x_min":29,"x_max":797,"o":"m 308 -14 q 147 22 213 -14 q 56 120 82 57 q 47 267 29 183 l 57 313 q 100 403 67 360 q 174 484 133 446 q 244 553 214 522 q 281 608 275 585 q 258 639 286 639 q 208 618 233 639 l 197 563 l 94 563 l 133 750 l 239 750 l 231 711 q 281 738 254 726 q 344 750 307 750 q 428 643 451 750 q 387 555 418 596 q 317 475 356 514 q 248 397 279 436 q 207 313 217 357 l 194 254 q 212 140 178 174 q 335 107 246 107 q 469 143 417 107 q 539 258 522 179 l 558 350 q 557 441 572 415 q 485 467 542 467 l 446 467 l 476 576 l 504 576 q 590 605 563 576 q 632 693 618 633 l 646 764 l 797 764 l 782 688 q 739 580 768 622 q 644 514 710 538 q 710 444 699 488 q 707 338 721 401 l 693 268 q 568 58 667 129 q 308 -14 469 -14 z "},"ฌ":{"ha":1329,"x_min":32,"x_max":1315,"o":"m 904 -14 q 767 13 821 -14 q 671 82 713 39 l 646 0 l 513 0 l 611 469 q 601 603 632 565 q 463 642 569 642 q 331 622 394 642 q 228 571 268 603 l 222 546 l 372 506 l 351 406 q 265 361 294 392 q 224 269 236 331 l 204 179 q 205 133 197 147 q 247 119 213 119 l 326 119 l 301 0 l 151 0 q 63 39 93 0 q 46 140 32 78 l 74 271 q 119 378 86 332 q 219 443 153 425 l 78 481 l 111 636 q 275 724 176 685 q 493 764 374 764 q 720 692 649 764 q 758 465 792 621 l 701 197 q 775 133 729 158 q 881 107 821 107 q 1005 144 965 107 q 1063 265 1044 181 l 1165 750 l 1315 750 l 1211 258 q 1106 57 1183 128 q 904 -14 1029 -14 z "},"ญ":{"ha":1347,"x_min":32,"x_max":1332,"o":"m 829 -85 q 690 -69 761 -85 q 563 -25 619 -54 l 588 96 q 710 51 640 65 q 851 36 781 36 q 1005 58 949 36 q 1068 117 1061 81 q 1058 163 1074 143 q 973 131 1021 143 q 867 118 925 118 q 642 194 715 118 q 601 424 569 271 l 611 469 q 601 603 632 565 q 463 642 571 642 q 331 622 394 642 q 228 571 268 603 l 222 546 l 372 506 l 351 406 q 265 361 294 392 q 224 269 236 331 l 204 179 q 206 131 197 143 q 246 119 214 119 l 326 119 l 301 0 l 151 0 q 60 39 89 0 q 46 140 32 78 l 74 271 q 119 378 86 332 q 219 443 153 425 l 78 481 l 111 636 q 275 724 176 685 q 493 764 374 764 q 662 734 594 764 q 756 639 729 704 q 758 465 782 574 l 747 418 q 758 282 728 325 q 892 239 788 239 q 1039 282 986 239 q 1111 418 1092 325 l 1182 750 l 1332 750 l 1263 424 q 1228 319 1250 364 q 1172 238 1206 274 q 1198 182 1190 215 q 1197 108 1206 149 q 1090 -35 1178 15 q 829 -85 1001 -85 z "},"ฎ":{"ha":899,"x_min":-17,"x_max":857,"o":"m 92 -274 l 117 -153 q 235 -116 174 -129 q 364 -103 296 -103 q 469 -113 422 -103 q 546 -143 515 -124 l 675 469 q 664 603 696 565 q 524 642 632 642 q 389 622 453 642 q 285 571 325 603 l 279 546 l 433 506 l 413 406 q 333 361 356 390 q 297 269 310 332 l 275 169 q 210 40 257 81 q 76 0 163 0 l -17 0 l 8 119 l 60 119 q 103 133 89 119 q 125 178 118 146 l 144 271 q 186 376 157 332 q 279 443 215 421 l 135 481 l 168 636 q 333 724 233 685 q 553 764 432 764 q 785 690 713 764 q 825 465 857 615 l 668 -269 l 518 -269 q 434 -235 481 -246 q 322 -224 388 -224 q 204 -237 265 -224 q 92 -274 143 -250 z "},"ฏ":{"ha":899,"x_min":-17,"x_max":857,"o":"m 464 -271 q 376 -253 414 -271 q 322 -207 338 -235 q 266 -252 300 -235 q 182 -269 232 -269 l 47 -269 l 82 -149 l 181 -149 q 247 -135 221 -149 q 294 -89 272 -122 l 393 -89 q 415 -137 399 -119 q 467 -154 431 -154 q 530 -133 508 -154 q 561 -69 551 -112 l 675 469 q 665 603 696 565 q 524 642 635 642 q 389 622 453 642 q 285 571 325 603 l 279 546 l 433 506 l 413 406 q 333 361 356 390 q 297 269 310 332 l 275 169 q 206 40 257 81 q 76 0 156 0 l -17 0 l 8 119 l 60 119 q 103 133 89 119 q 125 178 118 146 l 144 271 q 186 376 157 332 q 279 443 215 421 l 135 481 l 168 636 q 333 724 233 685 q 553 764 432 764 q 783 690 708 764 q 825 465 857 617 l 710 -78 q 630 -220 690 -169 q 464 -271 569 -271 z "},"ฐ":{"ha":839,"x_min":-64,"x_max":865,"o":"m 292 -14 q 231 -9 265 -14 q 176 4 196 -4 l 128 300 l 32 300 l 64 414 l 249 414 l 299 106 q 466 165 390 101 q 575 382 542 228 q 585 536 596 479 q 522 617 575 593 q 360 642 469 642 q 240 633 304 642 q 114 606 175 625 l 139 722 q 272 752 199 740 q 425 764 346 764 q 492 760 461 764 q 550 750 524 757 l 865 750 l 833 632 l 699 632 q 721 382 756 540 q 630 165 693 253 q 480 31 567 76 q 292 -14 393 -14 m 353 -271 q 266 -253 303 -271 q 214 -207 229 -235 q 158 -252 192 -235 q 74 -269 124 -269 l -64 -269 l -29 -149 l 69 -149 q 135 -135 110 -149 q 183 -89 161 -122 l 282 -89 q 303 -137 288 -119 q 356 -154 319 -154 q 419 -133 397 -154 q 450 -69 440 -112 l 453 -57 l 603 -57 l 599 -78 q 517 -220 579 -169 q 353 -271 454 -271 z "},"ฑ":{"ha":835,"x_min":29,"x_max":824,"o":"m 29 0 l 92 296 q 131 390 103 346 q 190 474 158 435 q 249 547 222 513 q 281 608 275 581 q 258 639 286 639 q 208 618 233 639 l 197 563 l 94 563 l 133 750 l 239 750 l 231 711 q 279 738 254 726 q 342 750 304 750 q 415 708 397 750 q 501 748 453 732 q 599 764 549 764 q 769 506 824 764 l 663 0 l 513 0 l 619 504 q 619 612 636 582 q 533 642 603 642 q 471 631 507 642 q 411 600 435 619 q 380 522 403 557 q 328 452 357 486 q 276 379 300 418 q 242 290 253 340 l 181 0 l 29 0 z "},"ฒ":{"ha":1374,"x_min":25,"x_max":1360,"o":"m 279 -14 q 133 25 194 -14 q 49 148 72 64 q 53 364 25 232 q 176 661 94 558 q 375 764 257 764 q 459 744 432 764 q 504 692 486 724 q 586 744 540 724 q 692 764 632 764 q 813 713 782 764 q 822 563 843 661 l 744 197 q 817 133 772 158 q 925 107 861 107 q 1047 144 1007 107 q 1106 265 1088 181 l 1208 750 l 1360 750 l 1256 258 q 1151 57 1228 128 q 949 -14 1075 -14 q 810 13 865 -14 q 714 82 756 39 l 690 0 l 557 0 l 671 540 q 673 619 682 597 q 624 642 664 642 q 570 626 596 642 q 525 578 544 611 l 442 578 q 418 626 432 611 q 371 642 404 642 q 265 565 303 642 q 199 364 226 489 q 201 164 168 221 q 332 107 235 107 q 385 110 358 107 q 431 118 411 113 l 406 3 q 349 -10 379 -6 q 279 -14 319 -14 z "},"ณ":{"ha":1333,"x_min":32,"x_max":1319,"o":"m 757 -14 q 593 59 646 -14 q 567 258 540 132 l 611 469 q 601 606 632 569 q 463 642 569 642 q 331 622 394 642 q 228 571 268 603 l 222 546 l 372 506 l 351 406 q 265 361 294 392 q 224 269 236 331 l 204 179 q 205 133 197 147 q 247 119 213 119 l 326 119 l 301 0 l 151 0 q 60 39 89 0 q 46 140 32 78 l 74 271 q 119 378 86 332 q 219 443 153 425 l 78 481 l 111 636 q 275 724 176 685 q 493 764 374 764 q 719 692 647 764 q 758 465 792 621 l 715 265 q 724 142 696 176 q 833 107 753 107 q 951 133 894 107 q 1051 197 1007 158 l 1168 750 l 1319 750 l 1161 0 l 1024 0 l 1032 82 q 906 11 972 36 q 757 -14 840 -14 z "},"ด":{"ha":893,"x_min":25,"x_max":831,"o":"m 279 -14 q 134 25 196 -14 q 49 148 72 64 q 53 364 25 232 q 207 658 93 551 q 521 764 321 764 q 680 738 617 764 q 778 667 743 711 q 822 568 813 622 q 818 458 831 514 l 721 0 l 569 0 l 665 451 q 649 592 685 543 q 493 642 614 642 q 299 571 371 642 q 199 364 228 500 q 201 164 168 221 q 332 107 233 107 q 385 110 358 107 q 431 118 411 113 l 406 3 q 349 -10 379 -6 q 279 -14 319 -14 z "},"ต":{"ha":897,"x_min":25,"x_max":864,"o":"m 279 -14 q 134 25 196 -14 q 49 148 72 64 q 53 364 25 232 q 176 661 94 558 q 385 764 257 764 q 470 744 442 764 q 517 692 499 724 q 599 744 553 724 q 707 764 644 764 q 831 706 797 764 q 844 563 864 649 l 725 0 l 574 0 l 688 540 q 690 617 699 593 q 636 642 681 642 q 582 626 608 642 q 536 578 556 611 l 453 578 q 428 626 443 611 q 381 642 414 642 q 267 565 308 642 q 199 364 226 489 q 201 164 168 221 q 332 107 235 107 q 385 110 358 107 q 431 118 411 113 l 406 3 q 349 -10 379 -6 q 279 -14 319 -14 z "},"ถ":{"ha":851,"x_min":32,"x_max":811,"o":"m 151 0 q 60 39 89 0 q 46 140 32 78 l 74 271 q 119 378 86 332 q 219 443 153 425 l 78 481 l 111 636 q 276 724 176 685 q 497 764 375 764 q 735 694 660 764 q 778 465 811 624 l 679 0 l 528 0 l 626 469 q 615 603 647 565 q 467 642 582 642 q 333 622 397 642 q 228 571 268 603 l 222 546 l 372 506 l 351 406 q 265 361 294 392 q 224 269 236 331 l 204 179 q 205 133 197 146 q 247 119 213 119 l 326 119 l 301 0 l 151 0 z "},"ท":{"ha":840,"x_min":4,"x_max":799,"o":"m 4 0 l 163 750 l 300 750 l 292 668 q 423 738 353 713 q 578 764 493 764 q 745 691 692 764 q 772 494 799 618 l 668 0 l 518 0 l 621 488 q 612 606 639 569 q 503 642 585 642 q 378 616 439 642 q 272 551 317 590 l 156 0 l 4 0 z "},"ธ":{"ha":731,"x_min":-1,"x_max":715,"o":"m 289 -14 q 123 3 199 -14 q -1 42 47 19 l 58 324 l 197 324 l 157 132 q 306 107 218 107 q 438 131 388 107 q 501 224 488 156 q 492 301 513 275 q 423 341 471 326 q 301 372 375 356 q 190 407 242 386 q 110 465 138 428 q 96 567 83 503 q 211 715 117 665 q 460 764 306 764 q 607 753 536 764 q 715 728 678 743 l 689 603 q 582 631 646 621 q 456 642 518 642 q 358 637 406 642 q 279 617 311 632 q 240 571 247 603 q 260 517 233 535 q 339 489 288 500 q 453 460 390 478 q 569 414 521 440 q 640 343 618 388 q 646 224 661 299 q 538 45 624 104 q 289 -14 451 -14 z "},"น":{"ha":840,"x_min":31,"x_max":826,"o":"m 256 -14 q 85 57 140 -14 q 58 258 31 128 l 163 750 l 314 750 l 211 265 q 222 142 193 176 q 332 107 250 107 q 454 133 393 107 q 560 197 515 158 l 676 750 l 826 750 l 668 0 l 531 0 l 540 82 q 410 13 481 39 q 256 -14 339 -14 z "},"บ":{"ha":863,"x_min":35,"x_max":849,"o":"m 343 -14 q 111 65 188 -14 q 65 292 35 144 l 163 750 l 314 750 l 215 286 q 231 146 193 185 q 369 107 268 107 q 526 150 471 107 q 600 286 581 193 l 699 750 l 849 750 l 751 292 q 617 59 718 132 q 343 -14 517 -14 z "},"ป":{"ha":863,"x_min":35,"x_max":896,"o":"m 343 -14 q 111 65 188 -14 q 65 292 35 144 l 163 750 l 314 750 l 215 286 q 231 146 193 185 q 369 107 268 107 q 526 150 471 107 q 600 286 581 193 l 746 972 l 896 972 l 751 292 q 617 59 718 132 q 343 -14 517 -14 z "},"ผ":{"ha":894,"x_min":4,"x_max":881,"o":"m 4 0 l 133 610 q 188 710 146 671 q 294 750 231 750 l 438 750 l 419 633 l 347 633 q 294 617 313 633 q 269 565 276 601 l 193 203 l 443 521 l 504 521 l 621 203 l 736 750 l 881 750 l 722 0 l 583 0 l 451 371 l 163 0 l 4 0 z "},"ฝ":{"ha":894,"x_min":4,"x_max":928,"o":"m 4 0 l 133 610 q 188 710 146 671 q 294 750 231 750 l 438 750 l 419 633 l 347 633 q 294 617 313 633 q 269 565 276 601 l 193 203 l 443 521 l 504 521 l 621 203 l 783 972 l 928 972 l 722 0 l 583 0 l 451 371 l 163 0 l 4 0 z "},"พ":{"ha":1008,"x_min":124,"x_max":1035,"o":"m 139 0 l 124 750 l 272 750 l 269 214 l 497 643 l 519 750 l 628 750 l 665 214 l 888 750 l 1035 750 l 704 0 l 572 0 l 535 478 l 283 0 l 139 0 z "},"ฟ":{"ha":1008,"x_min":124,"x_max":1125,"o":"m 139 0 l 124 750 l 272 750 l 269 214 l 497 643 l 519 750 l 628 750 l 665 214 l 978 972 l 1125 972 l 704 0 l 572 0 l 535 478 l 283 0 l 139 0 z "},"ภ":{"ha":899,"x_min":-17,"x_max":858,"o":"m -17 0 l 8 119 l 60 119 q 103 133 89 119 q 125 178 118 146 l 144 271 q 186 376 157 332 q 279 443 215 421 l 135 481 l 168 636 q 333 724 233 685 q 553 764 432 764 q 783 692 708 764 q 825 465 858 621 l 726 0 l 576 0 l 675 469 q 665 603 696 565 q 524 642 635 642 q 389 622 453 642 q 285 571 325 603 l 279 546 l 433 506 l 413 406 q 333 361 356 390 q 297 269 310 332 l 275 169 q 206 40 257 81 q 76 0 156 0 l -17 0 z "},"ม":{"ha":840,"x_min":4,"x_max":826,"o":"m 408 -14 q 266 13 324 -14 q 167 82 208 39 l 142 0 l 4 0 l 163 750 l 314 750 l 197 197 q 274 133 225 158 q 385 107 322 107 q 514 144 472 107 q 574 265 556 181 l 676 750 l 826 750 l 722 258 q 615 57 694 128 q 408 -14 535 -14 z "},"ย":{"ha":829,"x_min":0,"x_max":815,"o":"m 314 -14 q 141 10 214 -14 q 34 85 68 33 q 18 221 0 136 q 67 322 31 278 q 158 390 103 365 q 99 448 119 408 q 92 547 79 488 q 192 709 115 654 q 372 764 269 764 q 441 759 413 764 q 492 746 469 754 l 467 631 q 375 642 429 642 q 284 619 319 642 q 238 547 249 597 q 256 472 226 494 q 347 449 286 449 l 426 449 l 410 336 l 321 336 q 164 221 189 336 q 190 135 153 164 q 333 107 228 107 q 563 267 529 107 l 665 750 l 815 750 l 717 285 q 590 60 685 133 q 314 -14 496 -14 z "},"ร":{"ha":700,"x_min":-1,"x_max":661,"o":"m 246 -14 q 106 -4 172 -14 q -1 24 39 6 l 25 150 q 133 118 74 129 q 244 107 193 107 q 390 124 340 107 q 451 197 439 142 q 440 258 460 238 q 378 295 421 279 q 274 333 336 311 q 168 383 214 356 q 101 450 122 410 q 93 550 81 490 q 197 706 114 649 q 439 764 279 764 q 563 754 503 764 q 661 731 624 744 l 635 606 q 539 633 593 624 q 436 642 485 642 q 303 624 356 642 q 239 554 250 607 q 253 499 232 519 q 317 463 274 479 q 421 425 360 447 q 569 338 522 389 q 597 197 617 288 q 488 37 574 88 q 246 -14 401 -14 z "},"ฤ":{"ha":851,"x_min":32,"x_max":811,"o":"m 479 -222 l 626 469 q 615 603 647 565 q 467 642 582 642 q 333 622 397 642 q 228 571 268 603 l 222 546 l 372 506 l 351 406 q 265 361 294 392 q 224 269 236 331 l 204 179 q 204 133 197 147 q 246 119 211 119 l 326 119 l 301 0 l 151 0 q 60 39 89 0 q 46 140 32 78 l 74 271 q 119 378 86 332 q 219 443 153 425 l 78 481 l 111 636 q 276 724 176 685 q 497 764 375 764 q 735 692 658 764 q 778 465 811 621 l 631 -222 l 479 -222 z "},"ล":{"ha":817,"x_min":0,"x_max":775,"o":"m 224 -14 q 103 10 157 -14 q 25 86 50 35 q 17 215 0 138 q 119 386 40 325 q 358 447 199 447 l 588 447 l 597 494 q 600 581 610 549 q 552 628 590 614 q 436 642 514 642 q 308 633 371 642 q 183 606 246 625 l 208 722 q 340 752 267 740 q 486 764 414 764 q 713 692 650 764 q 746 481 775 619 l 644 0 l 493 0 l 563 331 l 343 331 q 217 305 260 331 q 161 215 175 279 q 173 131 149 154 q 290 107 197 107 q 389 118 347 107 l 364 3 q 300 -9 336 -4 q 224 -14 264 -14 z "},"ฦ":{"ha":899,"x_min":-17,"x_max":857,"o":"m 528 -222 l 675 469 q 665 603 696 565 q 524 642 635 642 q 389 622 453 642 q 285 571 325 603 l 279 546 l 433 506 l 413 406 q 333 361 356 390 q 297 269 310 332 l 275 169 q 206 40 257 81 q 76 0 156 0 l -17 0 l 8 119 l 60 119 q 103 133 89 119 q 125 178 118 146 l 144 271 q 186 376 157 332 q 279 443 215 421 l 135 481 l 168 636 q 333 724 233 685 q 553 764 432 764 q 783 690 710 764 q 825 465 857 617 l 678 -222 l 528 -222 z "},"ว":{"ha":690,"x_min":-29,"x_max":674,"o":"m 186 -14 q -29 28 58 -14 l -4 147 q 81 118 33 129 q 176 107 128 107 q 332 133 271 107 q 430 219 393 160 q 488 375 467 278 q 498 531 508 472 q 438 615 488 589 q 289 642 389 642 q 189 631 239 642 q 93 601 139 621 l 118 722 q 226 753 169 742 q 347 764 283 764 q 598 665 522 764 q 633 375 674 565 q 553 159 606 246 q 412 29 500 72 q 186 -14 324 -14 z "},"ศ":{"ha":883,"x_min":4,"x_max":910,"o":"m 4 0 l 104 475 q 169 630 124 565 q 297 729 215 694 q 506 764 379 764 q 569 760 539 764 q 624 750 599 757 l 910 750 l 878 632 l 769 632 q 788 561 785 603 q 782 475 792 519 l 682 0 l 531 0 l 633 489 q 621 606 651 571 q 481 642 590 642 q 330 605 385 642 q 258 489 275 568 l 226 335 q 382 385 299 385 l 472 385 l 453 264 l 353 264 q 201 217 269 264 l 156 0 l 4 0 z "},"ษ":{"ha":882,"x_min":35,"x_max":878,"o":"m 343 -14 q 111 65 188 -14 q 65 292 35 144 l 163 750 l 314 750 l 215 286 q 231 146 193 185 q 369 107 268 107 q 526 150 471 107 q 600 286 581 193 l 621 385 l 440 385 l 465 500 l 644 500 l 699 750 l 849 750 l 794 500 l 878 500 l 842 385 l 771 385 l 751 292 q 617 59 718 132 q 343 -14 517 -14 z "},"ส":{"ha":839,"x_min":0,"x_max":865,"o":"m 224 -14 q 103 10 157 -14 q 25 86 50 35 q 17 215 0 138 q 119 386 40 325 q 358 447 199 447 l 588 447 l 597 494 q 600 581 610 549 q 552 628 590 614 q 436 642 514 642 q 308 633 371 642 q 183 606 246 625 l 208 722 q 340 752 267 740 q 486 764 414 764 q 553 760 522 764 q 610 750 583 757 l 865 750 l 832 632 l 735 632 q 752 564 749 603 q 746 481 756 525 l 644 0 l 493 0 l 563 331 l 343 331 q 217 305 260 331 q 161 215 175 279 q 173 131 149 154 q 290 107 197 107 q 389 118 347 107 l 364 3 q 300 -9 336 -4 q 224 -14 264 -14 z "},"ห":{"ha":839,"x_min":4,"x_max":825,"o":"m 4 0 l 163 750 l 314 750 l 264 514 l 481 514 q 603 549 567 514 q 654 653 640 585 l 675 750 l 825 750 l 803 642 q 755 519 789 572 q 649 443 721 467 q 715 371 701 421 q 715 261 728 321 l 660 0 l 510 0 l 564 258 q 560 369 581 339 q 457 399 539 399 l 240 399 l 156 0 l 4 0 z "},"ฬ":{"ha":1008,"x_min":124,"x_max":1124,"o":"m 139 0 l 124 750 l 272 750 l 271 214 l 485 588 l 508 694 l 615 694 l 663 214 l 832 606 q 850 699 860 672 q 788 725 840 725 l 732 725 l 775 838 l 836 838 q 918 856 889 838 q 968 922 947 875 l 989 972 l 1124 972 l 1092 894 q 1035 807 1068 836 q 957 768 1001 778 q 967 606 1019 728 l 703 0 l 574 0 l 526 433 l 285 0 l 139 0 z "},"อ":{"ha":799,"x_min":-6,"x_max":775,"o":"m 281 -14 q 117 3 192 -14 q -6 42 43 19 l 76 428 l 374 428 l 356 313 l 197 313 l 158 131 q 228 113 188 119 q 307 107 268 107 q 492 166 426 107 q 588 372 557 225 q 600 538 611 479 q 537 619 589 596 q 382 642 485 642 q 255 633 322 642 q 125 606 188 625 l 150 722 q 290 753 213 742 q 444 764 368 764 q 702 665 629 764 q 733 372 775 565 q 655 161 707 247 q 513 31 603 75 q 281 -14 422 -14 z "},"ฮ":{"ha":838,"x_min":-6,"x_max":864,"o":"m 281 -14 q 117 3 192 -14 q -6 42 43 19 l 76 428 l 374 428 l 356 313 l 197 313 l 158 131 q 228 113 188 119 q 307 107 268 107 q 492 166 426 107 q 588 372 557 225 q 600 538 611 479 q 537 619 589 596 q 382 642 485 642 q 255 633 322 642 q 125 606 188 625 l 150 722 q 290 753 213 742 q 444 764 368 764 q 508 760 478 764 q 565 750 539 757 l 864 750 l 832 632 l 713 632 q 744 522 738 589 q 733 372 751 454 q 655 161 707 247 q 513 31 603 75 q 281 -14 422 -14 z "},"ะ":{"ha":450,"x_min":-7,"x_max":431,"o":"m 74 460 l 111 640 l 240 640 l 226 572 l 431 572 l 401 460 l 74 460 m -7 82 l 32 263 l 161 263 l 146 193 l 350 193 l 321 82 l -7 82 z "},"า":{"ha":611,"x_min":63,"x_max":574,"o":"m 288 0 l 388 472 q 398 572 401 535 q 363 626 394 610 q 261 642 332 642 q 163 632 217 642 q 63 606 108 622 l 88 722 q 194 752 133 740 q 315 764 256 764 q 515 699 457 764 q 543 492 574 633 l 439 0 l 288 0 z "},"ำ":{"ha":611,"x_min":-217,"x_max":574,"o":"m -79 831 q -180 874 -143 831 q -203 981 -217 917 q -137 1089 -187 1046 q -15 1132 -87 1132 q 87 1089 50 1132 q 108 981 124 1046 q 43 874 94 917 q -79 831 -8 831 m -60 917 q -11 936 -33 917 q 17 981 11 956 q 12 1028 24 1008 q -32 1047 0 1047 q -82 1028 -58 1047 q -112 981 -106 1008 q -106 936 -118 956 q -60 917 -93 917 m 288 0 l 388 472 q 398 572 401 535 q 363 626 394 610 q 261 642 332 642 q 163 632 217 642 q 63 606 108 622 l 88 722 q 194 752 133 740 q 315 764 256 764 q 515 699 457 764 q 543 492 574 633 l 439 0 l 288 0 z "},"เ":{"ha":426,"x_min":22,"x_max":315,"o":"m 153 0 q 49 38 76 0 q 38 144 22 75 l 165 750 l 315 750 l 194 182 q 196 133 188 147 q 243 119 204 119 l 307 119 l 282 0 l 153 0 z "},"แ":{"ha":753,"x_min":22,"x_max":650,"o":"m 488 0 q 385 38 411 0 q 372 144 358 75 l 500 750 l 650 750 l 529 182 q 531 133 522 147 q 578 119 539 119 l 642 119 l 617 0 l 488 0 m 151 0 q 49 38 75 0 q 36 144 22 75 l 164 750 l 314 750 l 193 182 q 194 133 186 147 q 242 119 203 119 l 306 119 l 281 0 l 151 0 z "},"โ":{"ha":438,"x_min":75,"x_max":574,"o":"m 203 0 q 94 48 114 0 q 93 176 75 96 l 222 781 q 216 916 242 871 q 122 988 190 961 l 147 1103 l 574 1103 l 549 983 l 313 983 q 375 903 361 953 q 369 767 389 854 l 244 182 q 247 133 238 146 q 293 119 256 119 l 357 119 l 332 0 l 203 0 z "},"ใ":{"ha":408,"x_min":3,"x_max":522,"o":"m 132 0 q 29 38 56 0 q 17 144 3 75 l 114 604 q 163 721 129 674 q 237 801 197 768 q 307 860 276 833 q 344 918 338 888 q 333 972 353 958 q 267 986 313 986 q 188 975 229 986 q 107 944 147 964 l 131 1056 q 235 1094 178 1081 q 344 1107 293 1107 q 483 1065 443 1107 q 506 947 522 1024 q 460 853 494 892 q 385 778 426 814 q 310 701 344 743 q 263 600 275 660 l 174 182 q 176 133 167 146 q 222 119 185 119 l 286 119 l 261 0 l 132 0 z "},"ไ":{"ha":418,"x_min":43,"x_max":549,"o":"m 172 0 q 69 38 96 0 q 57 144 43 75 l 188 763 q 245 899 204 844 q 340 983 286 953 l 108 983 l 133 1103 l 549 1103 l 525 989 q 398 899 440 958 q 333 740 356 840 l 214 182 q 216 133 207 146 q 263 119 225 119 l 326 119 l 301 0 l 172 0 z "},"ๅ":{"ha":611,"x_min":63,"x_max":574,"o":"m 239 -222 l 388 472 q 398 572 401 535 q 363 626 394 610 q 261 642 332 642 q 163 632 217 642 q 63 606 108 622 l 88 722 q 194 752 133 740 q 315 764 256 764 q 515 699 457 764 q 543 492 574 633 l 390 -222 l 239 -222 z "}}}
